<?xml version="1.0" encoding="UTF-8"?>
<svg id="Calque_2" data-name="Calque 2" xmlns="http://www.w3.org/2000/svg" viewBox="0 0 750.26 276.67">
  <defs>
    <style>
      .cls-1 {
        fill: #f39339;
      }

      .cls-2, .cls-3 {
        fill: #fff;
      }

      .cls-4 {
        fill: none;
      }

      .cls-5 {
        fill: #46457e;
      }

      .cls-6 {
        fill: #026063;
      }

      .cls-7 {
        font-family: Poppins-Bold, Poppins;
        font-weight: 700;
      }

      .cls-3 {
        font-size: 12px;
      }

      .cls-8 {
        font-family: Poppins-ExtraLight, Poppins;
        font-weight: 200;
      }

      .cls-9 {
        fill: #aa2734;
      }
    </style>
  </defs>
  <g id="Calque_1-2" data-name="Calque 1">
    <g>
      <g>
        <g>
          <g>
            <path class="cls-1" d="M227.19,177.69c-12.28-.58-23.12-14.45-36.84-32-4.86-6.21-9.88-12.64-15.42-19.06-4.87-5.63-10.13-11.25-15.21-16.68-17.02-18.17-33.1-35.34-31.08-49.82,2.54-17.94,33.02-30.71,65.59-41.83,21.91-7.27,39.71-12.12,55.44-12.12,8.47,0,15.74,1.41,22.23,4.3l.24.1.19.18c19.94,18.95,22.33,42.73,21.94,65.61-.38,22.21-2.11,33.44-17.97,55.35l-1.1,1.54c-15.6,21.84-31.74,44.42-47.5,44.42-.16,0-.32,0-.48,0Z"/>
            <path class="cls-2" d="M249.66,7.69c7.8,0,15.04,1.24,21.62,4.17,19.78,18.8,21.84,42.53,21.47,64.49-.38,22.24-2.12,32.98-17.68,54.49-15.43,21.58-32.03,45.35-47.39,45.35-.15,0-.29,0-.44,0-15.75-.75-30.21-26.25-51.18-50.54-20.97-24.29-48.45-47.36-45.95-65.31,2.5-17.67,34.99-30.51,64.59-40.62,20-6.64,38.68-12.04,54.96-12.04M249.66,4.69v3-3c-15.93,0-33.87,4.87-55.91,12.19-33.04,11.28-63.97,24.3-66.61,43.04-2.12,15.2,14.2,32.61,31.47,51.05,5.08,5.42,10.33,11.02,15.17,16.64,5.52,6.39,10.53,12.8,15.38,19,13.96,17.85,24.98,31.95,37.92,32.57h.03s.03,0,.03,0c.18,0,.35,0,.53,0,16.53,0,32.9-22.9,48.72-45.05l1.11-1.55c16.1-22.24,17.86-33.64,18.24-56.19.39-23.22-2.05-47.37-22.41-66.72l-.37-.36-.47-.21c-6.68-2.98-14.15-4.43-22.84-4.43h0Z"/>
          </g>
          <g>
            <path class="cls-5" d="M188.34,272.32c-14.78,0-29.27-2.76-46.48-6.9-25.15-6.06-50.7-13.45-62.53-31.05-13.14-19.7-8-49.66,1.2-71.13,10.86-25.38,28.89-44.9,50.79-54.98,10.87-4.9,22.66-7.48,34.1-7.48,12.94,0,24.37,3.28,33.06,9.49,11.82,8.74,18.44,23.51,25.45,39.15,3.01,6.72,6.13,13.67,9.81,20.57,3.31,6.31,7.13,12.59,10.83,18.66,10.01,16.42,19.46,31.93,17.07,45.34-3.28,18.35-28.44,31.43-51.92,36.26-7.04,1.4-14.04,2.08-21.39,2.08Z"/>
            <path class="cls-2" d="M165.43,102.27c12.08,0,23.47,2.99,32.19,9.21,16.36,12.1,22.38,35.92,34.8,59.21,12.16,23.19,30.91,45.34,27.75,63.02-3.16,17.68-28.03,30.39-50.75,35.06-7.2,1.43-14.17,2.05-21.08,2.05-15.15,0-29.97-2.97-46.13-6.86-23.52-5.67-49.94-13.02-61.63-30.43-11.85-17.77-8.89-45.85,1.33-69.71,10.32-24.12,27.88-44.01,50.04-54.21,10.72-4.83,22.39-7.34,33.48-7.34M165.44,99.27v3-3c-11.66,0-23.66,2.63-34.71,7.61-22.26,10.24-40.56,30.04-51.56,55.76-9.35,21.83-14.54,52.36-1.07,72.55,12.13,18.06,37.98,25.55,63.43,31.68,17.31,4.17,31.9,6.95,46.83,6.95,7.45,0,14.54-.69,21.67-2.11,24-4.93,49.71-18.43,53.11-37.47,2.49-13.96-7.1-29.71-17.27-46.38-3.69-6.05-7.5-12.3-10.78-18.56-3.67-6.88-6.77-13.8-9.77-20.5-7.09-15.82-13.79-30.77-25.9-39.73-8.99-6.42-20.72-9.8-33.97-9.8h0Z"/>
          </g>
          <g>
            <path class="cls-9" d="M90.51,173.62c-18.58,0-35.29-5.29-47.07-14.89-17.45-14.23-23.58-37.77-30.07-62.7-.46-1.78-.93-3.58-1.4-5.38-.66-2.5-1.35-5.01-2.03-7.52C3.44,59.22-3.29,34.48,6.25,19.64,13.58,8.11,31.95,1.5,56.64,1.5c5.03,0,10.15.29,15.23.85,26.01,2.89,48.36,12.66,70.33,30.74,13.83,11.7,45.6,42.25,42.21,73.4-2.73,27.88-32.6,52.06-60.7,61.51-10.87,3.73-22.04,5.62-33.2,5.62Z"/>
            <path class="cls-2" d="M56.64,3c5.05,0,10.13.29,15.06.84,25.34,2.82,47.3,12.11,69.55,30.41,21.96,18.58,44.49,46.18,41.67,72.08-2.53,25.9-30.41,50.4-59.69,60.25-10.95,3.75-22.1,5.54-32.72,5.54-18.05,0-34.6-5.15-46.12-14.55-18.3-14.92-23.93-40.54-30.97-67.29C6.38,63.81-2.63,36.22,7.51,20.45,15.44,7.99,35.79,3,56.64,3M56.64,0C31.43,0,12.6,6.87,4.98,18.84c-9.89,15.39-3.08,40.45,3.52,64.69.68,2.51,1.36,5.02,2.03,7.52.47,1.79.94,3.58,1.4,5.36,6.55,25.17,12.74,48.94,30.57,63.48,12.04,9.82,29.09,15.22,48.02,15.22,11.32,0,22.66-1.92,33.69-5.7,28.54-9.61,58.91-34.26,61.7-62.8,3.46-31.83-28.72-62.82-42.72-74.66C120.94,13.66,98.34,3.78,72.04.86c-5.13-.57-10.31-.86-15.39-.86h0Z"/>
          </g>
        </g>
        <g>
          <g>
            <path class="cls-4" d="M177.78,173.06l-10.48-52.47-33.34-42.09,10.81,52.47,33.01,42.09ZM152.83,124.55c.63-1.71,2.53-2.59,4.24-1.97l.06.02c1.71.63,2.59,2.53,1.97,4.24s-2.53,2.59-4.24,1.97l-.06-.02c-1.71-.63-2.59-2.53-1.97-4.24Z"/>
            <path class="cls-4" d="M125.5,198.65l2.83-7.72c.63-1.71,2.53-2.59,4.24-1.97s2.59,2.53,1.97,4.24l-2.83,7.72c19.55,6.26,39.91,4.48,57.33-3.61,17.42-8.09,31.91-22.48,39.75-41.46l-7.72-2.83c-1.71-.63-2.59-2.53-1.97-4.24s2.53-2.59,4.24-1.97l7.72,2.83c6.26-19.55,4.48-39.91-3.61-57.33-8.09-17.42-22.48-31.91-41.46-39.75l-2.83,7.72c-.63,1.71-2.53,2.59-4.24,1.97s-2.59-2.53-1.97-4.24l2.83-7.72c-19.55-6.26-39.91-4.48-57.33,3.61-17.42,8.09-31.91,22.48-39.75,41.46l7.72,2.83c1.71.63,2.59,2.53,1.97,4.24s-2.53,2.59-4.24,1.97l-7.72-2.83c-6.26,19.55-4.48,39.91,3.61,57.33,8.09,17.42,22.48,31.91,41.46,39.75ZM127.27,62.34c1.26-.25,2.49.24,3.24,1.18l42.45,53.58c.35.44.57.94.67,1.46l13.33,66.75c.35,1.79-.8,3.52-2.58,3.87-1.31.26-2.6-.29-3.32-1.31l-41.93-53.47c-.33-.41-.54-.88-.64-1.38v.02s-13.77-66.82-13.77-66.82c-.36-1.78.79-3.52,2.57-3.89Z"/>
            <path class="cls-2" d="M143.3,139.81v-.02c.3.4.7.74,1.17.97l60.87,30.21c1.09.61,2.5.55,3.56-.25,1.45-1.09,1.75-3.15.66-4.61l-40.76-54.51c-.31-.43-.72-.79-1.23-1.03l-61.38-30.09c-1.09-.52-2.41-.44-3.43.33-1.45,1.1-1.74,3.16-.64,4.62l41.19,54.38Z"/>
            <path class="cls-2" d="M69.99,168.39l-.24-.49c-.81-1.62-2.79-2.29-4.42-1.49-1.62.81-2.29,2.79-1.49,4.42l.24.49c.81,1.62,2.79,2.29,4.42,1.49,1.62-.81,2.29-2.79,1.49-4.42Z"/>
            <path class="cls-2" d="M126.22,206.04c21.46,7.85,44.86,6.91,65.6-2.72,19.86-9.22,36.2-26,44.34-48.17,7.85-21.46,6.91-44.86-2.72-65.6-9.63-20.74-26.88-36.55-48.35-44.41-22.19-8.09-45.56-6.43-65.42,2.78-19.86,9.22-36.2,26-44.34,48.17-7.85,21.46-6.91,44.86,2.72,65.6,9.22,19.86,26,36.2,48.17,44.34ZM80.43,101.58l7.72,2.83c1.71.63,3.61-.25,4.24-1.97s-.25-3.61-1.97-4.24l-7.72-2.83c7.84-18.98,22.34-33.38,39.75-41.46,17.42-8.08,37.77-9.86,57.33-3.61l-2.83,7.72c-.63,1.71.25,3.61,1.97,4.24s3.61-.25,4.24-1.97l2.83-7.72c18.98,7.84,33.38,22.34,41.46,39.75,8.08,17.42,9.86,37.77,3.61,57.33l-7.72-2.83c-1.71-.63-3.61.25-4.24,1.97s.25,3.61,1.97,4.24l7.72,2.83c-7.84,18.98-22.34,33.38-39.75,41.46-17.42,8.08-37.77,9.86-57.33,3.61l2.83-7.72c.63-1.71-.25-3.61-1.97-4.24s-3.61.25-4.24,1.97l-2.83,7.72c-18.98-7.84-33.38-22.34-41.46-39.75-8.08-17.42-9.86-37.77-3.61-57.33Z"/>
            <path class="cls-2" d="M244.01,162.88c-9.56,22.7-27,39.93-47.92,49.64-22.23,10.33-48.42,12.17-73.27,3.08-9.89-3.62-18.83-8.7-26.66-14.91-8.11-6.44-15.02-14.08-20.57-22.56-1-1.53-3.04-1.96-4.57-.96-1.53,1-1.96,3.04-.96,4.57,5.94,9.07,13.33,17.25,22,24.13,8.36,6.63,17.91,12.07,28.48,15.94,26.56,9.72,54.56,7.75,78.33-3.29,21.07-9.79,38.82-26.69,49.36-48.89h-4.23v-6.75Z"/>
            <path class="cls-2" d="M248.38,81.91c-11.09-23.51-31.09-42.85-57.44-52.49-26.56-9.72-54.56-7.75-78.33,3.29-23.78,11.04-43.35,31.15-53.06,57.71-4.17,11.41-6.18,23.11-6.25,34.64-.07,11.96,1.97,23.7,5.88,34.72.61,1.72,2.5,2.62,4.21,2.01,1.72-.61,2.62-2.5,2.01-4.21h0c-3.67-10.34-5.57-21.32-5.52-32.47.06-10.74,1.95-21.69,5.87-32.4,9.09-24.85,27.4-43.66,49.64-53.98,22.23-10.33,48.42-12.17,73.27-3.08s43.66,27.4,53.98,49.64c.48,1.02.93,2.06,1.37,3.1v-6.47h4.37Z"/>
            <path class="cls-2" d="M662.12,81.91H248.38c.09.19.19.38.28.58,11.04,23.77,13.01,51.76,3.29,78.33-1.11,3.03-2.35,5.97-3.7,8.82h413.88c24.23,0,43.86-19.64,43.86-43.86h0c0-24.23-19.64-43.86-43.86-43.86Z"/>
            <path class="cls-2" d="M248.66,82.48c-.09-.19-.18-.38-.28-.58h-4.37v6.47c9.1,21.54,10.38,46.47,1.71,70.17-.54,1.47-1.11,2.91-1.71,4.34v6.75h4.23c1.36-2.86,2.6-5.79,3.7-8.82,9.72-26.57,7.75-54.56-3.29-78.33Z"/>
          </g>
          <g>
            <path class="cls-6" d="M301.06,107.98l.5-1.9c.53-1.03,1.47-3.36,2.8-6.98,1.33-3.62,2-5.59,2-5.93s.1-.62.3-.85.43-.35.7-.35c.2-.2.68-.3,1.45-.3l.8.8c.77.7,1.15,1.33,1.15,1.9s-.11,1.14-.33,1.72c-.22.58-.84,1.96-1.88,4.13-.13.37-.32.79-.55,1.27-.23.48-.42.87-.55,1.15-.13.28-.2.46-.2.53s-.02.17-.08.33c-.05.15-.12.35-.22.6-.1.25-.23.56-.4.93-1.33,2.93-2,4.56-2,4.88s-.08.56-.25.73c-.17,0-.25.13-.25.4v.15c0,.33-.27,1.22-.8,2.65-1.43,4.84-2.15,7.86-2.15,9.08s-.38,2.01-1.15,2.38c-.97.27-1.75-.23-2.35-1.5-.6-1.27-.7-2.82-.3-4.65.37-.97.55-1.67.55-2.1.1-.63.44-1.78,1.03-3.42.58-1.65.96-2.64,1.12-2.98.33,0,.5-.37.5-1.1s.18-1.25.55-1.55Z"/>
            <path class="cls-6" d="M306.64,122.31c-.22-.22-.33-.43-.33-.65s-.08-.43-.25-.62c-.57-.57.33-3.02,2.7-7.35.2-.2.46-.55.77-1.05.32-.5.53-.78.63-.85,0-.13.05-.26.15-.38.1-.12.22-.17.35-.17v-.3c0-.3.55-1.03,1.65-2.2,2.93-3.07,5.2-3.97,6.8-2.7.2.27,1.58,1.53,4.15,3.8l-.9,2.5c-.73,2.17-.52,4.2.65,6.1.17.37.5.72,1,1.05.5.33,1,.53,1.5.6.73.13,1.1.52,1.1,1.15s-.3,1.02-.9,1.15c-2.23.3-4.13-1.07-5.7-4.1-.47-.63-.77-1.37-.9-2.2-.5.7-1.03,1.33-1.6,1.9-4.7,4.74-8.17,6.39-10.4,4.95-.1-.2-.26-.41-.48-.62ZM319.61,110.48c-.6-1.33-1.27-2-2-2s-1.85.88-3.35,2.63-2.87,3.81-4.1,6.18l-1.25,2.85c0,.37.43.34,1.28-.07s1.56-.86,2.13-1.33c2.87-2.47,4.93-4.62,6.2-6.45l1.1-1.8Z"/>
            <path class="cls-6" d="M354.82,91.08s.2-.02.5-.05c.8-.07,1.53-.08,2.2-.05,2.37.2,4.23.87,5.6,2.03,1.37,1.15,2.03,2.84,2,5.08-.07.87-.55,2.05-1.45,3.55s-2,2.84-3.3,4c-1.3,1.17-2.23,1.88-2.8,2.15.03.03.65.27,1.85.7,2.6.97,4.23,2.8,4.9,5.5.33,1.47-.03,3.42-1.1,5.85l-.75,1.1c-.03.13-.33.64-.9,1.53-.57.88-1.07,1.59-1.5,2.13-2.2,1.87-4.02,3.07-5.45,3.6-1.37.6-2.97.92-4.8.95-1.83.03-3.18-.23-4.05-.8-1.43-.9-2.28-1.83-2.55-2.78-.27-.95.07-1.71,1-2.27.2-.13.6-.14,1.2-.03.6.12,1.03.31,1.3.58,1.27,1.17,3.07,1.45,5.4.85,1.3-.4,2.33-.9,3.08-1.5s1.64-1.53,2.68-2.8c.97-1.3,1.57-2.61,1.8-3.93.23-1.32.08-2.23-.45-2.73-1.77-2.47-4.42-3.23-7.95-2.3-.67.1-1.33.22-1.98.37s-1.1.24-1.35.28c-.25.03-.38.1-.4.2-.02.1-.16.4-.43.9-.33.63-1.11,2.68-2.33,6.13-1.22,3.45-2.18,5.21-2.87,5.28-.37.03-.82-.33-1.35-1.1-.03-.07-.17-.27-.4-.62s-.4-.65-.5-.9c-.1-.25-.15-.46-.15-.62-.07-.37.02-.76.25-1.18.23-.42.48-1.13.75-2.12.43-1.3,1.69-4.53,3.78-9.7,2.08-5.17,3.63-8.88,4.63-11.15,1-2.27,1.33-3.45,1-3.55,0-.1-.05-.25-.15-.45s-.13-.35-.1-.45c0-.2.59-.5,1.77-.9s1.99-.57,2.43-.5c.63,0,.95-.08.95-.25ZM358.25,95.08c-.95-.17-1.86-.13-2.73.1-.87.23-1.3.65-1.3,1.25s-.27,1.17-.8,1.7c-.07.27-.27.6-.6,1,0,.07-.1.27-.3.6-.73,1.37-1.28,2.55-1.65,3.55-1,2.37-1.5,3.8-1.5,4.3,2.07-.4,3.45-.73,4.15-1,.87-.5,1.43-.88,1.7-1.15,2.1-1.97,3.57-3.73,4.4-5.3.73-1.17,1.14-2.03,1.23-2.6.08-.57-.09-1.05-.53-1.45-.43-.5-1.13-.83-2.08-1Z"/>
            <path class="cls-6" d="M371.67,108.43c1.67-1.43,3.17-2.3,4.5-2.6,2-.47,3.4-.28,4.2.55,1.3.57,2.05,1.75,2.25,3.55.27,2.77-.65,5.67-2.75,8.7-1.23,1.8-2.93,3.35-5.1,4.65-.87.6-2.4.97-4.6,1.1-.57,0-1.22-.32-1.95-.95-1.5-1.57-2.15-2.95-1.95-4.15l.1-1.15c-.17-.17-.21-.3-.12-.4.08-.1.14-.17.17-.2.2,0,.27-.16.2-.47-.07-.32.05-.93.35-1.83.3-.9.68-1.73,1.15-2.5,1.13-1.87,2.32-3.3,3.55-4.3ZM377.35,114.96c.05-.12.14-.37.27-.75.13-.38.26-.67.38-.87.12-.2.18-.71.2-1.53.02-.82-.11-1.31-.38-1.47-.37-.17-.67-.22-.9-.15-.23.07-.62.28-1.15.65-2.53,2.13-4.05,4.42-4.55,6.85-.1.83,0,1.46.27,1.88.28.42.76.53,1.43.33.67-.2,1.27-.56,1.8-1.07.53-.52.88-.86,1.05-1.03.17-.17.31-.32.43-.45.12-.13.23-.33.35-.57s.21-.43.28-.55c.07-.12.16-.33.28-.63.12-.3.2-.51.25-.62Z"/>
            <path class="cls-6" d="M388.63,118.83c.77,0,1.73-.57,2.88-1.7,1.15-1.13,2.36-2.73,3.63-4.77,1.27-2.05,1.97-3.23,2.1-3.53.13-.3.29-.63.48-1s.32-.62.4-.77.19-.33.33-.53c.23-.3.47-.48.7-.55h1.15c.2.03.43.18.7.45.83.4,1.25.78,1.25,1.15-.1.23-.32.74-.65,1.53-.33.78-.53,1.24-.6,1.37-1.77,3.83-2.77,6.5-3,8-.37,2.17-.02,3.73,1.05,4.7.53.37.1.88-1.3,1.55-.37.2-.6.3-.7.3-.53.27-1.22-.13-2.05-1.2-.47-.73-.69-1.69-.67-2.88.02-1.18-.02-1.79-.12-1.83s-.77.53-2,1.7c-2.07,2-3.47,2.98-4.2,2.95-.37,0-.88-.33-1.55-.98-.67-.65-1.12-1.27-1.35-1.88-.3-1.27-.13-3.14.5-5.63.63-2.48,1.45-4.68,2.45-6.6,1-1.92,1.83-2.84,2.5-2.78,1.03.13,1.85.93,2.45,2.4.23.43.15.83-.25,1.2-.5.67-1.13,1.75-1.9,3.25-.77,1.5-1.38,2.88-1.85,4.15-.47,1.27-.58,1.9-.35,1.9Z"/>
            <path class="cls-6" d="M413.53,103.93c.5-.23,1.15-.35,1.95-.35s1.32.07,1.55.2c.2-.07.33-.1.4-.1.4,0,.92.33,1.55,1,.63.67,1.03,1.2,1.2,1.6,0,2.43-.2,3.65-.6,3.65-.17,0-.25.1-.25.3,0,.47-.41.98-1.23,1.55s-1.56.85-2.22.85c-.37-.1-.73-.33-1.1-.67-.37-.35-.55-.71-.55-1.08,0-.03.34-.45,1.03-1.25.68-.8,1.02-1.52,1.02-2.15,0-.27-.28-.4-.85-.4-1.83.83-3.15,1.62-3.95,2.35-.2.4-.4.6-.6.6,0-.03-.02-.05-.07-.05s-.24.17-.58.5c-.33.33-.67.78-1.02,1.33-.35.55-.56,1.04-.63,1.48l-.1.15v.25c-.03.07-.05.2-.05.4,0,.53.71,1.33,2.13,2.38,1.42,1.05,2.4,1.85,2.95,2.4.55.55.89,1.04,1.02,1.47.3.6.45,1.13.45,1.6,0,1.13-.59,2.01-1.77,2.62-1.18.62-2.59.93-4.23.93s-3.05-.35-4.25-1.05c-1.2-.7-1.81-1.31-1.83-1.83-.02-.52.16-.82.53-.92.33-.27.8-.33,1.4-.2.7.13,1.57.27,2.6.4.67,0,1.29-.07,1.88-.2.58-.13.88-.27.88-.4s-.13-.32-.4-.55c-.27-.23-.55-.35-.85-.35,0-.13-.66-.69-1.98-1.68-1.32-.98-1.98-1.63-1.98-1.92,0-.03.02-.07.05-.1v-.25c-.23,0-.45-.32-.65-.95s-.3-1.25-.3-1.85c0-1.73,1.04-3.63,3.13-5.68,2.08-2.05,4.19-3.39,6.33-4.03Z"/>
            <path class="cls-6" d="M435.96,104.48c.42.33.82.92,1.22,1.75s.6,1.45.6,1.85c0,.43-.4,1.27-1.2,2.5-.43.87-.66,1.34-.67,1.43-.02.08-.05.17-.1.28s-.08.16-.1.17c-.02.02-.05.06-.1.12-.05.07-.09.1-.12.1s-.07.02-.12.05c-.05.03-.1.03-.15,0-.05-.03-.24-.04-.58-.03-.33.02-.73-.22-1.2-.73-.47-.5-.7-1-.7-1.5s.15-.98.45-1.45.45-.74.45-.83-.15-.12-.45-.12c-.8,0-1.91.48-3.33,1.45-1.42.97-2.13,2.04-2.13,3.23s.3,2.26.9,3.22c.27.27.66,1.06,1.17,2.38s.78,2.46.78,3.42-.44,1.75-1.33,2.35c-.88.6-2.1.9-3.65.9s-2.92-.5-4.1-1.5c-1.18-1-1.77-2.03-1.77-3.1,0-.57.23-.85.7-.85.13.03.6.29,1.4.77.8.48,1.47.73,2,.73,1.33,0,2.07-.37,2.2-1.1,0-.47-.23-1.17-.7-2.1-1.17-1.73-1.82-4.03-1.95-6.9,0-1.17,1.15-2.58,3.45-4.25,2.3-1.67,4.22-2.58,5.75-2.75,1.83,0,2.96.17,3.38.5Z"/>
            <path class="cls-6" d="M438.68,120.61c.03-.38.05-.66.05-.82s-.03-.37-.1-.6c-.2-.17-.26-.3-.18-.4.08-.1.12-.17.12-.2.27-.07.3-.25.1-.55-.1-.27-.04-.88.18-1.83.22-.95.47-1.79.77-2.53.93-2.13,1.93-3.77,3-4.9,1.57-1.77,2.88-2.85,3.95-3.25,1.47-.6,2.75-.48,3.85.35,1.9.53,3.05,1.57,3.45,3.1.63,2.53.15,5.37-1.45,8.5-1.13,2.27-2.42,4.01-3.85,5.23s-3.22,2.04-5.35,2.48c-.57.07-1.25-.15-2.05-.65-.73-.57-1.34-1.27-1.83-2.1-.48-.83-.71-1.44-.68-1.83ZM447.59,117.63c1.33-1.87,1.98-3.93,1.95-6.2-.03-.9-.18-1.38-.45-1.45-.9-.37-1.87.03-2.9,1.2-.77.83-1.33,1.65-1.7,2.45-.37.8-.77,2.08-1.22,3.83-.45,1.75-.33,2.83.37,3.23.9.53,2.22-.48,3.95-3.05Z"/>
            <path class="cls-6" d="M455.74,119.43c.83-4.03,1.45-6.52,1.85-7.45.2-.63.38-1.22.55-1.75,1-3.23,1.93-5.42,2.8-6.55.03-.07.08-.19.15-.37s.12-.31.15-.38c0-.53.12-1,.35-1.4.4-.6.7-1.18.9-1.75l1.4-2.85c.33-.97.87-1.6,1.6-1.9l-.05-.05c.17-.27.47-.5.92-.7.45-.2.84-.3,1.18-.3.97,0,1.45.5,1.45,1.5,0,.87-.13,1.47-.4,1.8h.05c-.4,1.13-.69,1.8-.88,2-.18.2-.92,1.55-2.22,4.05-1.53,2.97-2.43,4.97-2.7,6-.07.13-.19.42-.38.85-.18.43-.29.68-.33.75l-.8,3.1-.2,1.05c-.53,1.47-.83,2.37-.9,2.7-.17.47-.26.77-.27.9-.02.13-.14.53-.38,1.2-.5,1.63-.78,3.02-.85,4.15l-.05.2c-.1.73-.31,1.28-.63,1.65s-.73.48-1.22.35c-.97-.33-1.48-1.13-1.53-2.37-.05-1.25.09-2.73.43-4.43Z"/>
            <path class="cls-6" d="M475.39,104.88c1.97,0,3.4.48,4.3,1.43.9.95,1.35,1.84,1.35,2.68v.4c0,.7-.47,1.85-1.4,3.45-.47.83-1.18,1.58-2.15,2.23-.97.65-1.93.99-2.9,1.03-.97.03-1.89-.03-2.78-.18-.88-.15-1.43-.22-1.63-.22s-.38.12-.55.35c-.23.37-.35,1.05-.35,2.05.1.93.36,1.58.77,1.95.42.37.93.55,1.53.55s1.17-.12,1.7-.35c.53-.23,1.16-.65,1.88-1.25s1.28-.9,1.68-.9.8.2,1.2.6c.4.4.62.78.65,1.15-.1.77-.88,1.78-2.32,3.03-1.45,1.25-3.09,1.88-4.93,1.88s-3.33-.53-4.5-1.6c-1.17-1.07-1.75-2.58-1.75-4.55,0-.77.04-1.58.12-2.45.08-.87.37-1.93.88-3.2s1.3-2.63,2.4-4.1,2.28-2.49,3.55-3.08c1.27-.58,2.35-.88,3.25-.88ZM475.04,108.53c-.43,0-1.06.36-1.88,1.08-.82.72-1.53,1.54-2.13,2.48.07.4.62.6,1.65.6s1.69-.08,1.98-.23c.28-.15.77-.57,1.45-1.25.68-.68,1.04-1.16,1.08-1.43,0-.73-.53-1.15-1.6-1.25h-.55Z"/>
            <path class="cls-6" d="M507.25,125.68c-.83.2-1.4-.17-1.7-1.1-.6-1.7-.82-3.35-.65-4.95l.1-1.05-1.95,1.55c-2.1,1.87-4.12,2.8-6.05,2.8-2.83-.5-3.62-2.73-2.35-6.7.7-2.07,1.67-3.78,2.9-5.15,2.17-3.23,4.6-4.07,7.3-2.5.83.4,1.37.57,1.6.5.23-.07.48-.65.75-1.75.9-3.83,2.48-8.15,4.75-12.95.53-1.17,1.1-1.72,1.7-1.65.73,0,1.3.5,1.7,1.5.23.53.18,1.08-.15,1.65-.87,1.5-1.93,3.95-3.2,7.35-1.27,3.4-2.17,6.08-2.7,8.03-.53,1.95-.92,4.29-1.15,7.03s-.25,4.51-.05,5.33c.2.82.25,1.35.15,1.6s-.43.41-1,.47ZM498.79,120.13c1-.23,2.4-1.1,4.2-2.6.1-.07.3-.22.6-.45s.5-.42.6-.55c.1-.13.25-.33.45-.58.2-.25.35-.47.45-.67.9-1.77.73-3.18-.5-4.25-.33-.33-.88-.45-1.63-.35-.75.1-1.46.47-2.13,1.1-2,1.8-3.33,4.3-4,7.5-.13.87.52,1.15,1.95.85Z"/>
            <path class="cls-6" d="M522.52,120.46c.08-.05.13-.07.15-.07.02,0,.05-.02.1-.05.05-.03.08-.07.08-.1.23-.2.53-.48.88-.83.35-.35.61-.52.78-.52s.34.08.52.25c.18.17.31.27.38.3.53,0,.46.43-.22,1.3-.68.87-1.53,1.62-2.53,2.25-1.07.93-2.32,1.28-3.78,1.02-1.45-.25-2.61-.98-3.48-2.18-1.03-1.3-1.42-3.38-1.15-6.25.13-1.87.93-3.78,2.4-5.73,1.47-1.95,3.02-3.24,4.65-3.87.47-.3.9-.46,1.3-.48s1.08.04,2.03.17c.95.13,1.69.53,2.22,1.2.83.83,1.25,1.8,1.25,2.9-.13.8-.65,1.72-1.55,2.75-.9,1.03-1.98,1.87-3.25,2.5-1.87.57-3.38.45-4.55-.35-.6-.23-1.01-.18-1.22.15-.22.33-.41,1.17-.58,2.5-.27,2.3.28,3.57,1.65,3.8.13.03.33.08.6.12.27.05.44.08.53.1.08.02.22.03.43.05s.37,0,.5-.03c.27-.07.53-.17.77-.33s.44-.26.57-.33c.27-.13.44-.22.53-.28ZM522.6,112.38c.57-.23,1.14-.65,1.73-1.25.58-.6.88-1.13.88-1.58s-.23-.82-.7-1.1c-.47-.28-1.02-.34-1.65-.18-.63.17-1.28.55-1.95,1.15-.67.6-1.22,1.19-1.65,1.77-.43.58-.6.93-.5,1.03.13.27.67.42,1.6.45.93.03,1.68-.07,2.25-.3Z"/>
            <path class="cls-6" d="M275.91,142l.5-1.9c.53-1.03,1.47-3.36,2.8-6.98,1.33-3.62,2-5.66,2-6.13s.27-.7.8-.7c.17-.17.43-.25.8-.25l.8.8c.37.33.55.78.55,1.35s-.02.94-.05,1.13c-.03.18-.07.35-.1.5-.03.15-.12.37-.25.68-.13.3-.25.57-.35.8-.1.23-.3.66-.6,1.28s-.54,1.14-.73,1.58c-.18.43-.39.89-.63,1.38s-.42.87-.55,1.15-.2.46-.2.53-.02.17-.07.33c-.05.15-.13.35-.23.6-.1.25-.23.56-.4.92-1.33,2.93-2,4.56-2,4.88s-.08.56-.25.72c-.17,0-.25.13-.25.4v.15c0,.33-.27,1.22-.8,2.65-1.43,4.84-2.15,7.71-2.15,8.63s-.02,1.49-.08,1.72c-.05.23-.19.42-.43.55-.97.27-1.63-.13-1.98-1.2-.35-1.07-.33-2.53.08-4.4.37-.97.55-1.67.55-2.1.1-.63.44-1.78,1.02-3.42.58-1.65.96-2.64,1.13-2.98.33,0,.5-.37.5-1.1s.18-1.25.55-1.55Z"/>
            <path class="cls-6" d="M287.81,125.75c.6-.37,1.04-.57,1.33-.6.28-.03.73.08,1.33.35,1.13.73,1.55,1.53,1.25,2.4-.13.9-.35,1.76-.65,2.57s-.48,1.33-.55,1.53c-.3,1.07-1.15,2.4-2.55,4,0,.13-.16.23-.47.3-.32.07-.56.13-.73.2-.47.03-.85-.08-1.15-.35-.07-.3.32-1.11,1.15-2.43.83-1.32,1.42-2.44,1.75-3.38,0-.13.02-.25.05-.35-.57.1-1.15-.1-1.75-.6-1.2-1.17-.87-2.38,1-3.65Z"/>
            <path class="cls-6" d="M296.66,138.9c1.97,0,3.4.47,4.3,1.43.9.95,1.35,1.84,1.35,2.68v.4c0,.7-.47,1.85-1.4,3.45-.47.83-1.18,1.57-2.15,2.23-.97.65-1.93.99-2.9,1.02-.97.03-1.89-.03-2.78-.18-.88-.15-1.43-.22-1.63-.22s-.38.12-.55.35c-.23.37-.35,1.05-.35,2.05.1.93.36,1.58.77,1.95.42.37.93.55,1.53.55s1.17-.12,1.7-.35c.53-.23,1.16-.65,1.88-1.25.72-.6,1.27-.9,1.67-.9s.8.2,1.2.6c.4.4.62.78.65,1.15-.1.77-.88,1.78-2.32,3.03-1.45,1.25-3.09,1.88-4.93,1.88s-3.33-.53-4.5-1.6-1.75-2.58-1.75-4.55c0-.77.04-1.58.12-2.45.08-.87.37-1.93.88-3.2s1.3-2.63,2.4-4.1c1.1-1.47,2.28-2.49,3.55-3.08,1.27-.58,2.35-.87,3.25-.87ZM296.31,142.55c-.43,0-1.06.36-1.88,1.07-.82.72-1.53,1.54-2.13,2.48.07.4.62.6,1.65.6s1.69-.08,1.98-.23c.28-.15.77-.57,1.45-1.25s1.04-1.16,1.08-1.43c0-.73-.53-1.15-1.6-1.25h-.55ZM297.51,134.85l.05-.5c.07-.3.78-1.18,2.15-2.65,1.37-1.47,2.28-2.28,2.75-2.45.27-.13.52-.23.75-.3.43,0,.86.23,1.27.7s.63,1.08.63,1.85c0,.47-.73,1.29-2.18,2.48-1.45,1.18-2.34,2.03-2.68,2.53-.33.5-.75.75-1.25.75-1,0-1.5-.8-1.5-2.4Z"/>
            <path class="cls-6" d="M316.94,146.5c-.38.6-.73.9-1.05.9s-.47.09-.47.28-.18.28-.53.3c-.35.02-.72-.06-1.1-.22-.38-.17-.61-.37-.68-.6,0-.17.12-.77.35-1.83.23-1.05.26-1.73.07-2.05-.18-.32-.59-.34-1.22-.08-1.23.7-2.16,1.61-2.78,2.73s-1.15,2.53-1.6,4.25c-.45,1.72-.66,2.77-.62,3.18.07.63.22,1.02.45,1.15,1,.27,1.88.2,2.65-.2s1.78-1.08,3.05-2.05c.07-.03.21-.22.43-.55.22-.33.43-.55.62-.65.27-.43.67-.65,1.2-.65h1.05c.6.2,1.08.6,1.45,1.2.13.3.13.5,0,.6l-.25.25c.13.27-.45,1.06-1.75,2.37-1.3,1.32-2.13,1.98-2.5,1.98s-.55.1-.55.3c0,.13-.51.44-1.53.93-1.02.48-1.84.79-2.48.93-1.53.27-2.94-.05-4.23-.95-1.28-.9-1.92-2.12-1.92-3.65-.17-1.53.11-3.45.82-5.75s1.64-4.15,2.78-5.55c1.7-2.03,3.02-3.24,3.95-3.63.93-.38,1.93-.58,3-.58,1.83.43,2.75,1,2.75,1.7l.25.25c.3,0,.63.52,1,1.55.37,1.03.42,1.8.15,2.3-.13.64-.39,1.25-.77,1.85Z"/>
            <path class="cls-6" d="M326.22,142.45c1.67-1.43,3.17-2.3,4.5-2.6,2-.47,3.4-.28,4.2.55,1.3.57,2.05,1.75,2.25,3.55.27,2.77-.65,5.67-2.75,8.7-1.23,1.8-2.93,3.35-5.1,4.65-.87.6-2.4.97-4.6,1.1-.57,0-1.22-.32-1.95-.95-1.5-1.57-2.15-2.95-1.95-4.15l.1-1.15c-.17-.17-.21-.3-.12-.4.08-.1.14-.17.17-.2.2,0,.27-.16.2-.48-.07-.32.05-.93.35-1.83.3-.9.68-1.73,1.15-2.5,1.13-1.87,2.32-3.3,3.55-4.3ZM331.9,148.98c.05-.12.14-.37.27-.75s.26-.68.38-.88c.12-.2.18-.71.2-1.53.02-.82-.11-1.31-.38-1.47-.37-.17-.67-.22-.9-.15-.23.07-.62.28-1.15.65-2.53,2.13-4.05,4.42-4.55,6.85-.1.83,0,1.46.27,1.88.28.42.76.53,1.43.33.67-.2,1.27-.56,1.8-1.07.53-.52.88-.86,1.05-1.02.17-.17.31-.32.43-.45.12-.13.23-.33.35-.58.12-.25.21-.43.28-.55.07-.12.16-.33.28-.63.12-.3.2-.51.25-.62Z"/>
            <path class="cls-6" d="M353.27,142.85l1.25-.4c.5,0,1.02.18,1.58.53.55.35.82.71.82,1.08,0,.1.1.23.3.4.6.63.9,1.37.9,2.2s-.26,2.32-.77,4.48-.78,3.48-.8,3.98c-.02.5.05.95.2,1.35.15.4.22.69.22.88s-.15.43-.45.75c-.3.32-.77.48-1.43.48s-1.28-.36-1.88-1.07c-.6-.72-.9-1.62-.9-2.7s.37-2.99,1.1-5.73c.03-.2.07-.37.1-.53.03-.15.06-.27.07-.35.02-.08.03-.16.05-.22.02-.07.02-.16.02-.28s-.07-.17-.2-.17-.34.08-.63.25c-.28.17-.55.35-.8.55s-.6.49-1.05.88c-.45.38-.84.69-1.18.93s-1.03.8-2.1,1.7c-2.73,2.37-4.23,3.55-4.48,3.55s-.75-.23-1.5-.7-1.12-.98-1.12-1.53.3-1.72.9-3.53c.6-1.8,1.32-3.57,2.15-5.3.1-.2.22-.82.35-1.85.27-1.6.75-2.4,1.45-2.4s1.34.33,1.93,1c.58.67.88,1.34.88,2.03s-.16,1.48-.48,2.4-.54,1.46-.67,1.63c.07-.03.17-.12.3-.25.33-.33.87-.73,1.6-1.2,1.03-.77,1.9-1.37,2.6-1.8l1.65-1Z"/>
            <path class="cls-6" d="M376.68,142.2c.27-.13.68-.13,1.23,0,.55.13.83.3.83.5s.06.43.17.7c.12.27.22.4.33.4.33.03.37.3.1.8-.27.5-.63.92-1.1,1.25-.83.53-1.27.86-1.3.98-.03.12-.02.29.05.53.43,1.03.14,2.4-.88,4.1-1.02,1.7-2.4,3.23-4.15,4.6-1.75,1.37-3.36,2.14-4.83,2.3-.77.27-1.65-.05-2.65-.95-.77-.37-1.43-.98-2-1.85-.57-.87-.82-1.55-.75-2.05.23-2.53,1.13-5.19,2.68-7.98,1.55-2.78,3.33-4.63,5.33-5.53.67-.3,1.38-.4,2.15-.3.77.1,1.28.42,1.55.95.5.97.38,1.58-.35,1.85-.37,0-.55.15-.55.45.23.1.92.07,2.05-.1,1.13-.17,1.83-.38,2.1-.65ZM372.13,146.35l-.85.25c-.13,0-.32-.08-.55-.25l-.8-1-.85.85c-.77.77-1.41,1.8-1.93,3.1-.52,1.3-.81,2.33-.88,3.1-.07.77,0,1.24.17,1.43.18.18.42.28.7.3.28.02.83-.17,1.63-.57.43-.43.73-.68.9-.73s.27-.09.3-.12.08-.11.15-.23c.07-.12.13-.26.2-.42.13-.37.57-1.02,1.3-1.95.67-.73,1.09-1.33,1.27-1.78.18-.45.24-.82.18-1.13-.07-.3-.14-.47-.22-.53-.08-.05-.2-.1-.35-.15-.15-.05-.28-.11-.38-.18Z"/>
            <path class="cls-6" d="M404.73,156.95c-.8,0-1.69-.19-2.68-.58-.98-.38-1.48-.94-1.48-1.67v-3.1c0-1.33-.12-2.1-.35-2.3-.5-.27-1.17.11-2,1.13-.83,1.02-1.82,2.46-2.95,4.32-1.13,1.87-2.07,2.55-2.8,2.05-1.27-.4-1.75-1.2-1.45-2.4.87-2.83,1.47-5.07,1.8-6.7-.27-.43-.82-.37-1.65.2-.1.07-.26.17-.47.3-.22.13-.4.25-.55.35-.15.1-.33.23-.52.4-.37.37-1.21,1.56-2.53,3.58-1.32,2.02-2.16,3.18-2.53,3.47-.23.6-.45.98-.65,1.13-.2.15-.48.14-.85-.03-1.4-.6-2.1-1.64-2.1-3.13s.48-3.92,1.45-7.33c.57-1.03.85-2,.85-2.9.1-.63.3-1.49.6-2.57s.52-1.67.65-1.78c.23-.27.72-.36,1.45-.28.73.08,1.2.34,1.4.77.87.9.92,2.43.15,4.6-.4.83-.82,1.95-1.25,3.35.4-.7,1.47-2,3.2-3.9.6-.67,1.28-1.18,2.03-1.55s1.36-.55,1.83-.55c.8.13,1.48.53,2.03,1.18s.89,1.54,1.02,2.68l-.25,2.6c.77-1.03,1.78-2.12,3.05-3.25,1.4-1.07,2.55-1.13,3.45-.2.83.47,1.46,1.29,1.88,2.45.42,1.17.56,2.38.43,3.65-.13,1.27,0,2.52.4,3.75.33.6.39,1.13.17,1.58-.22.45-.47.68-.77.68Z"/>
            <path class="cls-6" d="M408.98,156.5l-.25-1c-.8-.4-1.08-.95-.85-1.65.47-.8,1.31-2.64,2.53-5.53,1.22-2.88,1.89-4.54,2.03-4.98,0-.73.23-1.25.7-1.55.63-.47,1.3-.3,2,.5.7.8,1.05,1.83,1.05,3.1,0,.4-.38,1.54-1.13,3.42-.75,1.88-1.49,3.57-2.22,5.05-.73,1.48-1.23,2.39-1.48,2.73-.25.33-.54.5-.88.5l-1.5-.6ZM415.48,131.2c.57,0,1.18.17,1.85.5.17.4.6,1.05,1.3,1.95.7.9,1.05,1.62,1.05,2.15,0,1.43-.8,2.15-2.4,2.15-.67,0-1.43-.4-2.28-1.2-.85-.8-1.28-1.65-1.28-2.55,0-.17.29-.69.88-1.58.58-.88.88-1.36.88-1.43Z"/>
            <path class="cls-6" d="M428.74,138.9c1.97,0,3.4.47,4.3,1.43.9.95,1.35,1.84,1.35,2.68v.4c0,.7-.47,1.85-1.4,3.45-.47.83-1.18,1.57-2.15,2.23-.97.65-1.93.99-2.9,1.02-.97.03-1.89-.03-2.78-.18-.88-.15-1.43-.22-1.63-.22s-.38.12-.55.35c-.23.37-.35,1.05-.35,2.05.1.93.36,1.58.77,1.95.42.37.93.55,1.53.55s1.17-.12,1.7-.35c.53-.23,1.16-.65,1.88-1.25s1.28-.9,1.68-.9.8.2,1.2.6.62.78.65,1.15c-.1.77-.88,1.78-2.32,3.03-1.45,1.25-3.09,1.88-4.93,1.88s-3.33-.53-4.5-1.6c-1.17-1.07-1.75-2.58-1.75-4.55,0-.77.04-1.58.12-2.45.08-.87.37-1.93.88-3.2s1.3-2.63,2.4-4.1,2.28-2.49,3.55-3.08c1.27-.58,2.35-.87,3.25-.87ZM428.39,142.55c-.43,0-1.06.36-1.88,1.07-.82.72-1.53,1.54-2.13,2.48.07.4.62.6,1.65.6s1.69-.08,1.98-.23c.28-.15.77-.57,1.45-1.25s1.04-1.16,1.08-1.43c0-.73-.53-1.15-1.6-1.25h-.55Z"/>
            <path class="cls-6" d="M454.89,154.75l-.9-.35c0-.3-.48-.67-1.45-1.1-1.83-1.5-2.67-2.37-2.5-2.6v-.25c-.23,0-.49-.33-.77-.98-.28-.65-.43-1.27-.43-1.85s.26-1.41.77-2.48c.52-1.07,1.18-1.98,1.98-2.75.8-.77,1.95-1.63,3.45-2.6,3.07-2,5.25-2.62,6.55-1.85,1,.6,1.7,1.43,2.1,2.5,0,2.1-.3,3.15-.9,3.15-.17,0-.25.13-.25.4s-.25.62-.75,1.05c-1.47,1.07-2.3,1.15-2.5.25-.17-.33-.32-.5-.45-.5-.2-.1-.3-.32-.3-.65l.3-.55c.2,0,.53-.39,1-1.18.47-.78.7-1.29.7-1.53s-.02-.37-.07-.4c-.05-.03-.21-.05-.48-.05-2.6,1.17-4.22,2.05-4.85,2.65-.13.23-.22.37-.25.43-.03.05-.12.08-.25.08,0-.27-.53.35-1.6,1.85-.23.33-.58.85-1.05,1.55-.23.23-.36.57-.38,1s-.03.68-.05.75c-.02.07-.02.14,0,.22.02.08.03.15.05.2s.07.12.15.2c.08.08.16.15.22.2.07.05.18.14.35.28.17.13.32.25.45.35,3.03,2.27,4.65,3.78,4.85,4.55.57,1.03.75,1.8.55,2.3-.2.5-.66.92-1.38,1.25-.72.33-1.76.56-3.13.68-1.37.12-2.4.11-3.1-.03-.6-.23-1.18-.57-1.75-1.02-.57-.45-.95-.84-1.15-1.18,0-.47.11-.72.33-.75.22-.03,1.24.03,3.08.2.73,0,1.57-.09,2.5-.28.93-.18,1.45-.39,1.55-.62.1-.07.02-.25-.25-.55Z"/>
            <path class="cls-6" d="M466.49,146.75c2.23-3.7,4.83-5.9,7.8-6.6.7-.2,1.21-.28,1.53-.25.32.03.71.3,1.18.8.77.33,1.33.73,1.67,1.2.35.47.58,1.15.68,2.05.27,2.6-.6,5.33-2.6,8.2-.77,1.1-1.48,1.94-2.15,2.53-.67.58-1.55,1.21-2.65,1.88-1.3.87-2.6,1.35-3.9,1.45-.57,0-1.22-.32-1.95-.95-1.27-1.3-1.8-2.53-1.6-3.7l.1-1.15c-.17-.17-.21-.3-.12-.4.08-.1.14-.17.18-.2.2,0,.27-.16.2-.48-.07-.32.07-.93.4-1.85.33-.92.75-1.76,1.25-2.53ZM476.15,147.1c.2-.53.29-1.26.27-2.18-.02-.92-.16-1.44-.43-1.58-.93-.53-2.03-.28-3.3.75-1.67,1.43-3.32,3.97-4.95,7.6-.7,1.67-.65,2.84.15,3.5,1,.84,2.65,0,4.95-2.5,1.43-1.63,2.53-3.5,3.3-5.6Z"/>
            <path class="cls-6" d="M484.1,146.23c.53-1.48,1.13-2.77,1.8-3.87s1.24-1.65,1.73-1.65.96.55,1.43,1.65c.23.43.15.83-.25,1.2-.5.63-1.08,1.78-1.75,3.43-.67,1.65-1.19,3.17-1.58,4.55-.38,1.38-.46,2.08-.22,2.08.97,0,2.15-.67,3.55-2,.93-.93,2.11-2.55,3.53-4.85,1.42-2.3,2.19-3.63,2.33-4,.5-.93.86-1.54,1.08-1.83.22-.28.49-.48.82-.58h.7c.2.03.43.18.7.45.33.17.5.43.5.8-.1.23-.33.75-.7,1.55-2.23,5.07-3.47,8.27-3.7,9.6-.33,2,.03,3.48,1.1,4.45.4.27.38.57-.07.93-.45.35-.81.53-1.08.53-.53.27-1.22-.13-2.05-1.2-.4-.63-.59-1.58-.58-2.83.02-1.25-.04-1.89-.17-1.92-.13-.03-.82.55-2.05,1.75-1.83,1.8-3.23,2.67-4.2,2.6-.37,0-.76-.25-1.18-.75-.42-.5-.74-1.13-.98-1.9-.23-.77-.21-1.95.07-3.55.28-1.6.69-3.14,1.23-4.63Z"/>
            <path class="cls-6" d="M503.47,155.03c-.18-.68-.28-1.52-.28-2.53s.12-2.08.35-3.25c.6-2.83,1.05-4.68,1.35-5.55.1-.37-.06-.61-.47-.73-.42-.12-.91-.17-1.48-.15-.57.02-.9,0-1-.07l-.2-.3c0-.17-.06-.34-.18-.53-.12-.18-.08-.4.1-.65.18-.25.38-.39.57-.42.2-.03.54-.08,1.03-.15.48-.07.88-.13,1.18-.2,1-.2,1.7-.57,2.1-1.1.43-1.1.98-2.34,1.65-3.73.67-1.38,1.12-2.21,1.35-2.48.57-.3.98-.42,1.25-.37.27.05.57.34.9.88.37.33.48.72.35,1.15-.07.37-.87,2.02-2.4,4.95.4.07.93.07,1.6,0,1.07-.2,1.98-.25,2.75-.15,1.43,0,2.2.62,2.3,1.85.07.37,0,.58-.2.65s-1.5.14-3.9.22c-2.4.08-3.62.19-3.65.33-.33.23-.9,1.83-1.7,4.8-.4,1.83-.62,3.5-.65,5s.17,2.53.6,3.1c.3.3.88.37,1.73.2.85-.17,1.63-.55,2.35-1.15.72-.6,1.28-.74,1.7-.43.42.32.29.94-.37,1.88-.6.93-1.41,1.65-2.43,2.15-1.02.5-1.92.64-2.7.42s-1.59-.69-2.43-1.43c-.6-.8-.99-1.54-1.18-2.23Z"/>
            <path class="cls-6" d="M517.1,145.5l.85-.1c.47,0,.7.1.7.3.23.43.6.32,1.1-.35.17-.23.33-.52.5-.85.47-.73,1.16-1.51,2.08-2.33.92-.82,1.68-1.39,2.28-1.72,1.03-.47,1.98-.66,2.85-.57.87.08,1.75.61,2.65,1.58.57.43.88,1.1.92,2,.05.9-.11,1.68-.47,2.35-.13.5-.66,1.13-1.58,1.9-.92.77-1.76,1.3-2.53,1.6-.7.17-1.58.28-2.65.33-1.07.05-1.77,0-2.1-.17-.23-.13-.42.08-.55.62-.13.55-.24,1.32-.33,2.3-.08.98-.06,1.58.08,1.8.13.22.27.37.4.48,1.17,1.2,2.4,1.27,3.7.2.4-.37.84-.8,1.33-1.3.48-.5.84-.85,1.08-1.05.27-.47.83-.58,1.7-.35.33.3.49.58.48.85-.02.27-.15.65-.4,1.15-.25.5-.7,1.04-1.35,1.63s-1.22,1.04-1.73,1.38c-1.77.93-3.53,1.07-5.3.4-1.3-.53-2.14-1.27-2.53-2.22-.38-.95-.49-2.18-.33-3.68.17-1.5.23-2.43.2-2.8s-.14-.63-.33-.8c-.18-.17-.36-.33-.53-.5-.37-.37-.57-.66-.6-.88-.03-.22,0-.47.08-.75.08-.28.19-.43.33-.43ZM528.1,142.8c-.5-.57-1.25-.48-2.25.25-.33.1-.83.47-1.48,1.1-.65.63-1.21,1.26-1.67,1.88-.47.62-.62.98-.45,1.08-.03.07,0,.12.12.15.12.03.27.06.45.07.18.02.36.03.53.05.17.02.33.02.47,0,.15-.02.48-.07,1-.15s.84-.15.98-.2c.13-.05.37-.17.7-.37.4-.23.98-.9,1.75-2,.23-.9.18-1.52-.15-1.85Z"/>
            <path class="cls-6" d="M540.01,139.95c.23,0,.49.15.78.45.28.3.49.65.62,1.05,0,1.07-.47,2.22-1.4,3.45-.83,1.27-1.4,2.63-1.7,4.1-.03.03-.17.34-.4.92-.23.58-.4.98-.5,1.18l-.25,1.1,3.35-3.45c2.33-2.33,4.03-3.69,5.1-4.08,1.07-.38,1.88.03,2.45,1.22.37.67.58,1.16.65,1.48.07.32.07,1.22,0,2.73v3.1c.1-.03.82-.28,2.15-.75.77-.33,1.62-.53,2.55-.6-.1.9-.6,1.83-1.5,2.77-.9.95-1.8,1.43-2.7,1.43-.47,0-.96-.22-1.48-.65-.52-.43-.88-.91-1.08-1.43-.2-.52-.3-1.72-.3-3.63v-1.85c0-.5-.17-.65-.5-.45-.57.33-2.13,1.83-4.68,4.5-2.55,2.67-4.29,4-5.23,4-.27,0-.58-.18-.95-.55-.37-.37-.57-.68-.63-.95-.05-.27-.08-.88-.08-1.85,0-1.7.95-4.62,2.85-8.75l1.65-3.5c.1-.23.33-.57.7-1h.5Z"/>
            <path class="cls-6" d="M555.93,156.33c-.22-.22-.33-.43-.33-.65s-.08-.42-.25-.62c-.57-.57.33-3.02,2.7-7.35.2-.2.46-.55.77-1.05.32-.5.53-.78.63-.85,0-.13.05-.26.15-.37.1-.12.22-.18.35-.18v-.3c0-.3.55-1.03,1.65-2.2,2.93-3.07,5.2-3.97,6.8-2.7.2.27,1.58,1.53,4.15,3.8l-.9,2.5c-.73,2.17-.52,4.2.65,6.1.17.37.5.72,1,1.05.5.33,1,.53,1.5.6.73.13,1.1.52,1.1,1.15s-.3,1.02-.9,1.15c-2.23.3-4.13-1.07-5.7-4.1-.47-.63-.77-1.37-.9-2.2-.5.7-1.03,1.33-1.6,1.9-4.7,4.73-8.17,6.38-10.4,4.95-.1-.2-.26-.41-.48-.63ZM568.91,144.5c-.6-1.33-1.27-2-2-2s-1.85.88-3.35,2.63-2.87,3.81-4.1,6.18l-1.25,2.85c0,.37.43.34,1.28-.08s1.56-.86,2.13-1.33c2.87-2.47,4.93-4.62,6.2-6.45l1.1-1.8Z"/>
            <path class="cls-6" d="M581.96,141.7l.55-1.7c.17-.13.48-.86.93-2.18.45-1.32.88-2.41,1.28-3.28,1.2-2.67,2.03-4.65,2.5-5.95.2-.3.42-.65.65-1.05.47-.87.78-1.33.95-1.4.27-.07.61-.02,1.02.15.42.17.73.42.95.75.22.33.28.65.18.95s-.76,1.73-1.98,4.3c-1.22,2.57-2.14,4.67-2.77,6.3-.63,1.63-1.2,3.18-1.7,4.65s-.83,2.42-1,2.85l-.25,1.1,1.25-1.2c.4-.3,1.03-.83,1.9-1.6.87-.77,1.41-1.22,1.63-1.35.22-.13.71-.37,1.47-.7,1.3-.57,2.57-.85,3.8-.85s2.27.7,3.1,2.1c.8,1.5.68,3.12-.35,4.85-.5.37-.77.75-.8,1.15-.03.4-.88,1.52-2.55,3.35-.87.9-2.01,1.8-3.43,2.7-1.42.9-2.39,1.44-2.93,1.63-.53.18-.97.31-1.3.37-.83.1-1.37.18-1.6.25-.67-.07-1.08-.15-1.22-.25-.15-.1-.33-.37-.53-.8-.4-.43-.57-.82-.5-1.15.4,0,.63-.07.7-.2,0-.2.32-.27.95-.2.63.07,1.8-.4,3.5-1.4,1.7-1,3.4-2.28,5.1-3.85,1.23-1.6,2.01-2.77,2.33-3.5.32-.73.36-1.35.12-1.85-.07-.33-.56-.45-1.47-.35-.92.1-1.84.47-2.78,1.1-3.6,2.23-6.02,4.73-7.25,7.5l-.25.5c0,.13-.19.3-.57.5-.38.2-.71.3-.98.3-.53-.23-.85-.6-.95-1.1-.47-.33-.7-.62-.7-.88s.23-1.21.7-2.87c.27-1.27.61-2.58,1.02-3.95.42-1.37.71-2.12.88-2.25.27-.47.4-.97.4-1.5Z"/>
            <path class="cls-6" d="M610.52,127.82c.2.52.3.93.3,1.22s-.08.56-.22.77-.49.82-1.02,1.83c-.43,1.6-.8,2.73-1.1,3.4-.3.67-.49,1.13-.57,1.4-.08.27-.33.92-.73,1.95-.4,1.03-.86,2.4-1.38,4.1-.52,1.7-.9,2.76-1.15,3.18-.25.42-.53,1.47-.83,3.18-.5,1.5-.75,2.38-.75,2.65-.1.33-.23.99-.4,1.98-.17.98-.35,1.67-.55,2.08-.1,1.1-.65,1.38-1.65.85-.67-.37-1-.87-1-1.5s.2-1.68.6-3.15c.2-1.63.52-2.82.95-3.55,1.37-4.63,2.1-7.18,2.2-7.65.3-.87.72-2.01,1.25-3.42.53-1.42.89-2.39,1.08-2.93.18-.53.47-1.48.85-2.85.38-1.37.71-2.27.98-2.7.5-.77.83-1.32,1-1.65.03-.2.24-.28.63-.25.38.03.67.17.88.4.23-.07.45.16.65.68Z"/>
            <path class="cls-6" d="M611.82,148.6c-.8,2.13-1.2,3.72-1.2,4.75s.14,1.78.43,2.23c.28.45.82.67,1.6.67s1.43-.09,1.92-.27c.5-.18,1.22-.63,2.15-1.33l1.7-1c.13,0,.27-.08.4-.25.3-.13.65-.08,1.05.15.4.23.6.53.6.9-.07.27-.37.7-.9,1.3-.53.6-.93.92-1.2.95-.47.23-.72.37-.75.4h.05c-.3.4-.6.6-.9.6h-.4c-.13.27-.57.53-1.33.8s-1.46.4-2.13.4c-1.47,0-2.68-.56-3.63-1.68-.95-1.12-1.39-2.51-1.33-4.18.1-2.47.92-5.1,2.45-7.9,2.13-3.97,4.5-5.95,7.1-5.95.63,0,1.35.18,2.15.55,1.03.43,1.73,1.23,2.1,2.4.13.97.1,1.82-.1,2.55-.8,2.43-2.17,4.2-4.1,5.3-.53.33-1.2.5-2,.5-1.57,0-2.7-.5-3.4-1.5l-.35-.4ZM613.92,146.3c0,.47.12.85.35,1.15.23.3.53.45.9.45,1,0,1.87-.5,2.6-1.5.73-1,1.18-1.95,1.33-2.85.15-.9.04-1.48-.33-1.75-.8-.4-1.93.05-3.4,1.35-.9.84-1.57,1.57-2,2.2l-.65,1.05c.27-.1.53-.16.8-.18.27-.02.4,0,.4.08Z"/>
          </g>
        </g>
      </g>
      <text class="cls-3"><tspan class="cls-8" x="357.78" y="186.76">Retrouvez </tspan><tspan class="cls-7" x="417.93" y="186.76">nos indicateurs</tspan><tspan class="cls-8" x="513.81" y="186.76" xml:space="preserve"> pour suivre la contribution des </tspan><tspan class="cls-8"><tspan x="319.7" y="201.16">entreprises et acteurs économiques du territoire métropolitain à la </tspan></tspan><tspan class="cls-7" x="314.26" y="215.56">transition écologique</tspan><tspan class="cls-8" x="446.22" y="215.56" xml:space="preserve"> du monde économique, à travers </tspan><tspan class="cls-7"><tspan x="338.43" y="229.96">trois grandes thématiques environnementales</tspan></tspan></text>
    </g>
  </g>
</svg>