<?xml version="1.0" encoding="UTF-8"?>
<svg id="Calque_2" data-name="Calque 2" xmlns="http://www.w3.org/2000/svg" viewBox="0 0 233.72 169.12">
  <defs>
    <style>
      .cls-1 {
        fill: #fff;
      }

      .cls-2 {
        fill: #f2dcd8;
      }

      .cls-3 {
        fill: #aa2734;
      }
    </style>
  </defs>
  <g id="Calque_1-2" data-name="Calque 1">
    <g>
      <path class="cls-2" d="M166.45,31.25c21.96,18.58,44.49,46.18,41.67,72.08-2.53,25.9-30.41,50.4-59.69,60.25-29.56,10.14-60.54,5.91-78.84-9.01-18.3-14.92-23.93-40.54-30.97-67.29-7.04-26.47-16.05-54.06-5.91-69.83C42.56,1.97,71.56-1.97,96.9.84c25.34,2.82,47.3,12.11,69.55,30.41Z"/>
      <g>
        <path class="cls-3" d="M6.24,80.3c-.33,0-.65-.03-.94-.1-2.17-.79-3.53-1.92-4.08-3.36-.52-1.36-.76-3.02-.71-4.93,0-2.27.4-4.47,1.2-6.53.05-.1.22-.51.53-1.27.33-.81.56-1.34.69-1.59.43-.99,1.19-2.26,2.29-3.86,1.43-2.17,2.51-3.63,3.31-4.45.78-.81,2.06-1.82,3.78-3.02.63-.47,1.43-.77,2.35-.88.18-.02.37-.03.55-.03.75,0,1.51.18,2.26.55.96.47,1.67,1.23,2.09,2.28.6,1.08.59,2.67-.06,4.79-.63,2.04-1.51,3.61-2.62,4.64-.41.27-.78.38-1.17.38-.67,0-1.4-.34-2.14-1.01l-.06-.06-.04-.08c-.45-.82-.49-1.01-.42-1.24l.06-.2.2-.11s.06-.03.09-.04c.16-.22.42-.63.85-1.4.52-.94.7-1.39.77-1.61.1-.34.18-.65.24-.91.06-.26.1-.47.13-.61l.13-.83v-.06s-.02-.1-.02-.1c0,0,0,0,0,0,0,0-.02-.02-.05-.05-.1.01-.33.07-.79.32-1.18.51-2.59,1.88-4.24,4.11-2.14,2.81-3.48,5.01-3.99,6.56l-.38.89c.04.48-.12,1.08-.49,1.83-.4,1.67-.55,3.24-.43,4.64.11,1.6.47,2.55,1.04,2.77.05.02.09.03.15.03.24-.01.4-.02.55-.02.04,0,.14,0,.36-.08.22-.08.42-.14.58-.19.15-.05.37-.12.63-.22.25-.09.45-.17.59-.24.15-.08.39-.19.73-.34,1.71-.71,2.85-1.32,3.41-1.83.75-.55,1.34-.82,1.84-.84.1-.03.21-.04.31-.04.39,0,.73.2.96.57.24.38.36.84.36,1.38,0,.57-.29,1.16-.86,1.74-.49.51-1.08.96-1.75,1.35-.34.31-.95.64-1.9,1.02-.95.68-2.07,1.27-3.34,1.76-.94.36-1.79.54-2.55.54Z"/>
        <path class="cls-1" d="M15.21,50.78c.68,0,1.36.17,2.05.5.85.41,1.47,1.09,1.84,2.01.55,1,.53,2.49-.08,4.46-.6,1.97-1.43,3.44-2.48,4.42-.26.16-.53.25-.82.25-.55,0-1.15-.3-1.81-.89-.3-.55-.43-.84-.38-.87.05-.02.1-.04.15-.04.23-.28.56-.81,1-1.6.44-.79.71-1.36.81-1.71.1-.35.18-.66.24-.94.06-.28.11-.49.13-.64.02-.15.05-.31.08-.47.02-.16.04-.28.06-.36.01-.08,0-.16-.02-.26,0-.13-.09-.28-.26-.45-.06-.06-.14-.08-.25-.08-.23,0-.59.13-1.07.38-1.23.53-2.7,1.94-4.4,4.25-2.18,2.86-3.54,5.09-4.06,6.7l-.41.98c.08.4-.08.98-.45,1.73-.43,1.76-.58,3.37-.45,4.85.13,1.83.58,2.9,1.35,3.2.1.04.21.06.33.06.03,0,.07,0,.1,0,.16-.01.31-.02.45-.02s.31-.04.53-.11c.21-.08.4-.14.56-.19.16-.05.38-.13.66-.23.28-.1.49-.19.64-.26.15-.08.39-.19.71-.34,1.76-.73,2.93-1.37,3.54-1.92.65-.48,1.18-.72,1.58-.72.08-.02.16-.04.23-.04.22,0,.4.11.54.34.19.3.28.67.28,1.11s-.24.9-.71,1.39c-.48.49-1.04.92-1.69,1.3-.28.28-.89.6-1.84.98-.93.68-2.02,1.25-3.27,1.73-.88.34-1.67.5-2.37.5-.29,0-.57-.03-.83-.09-1.98-.73-3.22-1.74-3.72-3.05-.5-1.3-.73-2.88-.68-4.74,0-2.23.39-4.35,1.17-6.36.02-.05.2-.47.53-1.26.33-.79.55-1.31.68-1.56.43-.98,1.18-2.24,2.26-3.8,1.4-2.13,2.49-3.59,3.25-4.38.76-.79,2-1.77,3.71-2.95.58-.43,1.29-.69,2.13-.79.16-.02.33-.03.49-.03M15.21,49.78c-.2,0-.41.01-.61.04-1.01.12-1.89.45-2.6.98-1.75,1.21-3.01,2.22-3.83,3.06-.81.84-1.92,2.32-3.37,4.53-1.11,1.6-1.87,2.89-2.33,3.93-.14.28-.37.81-.7,1.6-.3.73-.47,1.13-.51,1.22v.03s-.03.04-.03.04C.42,67.31,0,69.57,0,71.92c-.05,1.95.2,3.68.74,5.1.61,1.58,2.06,2.8,4.31,3.63l.06.02h.06c.33.09.68.13,1.05.13.82,0,1.73-.19,2.73-.57,1.29-.49,2.43-1.09,3.4-1.78.96-.39,1.57-.72,1.96-1.05.69-.41,1.3-.88,1.81-1.41.66-.68,1-1.38,1-2.09,0-.63-.15-1.18-.43-1.64-.33-.52-.82-.81-1.39-.81-.12,0-.25.01-.38.04-.59.04-1.24.33-2.02.9l-.05.03-.04.04c-.35.32-1.2.89-3.24,1.73-.38.17-.63.29-.78.37-.08.04-.24.11-.53.22-.26.09-.46.16-.61.21-.17.05-.38.12-.6.2-.14.05-.2.05-.2.05,0,0,0,0,0,0-.15,0-.32,0-.5.02-.06-.01-.58-.27-.72-2.32-.11-1.35.02-2.84.4-4.44.37-.76.54-1.38.52-1.91l.32-.75.02-.04v-.04c.5-1.49,1.82-3.65,3.92-6.4,1.99-2.69,3.27-3.63,4-3.94l.04-.02.04-.02s.03-.02.04-.02l-.04.22c-.02.14-.06.33-.12.58-.06.26-.14.55-.23.89-.04.15-.2.55-.72,1.5-.36.65-.59,1.02-.74,1.24l-.36.17-.14.42c-.15.48.06.89.46,1.63l.08.15.13.11c.84.76,1.68,1.14,2.48,1.14.48,0,.94-.14,1.36-.4l.08-.05.07-.06c1.18-1.09,2.11-2.73,2.76-4.86.68-2.23.69-3.92.02-5.18-.47-1.13-1.25-1.97-2.31-2.48-.82-.4-1.66-.6-2.48-.6h0Z"/>
      </g>
      <g>
        <path class="cls-3" d="M20.2,78.19c-.77,0-1.39-.49-1.85-1.47-.5-1.05-.59-2.34-.26-3.82.35-.95.4-1.33.4-1.47.09-.59.35-1.46.8-2.74.45-1.27.73-2.02.87-2.29l.14-.28h.16c.01-.06.02-.17.02-.33,0-.62.16-1.11.47-1.43l.35-1.34.03-.05c.39-.76,1.09-2.5,2.08-5.19,1.29-3.5,1.46-4.18,1.48-4.31,0-.35.12-.68.35-.94.24-.28.5-.39.72-.42.27-.17.68-.24,1.28-.24h.21l.75.75c.68.62,1.01,1.2,1.01,1.78,0,.48-.09.98-.28,1.47-.17.46-.64,1.49-1.43,3.15-.09.25-.23.58-.42.96-.17.36-.31.65-.41.86-.06.12-.1.21-.11.26,0,.03-.02.15-.07.32-.04.12-.1.28-.18.48-.08.19-.18.43-.31.72-1.26,2.78-1.44,3.37-1.46,3.49,0,.34-.11.65-.33.87l-.04.04v.02c0,.23-.08.67-.63,2.17-1.31,4.42-1.59,6.06-1.59,6.65,0,1.12-.39,1.87-1.15,2.24-.25.08-.42.1-.58.1Z"/>
        <path class="cls-1" d="M27.23,52.35l.6.6c.58.53.87,1,.87,1.43s-.08.86-.24,1.3c-.16.44-.63,1.47-1.41,3.1-.1.28-.24.6-.41.96-.18.36-.31.65-.41.87-.1.21-.15.34-.15.39s-.02.13-.06.24c-.04.11-.09.26-.17.45-.08.19-.18.42-.3.7-1,2.21-1.51,3.43-1.51,3.67s-.06.42-.19.55c-.13,0-.19.1-.19.3v.11c0,.25-.2.92-.6,1.99-1.08,3.64-1.62,5.91-1.62,6.83s-.29,1.51-.87,1.79c-.13.03-.25.05-.37.05-.56,0-1.03-.39-1.4-1.18-.45-.95-.53-2.12-.23-3.5.28-.73.41-1.25.41-1.58.08-.48.33-1.34.77-2.58.44-1.24.72-1.99.85-2.24.25,0,.38-.28.38-.83s.14-.94.41-1.17l.38-1.43c.4-.78,1.1-2.53,2.11-5.25,1-2.72,1.51-4.21,1.51-4.46s.08-.46.23-.64c.15-.17.33-.26.53-.26.15-.15.51-.23,1.09-.23M27.65,51.35h-.41c-.64,0-1.11.08-1.45.27-.35.08-.67.28-.92.57-.29.34-.45.76-.47,1.23-.04.2-.27,1-1.44,4.18-.99,2.67-1.68,4.4-2.06,5.14l-.05.1-.03.11-.31,1.18c-.31.38-.48.88-.51,1.51l-.27.55c-.09.19-.29.63-.9,2.35-.46,1.31-.73,2.21-.82,2.76v.08s-.01.08-.01.08c0,.05-.02.35-.35,1.23l-.03.07-.02.07c-.35,1.59-.25,2.99.3,4.14.69,1.45,1.63,1.75,2.3,1.75.21,0,.42-.03.63-.09l.09-.02.08-.04c.65-.31,1.43-1.03,1.43-2.69,0-.46.2-1.91,1.57-6.51.48-1.29.61-1.82.64-2.12.18-.22.37-.56.38-1.06.05-.18.29-.86,1.42-3.34.13-.29.24-.54.32-.74.08-.21.15-.38.19-.51.05-.14.08-.26.09-.38.02-.04.04-.09.07-.15.1-.21.24-.5.41-.86.18-.37.32-.71.44-1,.79-1.65,1.25-2.68,1.43-3.14.2-.55.31-1.1.31-1.65,0-.73-.39-1.44-1.19-2.17l-.57-.57-.29-.29h0Z"/>
      </g>
      <g>
        <path class="cls-3" d="M26.8,77.64c-.52,0-.99-.25-1.38-.74-.33-.33-.54-.91-.62-1.76-.07-.78,0-1.33.19-1.71l.12-.64c0-.22.07-.57.33-1.37.55-1.26,1.25-3.29,2.08-6.06.02-.27.17-.82,1-.9.1-.03.19-.04.3-.04.36,0,.74.16,1.16.5.45.36.83.77,1.14,1.23.67.74.14,1.91-.03,2.3-.37.82-.63,1.64-.77,2.42v.06s-.04.05-.04.05c-.29.66-.49,1.14-.58,1.43-.09.29-.2.79-.32,1.48-.13.73-.27,1.22-.44,1.52-.27,1.1-.76,1.8-1.47,2.08-.23.09-.45.14-.68.14ZM30.64,62.25c-.39,0-.72-.1-.99-.29-.37-.26-.65-.58-.85-.97-.2-.39-.3-.71-.3-1,0-.31.09-.59.27-.83.04-.05.18-.27.53-1.04.71-1.39,1.04-1.79,1.34-1.91.21-.12.45-.18.71-.18.29,0,.6.07.95.22.63.27,1.11.65,1.42,1.14.57,1.25.34,2.45-.64,3.63-.43.58-1.01.96-1.7,1.13-.26.06-.51.1-.73.1Z"/>
        <path class="cls-1" d="M31.35,56.54c.22,0,.47.06.76.18.54.23.93.54,1.19.94.45,1,.25,2.02-.6,3.05-.38.5-.85.82-1.43.96-.23.05-.43.08-.62.08-.28,0-.52-.06-.7-.19-.3-.21-.53-.48-.7-.79-.16-.31-.24-.57-.24-.77s.06-.38.17-.53c.11-.15.31-.53.58-1.13.55-1.08.92-1.63,1.09-1.65.14-.09.31-.14.5-.14M28.82,64.92c.24,0,.52.13.85.39.43.34.78.72,1.05,1.15.33.33.29.92-.09,1.79-.39.86-.66,1.71-.81,2.54-.3.68-.5,1.17-.6,1.49-.1.31-.21.83-.34,1.54-.13.72-.26,1.19-.41,1.41-.23.98-.62,1.58-1.18,1.81-.17.07-.33.1-.49.1-.37,0-.7-.18-1-.55-.28-.28-.45-.77-.51-1.49-.06-.72,0-1.21.17-1.49l.15-.79c-.03-.15.08-.56.3-1.24.55-1.25,1.25-3.3,2.11-6.13,0-.3.2-.46.6-.49.06-.02.13-.03.2-.03M31.35,55.54h0c-.33,0-.64.07-.91.22-.47.19-.87.74-1.57,2.12-.37.8-.48.97-.5.99-.24.31-.36.7-.36,1.12,0,.37.12.77.36,1.23.23.45.57.84,1.01,1.14.35.25.78.38,1.28.38.26,0,.55-.04.85-.11.8-.19,1.48-.64,2-1.33,1.36-1.63,1.14-3.11.71-4.06l-.03-.06-.04-.06c-.36-.58-.91-1.03-1.65-1.33-.41-.17-.79-.26-1.14-.26h0ZM28.82,63.92h0c-.13,0-.26.02-.39.05-.94.11-1.34.72-1.4,1.29-.82,2.73-1.51,4.72-2.03,5.91l-.02.04v.04c-.28.8-.37,1.2-.37,1.49l-.1.52c-.22.46-.28,1.08-.21,1.91.08.94.33,1.61.76,2.07.61.73,1.28.89,1.74.89.28,0,.57-.06.86-.17.85-.34,1.44-1.13,1.75-2.36.18-.35.33-.86.46-1.61.15-.83.25-1.22.31-1.41.06-.19.21-.59.56-1.38l.05-.11.02-.12c.14-.75.38-1.52.74-2.31.55-1.22.54-2.17-.03-2.82-.33-.49-.74-.93-1.22-1.31-.52-.41-1-.61-1.47-.61h0Z"/>
      </g>
      <g>
        <path class="cls-3" d="M34.67,76.68c-.24,0-.6-.09-.92-.5-.06-.05-.19-.14-.38-.28-.22-.16-.49-.39-.58-.69l-.07-.07c-.33-.32-.31-.84.67-3.02.67-1.5,1.28-2.69,1.83-3.51l.03-.04.04-.04c.06-.06.08-.1.08-.12l-.02-.17.08-.14c.29-.53.45-.75.55-.87.27-.53.39-.92.44-1.21-.15.06-.38.15-.72.28-.62.45-1.09.66-1.48.66-.81-.06-1.17-.95-1.28-1.24-.43-1.06.03-1.67.34-1.94.07-.07.31-.26,1.41-.98,1.05-.58,1.77-.89,2.26-.98.34-.1.7-.15,1.03-.15,1,0,1.74.5,2.16,1.44.52.68.67,1.47.47,2.36l.26-.24h.18s.14-.08.63-.46c.55-.42.96-.63,1.29-.66.16-.05.32-.07.48-.07.38,0,.94.14,1.41.82.39.56.61,1.28.65,2.15.16-.17.34-.34.54-.51.14-.38.41-.51.59-.54l.03-.02c.06-.06.15-.14.27-.23.2-.12.3-.19.35-.23l.04-.11.19-.09c.32-.15.68-.23,1.06-.23.25,0,.52.03.8.1.75.17,1.29.58,1.61,1.22.04.09.11.2.21.33.13.19.22.34.28.45.19.37.28.79.28,1.24-.21,1.27-.32,1.97-.34,2.17v.07s-.04.07-.04.07c-.1.21-.14.49-.14.83,0,.24,0,.4,0,.49.36-.15.76-.42,1.18-.8.38-.29.7-.42,1.02-.42.22,0,.42.06.6.18.36.24.6.55.72.92.14.41.01.96-.41,1.76-.42.81-.73,1.17-1.08,1.24-.06.04-.16.12-.29.22-.23.19-.39.31-.49.38-.49.54-.92.81-1.32.84l-.78.18c-.12.04-.3.07-.48.07-.31,0-.65-.07-1.03-.22-.64-.25-1.07-.72-1.23-1.38-.5-1.14-.7-1.97-.61-2.53.07-.44.12-.8.15-1.09.1-.74.16-1.07.22-1.25-.19.18-.45.45-.8.84-.82.91-1.42,1.62-1.77,2.13-.35.51-.6.9-.74,1.16-.14.25-.24.47-.31.65-.35.74-.87.85-1.15.85-.17,0-.35-.04-.53-.1-.58-.22-.95-.48-1.14-.8-.12-.21-.2-.25-.2-.26-.21-.13-.36-.29-.46-.47-.12-.28-.18-.7.46-2.74l.64-2.02c-.19.15-.4.34-.66.56-1.31,1.54-2.46,2.96-3.35,4.19-1.26,1.73-1.76,2.17-2.03,2.34-.22.15-.45.22-.68.22Z"/>
        <path class="cls-1" d="M37.96,62.18c.82,0,1.39.4,1.73,1.2.75.95.63,2.18-.38,3.69-.1.2-.13.33-.08.38,0,0,.01,0,.02,0,.07,0,.23-.16.48-.48.29-.36.53-.55.73-.55.13,0,.19-.11.19-.34l.38-.34c.13,0,.43-.19.92-.56.49-.38.85-.56,1.07-.56.14-.04.27-.06.39-.06.38,0,.72.2,1,.61.38.54.56,1.26.56,2.16l-.79,2.03,1.35-1.65c.23-.28.53-.58.9-.9.05-.23.15-.34.3-.34h.08c.1,0,.15-.05.15-.15.05-.05.13-.11.23-.19.3-.17.46-.3.49-.38.25-.12.54-.18.85-.18.22,0,.45.03.69.08.6.14,1.03.46,1.28.96.05.1.13.23.24.39.11.16.19.3.24.4.15.3.23.64.23,1.02-.2,1.2-.31,1.91-.34,2.11-.13.28-.19.62-.19,1.03s.01.67.04.77c0,.2.1.3.3.3.53-.13,1.09-.46,1.69-1.02.25-.19.48-.29.68-.29.12,0,.22.03.32.1.26.18.44.39.53.66.09.26-.04.72-.38,1.37-.34.65-.6.98-.77.98-.05,0-.21.11-.47.32-.26.21-.43.34-.51.39-.43.48-.78.71-1.05.71l-.83.19c-.11.04-.24.05-.37.05-.25,0-.53-.06-.85-.18-.49-.19-.8-.53-.92-1.04-.48-1.1-.68-1.88-.6-2.33s.13-.83.15-1.13c.1-.73.18-1.13.23-1.2,0-.65-.04-.98-.11-.98-.2,0-.72.47-1.56,1.39s-1.44,1.65-1.81,2.18c-.36.53-.62.93-.77,1.2-.15.28-.26.51-.34.71-.16.35-.39.52-.69.52-.11,0-.22-.02-.35-.07-.46-.18-.76-.37-.88-.58-.13-.21-.25-.36-.38-.43-.13-.08-.21-.16-.26-.26-.1-.23.06-1.01.49-2.37l1.05-3.35s-.01-.04-.04-.04c-.15,0-.77.46-1.84,1.39-1.38,1.61-2.52,3.03-3.42,4.27-.9,1.24-1.54,1.98-1.9,2.22-.14.09-.28.14-.4.14-.2,0-.39-.12-.56-.35-.03-.03-.18-.14-.45-.34-.28-.2-.41-.37-.41-.51s-.06-.21-.19-.21c-.15-.15.11-.97.77-2.46.66-1.49,1.26-2.64,1.79-3.44.18-.18.25-.35.23-.53.25-.45.43-.73.53-.83.43-.83.6-1.49.53-1.99-.08-.07-.15-.11-.23-.11s-.49.15-1.24.45c-.54.4-.96.6-1.23.6-.02,0-.03,0-.05,0-.28-.02-.53-.33-.77-.92-.24-.59-.17-1.05.21-1.37.1-.1.55-.41,1.35-.94.95-.53,1.64-.83,2.07-.9.34-.1.66-.15.94-.15M37.96,61.18c-.36,0-.76.06-1.17.17-.54.11-1.28.43-2.33,1l-.03.02-.03.02c-1.1.73-1.36.92-1.49,1.04-.68.61-.85,1.51-.45,2.48.14.36.59,1.45,1.61,1.54h.04s.09,0,.09,0c.38,0,.79-.13,1.27-.43-.12.16-.27.4-.5.82l-.16.29.02.11-.04.06c-.56.85-1.18,2.05-1.86,3.58-.94,2.12-1.17,2.98-.56,3.58h0c.19.43.57.71.72.82.15.11.26.19.33.24.44.52.93.64,1.27.64.33,0,.65-.1.95-.3.33-.21.87-.69,2.16-2.47.68-.94,1.52-2,2.49-3.16-.64,2.02-.65,2.62-.45,3.08.14.29.35.51.62.69.01.02.04.05.07.11.25.43.69.75,1.39,1.01.24.09.47.14.7.14.68,0,1.26-.4,1.59-1.1l.02-.04v-.04c.06-.11.14-.3.29-.59.09-.17.29-.5.72-1.12.29-.42.76-1,1.4-1.72-.03.21-.06.45-.11.72-.11.66.09,1.53.64,2.82.22.78.74,1.34,1.51,1.64.44.17.84.25,1.21.25.22,0,.43-.03.62-.08l.72-.16c.66-.06,1.21-.55,1.58-.96.11-.08.26-.2.47-.37.08-.06.14-.11.19-.15.6-.19.99-.84,1.31-1.47.49-.93.62-1.6.44-2.15-.16-.48-.47-.87-.92-1.17-.26-.17-.56-.27-.88-.27-.42,0-.85.16-1.28.49l-.04.03-.04.03c-.11.1-.22.2-.32.27.02-.1.04-.17.06-.22l.06-.14.02-.15c.01-.11.07-.52.33-2.06v-.08s.01-.08.01-.08c0-.53-.11-1.02-.33-1.46-.08-.15-.18-.32-.32-.52-.12-.17-.16-.25-.17-.27-.39-.77-1.06-1.29-1.95-1.49-.32-.07-.62-.11-.92-.11-.46,0-.89.09-1.28.27l-.38.18-.05.16s-.08.05-.13.08l-.05.03-.05.04c-.1.08-.19.15-.25.21-.19.06-.38.18-.53.35-.12-.49-.32-.92-.58-1.29-.6-.86-1.32-1.04-1.82-1.04-.19,0-.38.03-.57.08-.42.05-.89.29-1.5.76-.07.05-.13.1-.19.14-.04-.69-.3-1.24-.61-1.67-.5-1.09-1.42-1.69-2.6-1.69h0Z"/>
      </g>
      <g>
        <path class="cls-3" d="M58.79,77.28c-.21,0-.43-.02-.67-.05-.39-.06-1-.15-1.15-.58l-.04-.02c-.54-.46-.86-.64-1.04-.71l-.14-.06-.08-.12c-.33-.48-.51-.97-.54-1.46-.02-.29,0-.87.45-2.58.04-1.54.81-3.3,2.26-5.22,1.43-1.89,2.82-3.24,4.14-4.03.44-.41,1.01-.63,1.7-.67h.19c.6,0,1.12.12,1.55.37.45.26.93.74,1.47,1.45.5.67.9,1.29,1.16,1.85l.05.1v.11s.07.22.17.6c.16.58.21.87.12,1.08-.01.09-.03.37-.03,1.18v.07l-.02.07c-.29.98-.43,1.87-.43,2.64-.05.55.04.69.06.7-.02-.03.07-.04.26-.13.22-.11.44-.16.67-.16.38,0,.76.15,1.11.45.34.29.84.93.33,1.97-.32.64-.82,1.2-1.51,1.65-.69.45-1.34.68-1.91.68-.63,0-1.19-.29-1.66-.86-.4-.44-.74-1.11-1.04-2.04l-.76.7c-.14.17-.36.4-.62.66-.69.63-.81.79-.83.81-.16.3-.58.72-2.39,1.41-.26.08-.53.12-.82.12ZM63.8,66.18c-.3.05-1.02.4-2.38,2.27-.63.75-1.08,1.58-1.38,2.49-.42,1.3-.45,1.58-.45,1.62,0,.27.05.34.05.35.02-.02.19-.04.55-.25.52-.31.93-.66,1.22-1.01.41-.55.96-1.34,1.63-2.33.67-.89,1.09-1.63,1.25-2.22-.23-.66-.42-.85-.5-.91Z"/>
        <path class="cls-1" d="M63.88,62.28c.51,0,.95.1,1.3.3.39.23.83.66,1.32,1.32.49.65.86,1.24,1.11,1.77,0,.03.06.27.19.73.13.47.17.72.13.77-.04.05-.06.5-.06,1.35-.3,1.03-.45,1.96-.45,2.78-.05.48,0,.82.17,1.02.08.1.19.15.34.15s.32-.05.53-.15c.15-.07.3-.11.45-.11.26,0,.53.11.79.34.41.35.48.81.21,1.37-.28.56-.72,1.05-1.34,1.45-.61.4-1.16.6-1.64.6s-.9-.23-1.28-.68c-.45-.5-.84-1.38-1.17-2.63l-1.35,1.24c-.18.2-.39.43-.64.68-.53.48-.83.78-.9.9-.18.33-.89.73-2.14,1.2-.19.06-.4.09-.64.09-.18,0-.38-.02-.6-.05-.5-.08-.75-.17-.75-.28s0-.17-.02-.19c-.01-.01-.07-.02-.17-.02-.48-.4-.87-.66-1.17-.79-.28-.4-.43-.8-.45-1.2-.03-.4.13-1.23.45-2.48.02-1.45.75-3.12,2.16-4.99,1.42-1.87,2.77-3.18,4.04-3.93.35-.35.82-.54,1.41-.56.06,0,.11,0,.17,0M59.63,73.38c.21,0,.49-.1.83-.3.58-.35,1.03-.73,1.35-1.13.43-.58.98-1.37,1.66-2.37.75-1,1.2-1.84,1.35-2.52-.28-.85-.59-1.32-.94-1.39-.7,0-1.66.83-2.86,2.48-.65.78-1.14,1.66-1.45,2.63-.31.98-.47,1.57-.47,1.77,0,.55.18.82.53.82M63.88,61.28c-.07,0-.14,0-.21,0-.8.03-1.46.29-1.98.76-1.37.83-2.76,2.18-4.23,4.13-1.53,2.01-2.3,3.8-2.36,5.45-.44,1.72-.48,2.34-.45,2.69.04.58.25,1.16.63,1.71l.17.24.27.11c.11.05.38.19.89.61.33.56,1.11.68,1.46.73.26.04.51.06.75.06.34,0,.66-.04.94-.13h.03s.03-.02.03-.02c1.52-.58,2.29-1.04,2.63-1.59.04-.05.21-.23.73-.71l.02-.02.02-.02c.26-.26.47-.48.65-.68l.17-.15c.26.64.56,1.14.89,1.52.69.83,1.48,1.01,2.02,1.01.68,0,1.4-.25,2.18-.77.76-.5,1.33-1.12,1.69-1.85.48-.98.31-1.92-.46-2.58-.45-.38-.93-.57-1.44-.57-.16,0-.33.02-.49.06,0-.72.14-1.55.41-2.47l.04-.14v-.14c0-.7.01-.98.02-1.08.12-.39,0-.82-.13-1.3-.08-.28-.13-.47-.15-.58v-.12l-.1-.2c-.28-.58-.69-1.24-1.21-1.94-.57-.77-1.1-1.28-1.61-1.58-.51-.29-1.11-.44-1.8-.44h0ZM60.23,72.04c.06-.22.15-.52.29-.94.27-.85.7-1.62,1.26-2.3l.02-.03.02-.03c.93-1.28,1.51-1.77,1.81-1.96.04.08.08.18.13.31-.14.39-.44,1-1.11,1.89-.69,1.02-1.24,1.81-1.66,2.38-.17.21-.44.45-.77.68h0Z"/>
      </g>
      <g>
        <path class="cls-3" d="M75.01,79.98c-1.14-.01-1.99-.34-2.54-.98-.6-.7-.79-1.75-.59-3.13.09-.28.14-.53.19-.83.15-.71.28-1.08.41-1.3v-.17c0-.26.07-.75.63-2.2-.08-.26-.07-.65.4-1.05.04-.04.07-.07.1-.09-.1-.34.06-.73.2-1.01.18-.36.38-.76.63-1.21.23-.43.33-.65.37-.76.03-.21.19-.62.67-1.66.27-.58.48-1.03.63-1.35-.33-.03-.86-.05-1.74-.05-1.18,0-2.02-.16-2.58-.48l-.07-.04-.05-.06c-.31-.33-.59-.92-.2-1.79.3-.68.87-1.05,1.64-1.08l4.41-.38.06-.36.51-.78.04-.12s.04-.11.1-.56v-.11s.07-.09.07-.09c.38-.61.61-1.19.68-1.71v-.11s.08-.1.08-.1c.44-.68.73-1.18.86-1.51.62-1.27,1.37-1.91,2.25-1.91.4,0,.82.14,1.23.41.35.23,1.4.94,1.24,1.93-.03.29-.14.62-.32.94-.09.16-.25.5-.49,1.21l-.03.09-.06.07c-.47.58-.77,1.19-.88,1.8v.08s-.05.07-.05.07c-.13.23-.23.42-.32.57.85-.05,1.21-.1,1.36-.13.24-.05.42-.07.52-.08.1-.02.19-.03.29-.03.22,0,.44.05.65.14l.11.05.08.1c.29.37.38.91.27,1.66-.04.29-.17,1.19-.82,1.45l-.09.04h-.1s-.23.08-.65.2c-.28.07-.91.19-3.25.41-.57,1.1-.91,1.76-1.01,1.98-.07.14-.11.24-.13.3v.11l-.04.02-1.64,3.43c.08.47-.09.74-.27.88-.1.09-.19.19-.28.3.03.33-.13.69-.25.92-.03.46-.2,1.08-.52,1.87.01.18.02.33.03.44.17,0,.37-.02.61-.04h.02s.19-.03.19-.03c.2,0,.37.09.49.25.2.28.27.69-.63,3.08l-.02.05-.03.05c-.39.6-.81,1.13-1.24,1.59-.57.61-.87.82-1.17.82h0Z"/>
        <path class="cls-1" d="M82.18,53.49c.3,0,.62.11.96.33.75.5,1.09.98,1.02,1.43-.03.25-.11.51-.26.77-.15.26-.33.7-.53,1.3-.53.65-.85,1.33-.98,2.03-.33.6-.53.92-.6.94,0,.25.19.38.56.38.83-.05,1.37-.1,1.62-.15.25-.05.41-.08.49-.08.07-.02.15-.02.22-.02.15,0,.3.03.45.1.2.25.26.68.17,1.28-.09.6-.26.95-.51,1.05-.03,0-.29.07-.79.23-.4.1-1.54.24-3.42.41-.65,1.25-1.03,2-1.15,2.24-.11.24-.17.38-.17.43l-1.58,3.31c-.1,0-.15.07-.15.23.1.3.09.5-.04.6-.2.18-.38.38-.53.6.13.13.06.41-.19.87,0,.43-.18,1.07-.53,1.92.02.45.05.74.08.86.02.11.07.16.14.16.01,0,.03,0,.05,0,.03,0,.09.01.18.01.17,0,.45-.02.84-.05.03-.01.06-.02.08-.02.26,0,.06.89-.61,2.66-.38.58-.77,1.08-1.19,1.52-.41.44-.68.66-.81.66-2.11-.03-2.98-1.2-2.63-3.54.08-.23.14-.5.19-.83.15-.7.29-1.1.41-1.2.1-.13.1-.24,0-.34,0-.33.23-1.07.68-2.22-.15-.2-.09-.42.19-.66.28-.24.37-.42.28-.55-.09-.13-.04-.36.13-.72.18-.35.38-.75.62-1.2.24-.45.38-.75.43-.9-.03-.08.18-.59.62-1.54.44-.95.72-1.54.85-1.77.2-.1.12-.18-.24-.24-.36-.06-1.09-.09-2.16-.09s-1.86-.14-2.33-.41c-.3-.33-.34-.74-.11-1.24.23-.5.63-.76,1.2-.79l4.82-.41.11-.64c.1-.15.19-.29.28-.43.09-.14.14-.23.17-.26.02-.04.05-.09.08-.17.05-.1.1-.34.15-.71.43-.68.68-1.32.75-1.92.45-.7.75-1.23.9-1.58.52-1.07,1.11-1.61,1.79-1.61M82.18,52.49h0c-1.09,0-1.99.73-2.69,2.17-.11.25-.32.66-.84,1.48l-.12.19-.03.23c-.06.45-.26.96-.61,1.51l-.12.18-.03.21c-.04.28-.06.4-.08.44v.02s-.03.06-.03.06c-.03.05-.08.12-.14.22-.09.14-.18.27-.27.42l-.12.17-.02.09-4.05.35c-.91.04-1.65.53-2.03,1.38-.53,1.18-.05,1.97.29,2.33l.1.11.13.08c.64.37,1.56.55,2.83.55.39,0,.71,0,.97.01-.09.19-.19.42-.31.68-.43.93-.63,1.41-.7,1.73-.04.1-.14.3-.33.67-.24.46-.45.87-.63,1.23-.09.17-.3.59-.28,1.05-.42.42-.55.88-.49,1.29-.54,1.42-.61,1.93-.61,2.25v.04c-.14.29-.26.69-.39,1.29v.03s-.01.03-.01.03c-.04.27-.09.49-.15.67l-.03.08v.09c-.24,1.52,0,2.71.69,3.53.64.75,1.62,1.14,2.91,1.16.53,0,.95-.34,1.55-.97.45-.48.89-1.04,1.29-1.66l.06-.09.04-.1c.92-2.43.92-3.04.57-3.54-.2-.29-.54-.47-.9-.47-.09,0-.19.01-.28.04,0,0,0,0,0,0,.25-.66.39-1.19.43-1.64.11-.22.24-.54.26-.87.04-.04.08-.08.12-.12.19-.15.5-.52.44-1.16l1.57-3.3.1-.2v-.07s.04-.1.07-.16c.05-.1.23-.46.88-1.72,2.16-.21,2.76-.32,3.03-.39.33-.1.55-.16.67-.19h.07l.18-.07c.91-.36,1.07-1.47,1.13-1.84.13-.9,0-1.57-.38-2.05l-.15-.19-.22-.1c-.28-.12-.57-.19-.86-.19-.11,0-.23,0-.34.03-.12,0-.28.03-.57.09-.05,0-.16.03-.41.05v-.06c.11-.53.37-1.06.78-1.58l.11-.14.06-.17c.23-.7.38-1,.45-1.12.21-.37.34-.76.39-1.14.13-.86-.36-1.66-1.45-2.39-.51-.33-1.02-.5-1.51-.5h0Z"/>
      </g>
      <g>
        <path class="cls-3" d="M82.39,80.96c-.99,0-1.46-.49-1.68-.91l-.06-.11v-.12c0-.39.26-.81.89-1.41.45-.44,1.03-1.33,1.73-2.66.09-.28.28-.99.54-2.05,0-.63.11-1,.33-1.23.52-.49.99-.72,1.43-.72,1.29,0,1.58,1.85,1.68,2.46.17,1-.06,2.16-.68,3.45-.07.18-.27.54-1.1,1.54-.9,1.07-1.13,1.22-1.38,1.23.01,0-.05.05-.16.14-.31.26-.79.39-1.53.39Z"/>
        <path class="cls-1" d="M85.56,72.25c.58,0,.97.68,1.19,2.04.15.9-.06,1.96-.64,3.16-.1.25-.45.73-1.03,1.43-.59.7-.93,1.05-1.03,1.05s-.25.09-.45.26c-.2.17-.6.26-1.2.26s-1.02-.21-1.24-.64c0-.23.24-.58.73-1.05.49-.48,1.1-1.4,1.83-2.78.13-.38.33-1.12.6-2.22,0-.5.06-.81.19-.94.41-.38.77-.57,1.07-.57M85.56,71.25h0c-.57,0-1.15.28-1.75.84-.42.42-.49,1-.5,1.54-.24.94-.41,1.6-.53,1.96-.82,1.54-1.32,2.19-1.6,2.46-.73.71-1.04,1.24-1.04,1.77v.25l.12.22c.23.44.82,1.17,2.12,1.17.87,0,1.46-.16,1.86-.51.02-.02.04-.03.06-.05.41-.1.78-.47,1.54-1.38.83-.99,1.07-1.41,1.18-1.67.66-1.38.9-2.63.71-3.73-.3-1.91-1.03-2.88-2.17-2.88h0Z"/>
      </g>
      <g>
        <path class="cls-3" d="M102.13,77.18c-.37,0-.77-.19-1.23-.59-.9-.66-1.31-1.45-1.2-2.3.09-.69.34-1.91.78-3.75.07-.66.47-2.01,1.2-4.06.74-2.05,1.34-3.41,1.84-4.16.41-.42.93-.59,1.62-.59s1.18.15,1.48.45c.67.58.51,1.84-.57,4.14.11-.09.22-.18.34-.27,1.47-1.14,1.9-1.4,2.1-1.5.29-.14.59-.28.92-.41.29-.11.46-.18.51-.21.52-.26,1.1-.39,1.72-.39.14,0,.28,0,.43.02.9.08,1.47.41,1.7.97l.04.09v.1c0,.06.12.13.18.16l.09.05.37.44v.18c0,.36-.22.72-.69,1.14-.44.39-.9.6-1.39.63-.31.02-.7.14-1.16.35-.5.23-.99.48-1.45.74-.48.26-.83.46-1.07.6-.24.14-.54.32-.92.54-.64.43-1.24.97-1.76,1.59-.94.94-1.08,1.18-1.1,1.22l-.04.07-.06.06s-.18.2-.41,1.14c-.25,1-.27,1.22-.27,1.25v.06l-.02.06c-.12.47-.34.91-.65,1.33-.35.46-.7.73-1.07.84-.09.03-.18.04-.28.04Z"/>
        <path class="cls-1" d="M105.15,62.21c.55,0,.93.1,1.13.3.55.48.16,2.01-1.17,4.59-.43.85-.56,1.28-.41,1.28.28-.48.95-1.13,2.01-1.96,1.07-.83,1.74-1.31,2.01-1.45.28-.14.57-.27.88-.39.31-.13.49-.2.55-.23.45-.22.95-.34,1.5-.34.12,0,.25,0,.38.02.7.06,1.13.28,1.28.66,0,.25.15.45.45.6l.19.23c0,.2-.18.46-.53.77s-.71.48-1.09.51c-.38.03-.82.16-1.34.39-.51.24-1.01.49-1.49.75-.48.26-.83.46-1.07.6-.24.14-.55.32-.92.55-.7.48-1.33,1.04-1.88,1.69-.68.68-1.07,1.12-1.17,1.32-.18.18-.36.63-.55,1.37-.19.74-.28,1.2-.28,1.37-.1.4-.29.78-.56,1.15-.28.36-.55.58-.81.66-.04.01-.09.02-.14.02-.24,0-.54-.16-.9-.47-.78-.58-1.12-1.2-1.03-1.86.09-.66.34-1.9.77-3.71.08-.68.47-2.01,1.18-4.01.72-1.99,1.31-3.34,1.79-4.05.25-.25.65-.38,1.2-.38M105.15,61.21c-.82,0-1.47.22-1.91.67l-.07.07-.05.08c-.53.78-1.15,2.18-1.9,4.27-.74,2.06-1.13,3.39-1.23,4.17-.43,1.82-.68,3.05-.78,3.75-.09.71.07,1.77,1.4,2.77.54.47,1.04.69,1.52.69.14,0,.28-.02.42-.06.48-.14.91-.47,1.33-1.01.36-.47.6-.98.74-1.51l.03-.12v-.12s.02-.22.25-1.13c.17-.65.28-.89.31-.94l.09-.09.07-.15s.15-.23.98-1.05l.03-.03.03-.03c.48-.57,1.04-1.08,1.66-1.5.36-.21.65-.39.88-.52.23-.14.59-.33,1.06-.59.45-.25.92-.49,1.42-.72.5-.23.81-.29.98-.3.6-.04,1.17-.29,1.69-.76.37-.33.86-.85.86-1.52v-.36l-.23-.28-.19-.23-.13-.16-.11-.06-.05-.12c-.21-.52-.74-1.16-2.12-1.28-.16-.01-.32-.02-.47-.02-.71,0-1.36.15-1.95.44-.05.02-.21.09-.47.19-.35.14-.66.28-.96.43-.17.08-.43.24-1.06.7.49-1.49.39-2.42-.26-3.01-.4-.38-.99-.57-1.81-.57h0Z"/>
      </g>
      <g>
        <path class="cls-3" d="M118.62,77.72c-1.5,0-2.76-.45-3.72-1.33-.98-.9-1.48-2.17-1.48-3.79,0-.59.03-1.23.1-1.89.07-.71.29-1.54.69-2.54.39-.99,1.02-2.07,1.87-3.2.87-1.17,1.84-2,2.86-2.47,1.03-.47,1.9-.71,2.65-.71,1.62,0,2.83.41,3.6,1.23.77.81,1.15,1.6,1.15,2.36v.3c0,.63-.36,1.54-1.12,2.85-.38.68-.98,1.3-1.77,1.84-.8.54-1.63.83-2.44.86-.14,0-.28,0-.41,0-.61,0-1.21-.05-1.78-.15-.86-.15-1.08-.16-1.14-.16-.05.12-.18.42-.18,1.31.06.51.2.91.41,1.09.22.19.49.29.82.29.38,0,.74-.07,1.08-.22.36-.16.79-.45,1.29-.87.65-.54,1.15-.79,1.58-.79s.86.2,1.26.6c.38.39.6.78.63,1.17v.05s0,.05,0,.05c-.09.72-.7,1.54-1.92,2.59-1.18,1.02-2.54,1.53-4.03,1.53ZM118.98,67.62c.12.02.3.04.58.04,1.01,0,1.23-.1,1.25-.11.08-.04.33-.21.97-.85.59-.59.66-.79.67-.81,0-.03,0-.28-.76-.36h-.37c-.05,0-.34.04-1.08.69-.47.41-.89.88-1.26,1.4Z"/>
        <path class="cls-1" d="M121.59,62.29c1.48,0,2.56.36,3.24,1.07.68.72,1.02,1.39,1.02,2.01v.3c0,.53-.35,1.39-1.05,2.6-.35.63-.89,1.18-1.62,1.67-.73.49-1.45.75-2.18.77-.13,0-.27,0-.4,0-.58,0-1.15-.05-1.69-.14-.66-.11-1.07-.17-1.22-.17s-.29.09-.41.26c-.18.28-.26.79-.26,1.54.08.7.27,1.19.58,1.47.31.28.7.41,1.15.41s.88-.09,1.28-.26c.4-.18.87-.49,1.41-.94.54-.45.96-.68,1.26-.68s.6.15.9.45c.3.3.46.59.49.87-.08.58-.66,1.34-1.75,2.28-1.09.94-2.33,1.41-3.71,1.41s-2.51-.4-3.39-1.2c-.88-.8-1.32-1.94-1.32-3.42,0-.58.03-1.19.09-1.84.06-.65.28-1.45.66-2.41.38-.95.98-1.98,1.81-3.09.83-1.1,1.72-1.88,2.67-2.31.95-.44,1.77-.66,2.45-.66M119.56,68.16c.78,0,1.27-.06,1.49-.17.21-.11.58-.43,1.09-.94.51-.51.78-.87.81-1.07,0-.55-.4-.86-1.2-.94h-.41c-.33,0-.8.27-1.41.81s-1.15,1.16-1.6,1.86c.05.3.46.45,1.24.45M121.59,61.29c-.83,0-1.77.25-2.86.75-1.1.51-2.13,1.39-3.05,2.62-.88,1.17-1.53,2.28-1.94,3.32-.42,1.05-.65,1.93-.72,2.68-.07.68-.1,1.34-.1,1.94,0,1.77.55,3.17,1.64,4.16,1.06.97,2.43,1.47,4.06,1.47s3.09-.56,4.36-1.65c1.31-1.13,1.98-2.06,2.09-2.9v-.11s0-.11,0-.11c-.05-.51-.31-1.01-.78-1.48-.42-.42-.88-.67-1.37-.73.27-.13.54-.28.81-.46.86-.58,1.51-1.25,1.93-2.02.8-1.38,1.18-2.36,1.18-3.08v-.3c0-.89-.43-1.8-1.29-2.7-.87-.92-2.2-1.38-3.96-1.38h0ZM121.37,66.03h.32s.02,0,.03,0c-.08.08-.17.18-.29.3-.53.53-.76.7-.83.75-.06.01-.22.04-.59.06.18-.19.37-.38.57-.55.49-.43.73-.54.79-.56h0ZM118,72.17c0-.33.02-.56.05-.71.16.02.38.06.69.11.59.1,1.22.15,1.86.15.14,0,.29,0,.43,0,.11,0,.23-.01.34-.02-.19.12-.38.27-.59.44-.58.48-.95.7-1.17.79-.27.12-.56.18-.88.18-.27,0-.4-.09-.49-.16-.06-.06-.18-.28-.24-.77h0Z"/>
      </g>
      <g>
        <path class="cls-3" d="M130.19,77.95c-1.28,0-2.43-.42-3.41-1.25-1-.85-1.51-1.76-1.51-2.71,0-.84.53-1.14,1.03-1.14h.06l.06.02c.12.03.3.1,1.19.64.65.39,1.03.47,1.25.47.5,0,1.1-.07,1.16-.42,0-.06-.07-.44-.48-1.27-.89-1.32-1.42-3.15-1.52-5.39,0-1.08.92-2.26,2.8-3.63,1.82-1.32,3.31-2.02,4.57-2.16h.04c2.01,0,2.59.26,2.87.48.38.3.72.79,1.06,1.49.34.71.5,1.22.5,1.61,0,.3-.11.81-.98,2.15-.37.74-.44.91-.45.94-.01.06-.05.18-.11.29-.07.14-.12.21-.19.28-.12.17-.24.24-.35.27l-.09.06-.21.02c-.07,0-.15-.01-.22-.04,0,0-.25,0-.25,0-.44,0-.85-.23-1.29-.7-.44-.47-.66-.96-.66-1.47,0-.42.11-.83.33-1.21-.39.12-.94.38-1.71.91-.93.63-1.38,1.29-1.38,2.01,0,.79.19,1.48.58,2.12.18.2.44.62.95,1.91.41,1.04.62,1.97.62,2.76,0,.9-.41,1.63-1.22,2.18-.75.51-1.77.76-3.03.76Z"/>
        <path class="cls-1" d="M135.43,61.61c1.38,0,2.23.13,2.54.38.31.25.62.69.92,1.32.3.63.45,1.09.45,1.39,0,.33-.3.95-.9,1.88-.33.65-.5,1.01-.51,1.07-.01.06-.04.13-.08.21-.04.07-.06.12-.08.13-.01.01-.04.04-.08.09-.04.05-.07.08-.09.08s-.06.01-.09.04c-.02.01-.04.02-.06.02s-.04,0-.06-.02c-.03-.02-.1-.03-.22-.03-.06,0-.13,0-.21,0,0,0-.02,0-.03,0-.25,0-.54-.18-.88-.55-.35-.38-.53-.75-.53-1.13s.11-.74.34-1.09c.23-.35.34-.56.34-.62s-.11-.09-.34-.09c-.6,0-1.44.36-2.5,1.09-1.07.73-1.6,1.54-1.6,2.43s.23,1.7.68,2.43c.2.2.49.8.88,1.79.39.99.58,1.85.58,2.58s-.33,1.32-1,1.77c-.66.45-1.58.68-2.75.68s-2.2-.38-3.09-1.13c-.89-.75-1.34-1.53-1.34-2.33,0-.43.18-.64.53-.64.1.03.45.22,1.05.58.6.36,1.1.55,1.5.55,1,0,1.56-.28,1.66-.83,0-.35-.18-.88-.53-1.58-.88-1.3-1.37-3.03-1.47-5.19,0-.88.87-1.94,2.6-3.2,1.73-1.25,3.17-1.94,4.33-2.07M135.43,60.61h-.11c-1.34.15-2.92.89-4.81,2.26-2.05,1.49-3.01,2.76-3.01,4.01.11,2.35.65,4.25,1.6,5.69.2.41.3.68.35.84-.11.03-.3.06-.61.06-.08,0-.37-.03-.99-.4-.96-.58-1.15-.65-1.33-.7l-.12-.03h-.12c-.76,0-1.53.51-1.53,1.64s.57,2.15,1.69,3.1c1.07.91,2.33,1.36,3.73,1.36s2.48-.29,3.31-.85c.94-.64,1.44-1.54,1.44-2.6,0-.86-.21-1.82-.65-2.94-.5-1.28-.79-1.76-1.01-2.02-.32-.55-.48-1.15-.48-1.83,0-.54.39-1.07,1.16-1.6.23-.16.43-.28.61-.39,0,.09-.01.19-.01.28,0,.64.27,1.25.8,1.81.54.58,1.07.86,1.61.86h.08s.09,0,.13,0c.1.03.2.04.31.04.16,0,.33-.04.48-.11.18-.06.39-.18.57-.42l.02-.03c.1-.11.16-.23.22-.35.06-.12.11-.24.14-.37.03-.07.13-.28.42-.86.73-1.14,1.03-1.83,1.03-2.38,0-.46-.17-1.04-.55-1.82-.37-.77-.76-1.31-1.2-1.66-.53-.42-1.45-.6-3.17-.6h0ZM137.62,69.16h0Z"/>
      </g>
      <g>
        <path class="cls-3" d="M143.49,77.99c-1.49,0-2.61-.5-3.34-1.48-.47-.98-.49-1.79-.11-2.49.23-.46.58-.53.77-.53.25,0,.48.11.72.33.24.14.51.2.82.2.42,0,.93-.02,1.53-.06.73-.05.93-.17.97-.2.11-.08.13-.13.13-.13,0,0,0,0-.01-.03-1.02-.27-1.99-.71-2.9-1.33-1.01-.68-1.61-1.44-1.79-2.24-.17-.76-.1-1.64.22-2.6.31-.94.79-1.78,1.44-2.51l.04-.05.05-.04c1.31-.87,1.7-1.09,1.85-1.16.8-.81,2.04-1.49,3.79-2.09l.05-.02h.05c1.09-.14,1.34-.16,1.45-.16h.11l.1.04c.4.18.77.29,1.1.34.52.07,1.04.46,1.59,1.19.54.72.78,1.43.7,2.12-.07.64-.31,1.28-.72,1.89-.35.53-.71.88-1.1,1.05l-.05.1h-.29s-.94.26-.94.26l.26-.55-.62.31v-.81s-.01-.08-.12-.29c-.17-.31-.25-.68-.21-1.09.01-.14.02-.26.03-.35h-.04c-.13-.04-.26-.05-.4-.05-.56,0-1.18.25-1.83.74-.89.62-1.23.9-1.36,1.03-.11.11-.3.37-.55.95-.33.51-.34.66-.34.67h0s.23.4,2.25,1.23c.66.27,1.1.59,1.34.99.2.32.32.53.38.64.38.76.48,1.05.5,1.22.15.44.23.77.22,1.02.26.53.34,1.37-.71,2.36-.75.7-1.6,1.15-2.55,1.31-.88.16-1.72.23-2.5.23Z"/>
        <path class="cls-1" d="M149.24,61.91c.45.2.87.33,1.24.38.38.05.8.38,1.26,1,.46.62.66,1.2.6,1.77-.06.56-.28,1.12-.64,1.67-.34.52-.69.83-1.05.93,0-.02-.04-.05-.13-.1-.3-.15-.46-.24-.49-.26l-.15.08c0-.13-.06-.3-.19-.53-.13-.23-.18-.49-.15-.81.02-.31.04-.5.04-.56s0-.12.02-.17c.01-.05,0-.09-.06-.11-.15-.02-.29-.04-.41-.04-.17-.03-.33-.05-.5-.05-.68,0-1.39.28-2.13.84-.73.5-1.2.86-1.41,1.07-.21.21-.43.58-.66,1.11-.25.38-.38.66-.38.87,0,.43.85.99,2.56,1.69.55.23.92.49,1.11.79.19.3.31.5.36.6.3.6.45.97.45,1.09.2.6.26.94.19,1.02,0,.03.02.06.08.11.28.55.08,1.15-.6,1.79-.68.64-1.44,1.03-2.3,1.18-.85.15-1.66.23-2.41.23-1.33,0-2.31-.43-2.93-1.28-.35-.75-.38-1.4-.08-1.96.09-.18.2-.27.33-.27.12,0,.26.08.42.24.33.2.7.3,1.13.3s.95-.02,1.56-.06c.61-.04,1.03-.14,1.24-.3.21-.16.32-.33.32-.51s-.08-.34-.23-.49c-1.03-.25-1.99-.68-2.9-1.3-.9-.61-1.43-1.26-1.58-1.94-.15-.68-.08-1.45.21-2.33.29-.88.73-1.65,1.34-2.33,1.1-.73,1.71-1.1,1.81-1.13v.04c.73-.8,1.97-1.51,3.72-2.11.8-.1,1.27-.15,1.39-.15M150.66,67.65s-.02.01-.06.01c.02,0,.04,0,.06-.01M149.46,60.91h-.21c-.12,0-.34.01-1.52.16h-.1s-.1.05-.1.05c-1.78.61-3.06,1.32-3.92,2.15-.24.12-.71.41-1.84,1.16l-.11.07-.09.1c-.69.78-1.21,1.68-1.54,2.68-.34,1.05-.42,2.01-.23,2.86.21.93.88,1.79,1.99,2.55.45.31.93.58,1.41.8-.32.01-.6.02-.85.02-.21,0-.38-.04-.53-.11-.32-.28-.66-.42-1.02-.42-.25,0-.86.08-1.23.83-.3.55-.55,1.52.06,2.83l.04.09.06.08c.82,1.12,2.08,1.69,3.74,1.69.81,0,1.68-.08,2.58-.24,1.04-.18,1.99-.67,2.81-1.44,1.25-1.18,1.12-2.24.87-2.83-.02-.34-.13-.7-.24-1.04-.05-.25-.18-.61-.54-1.32-.06-.12-.19-.35-.4-.68-.31-.49-.82-.88-1.58-1.19-1.08-.44-1.6-.75-1.83-.92.03-.05.06-.1.1-.16l.05-.08.04-.08c.24-.57.4-.75.45-.8.08-.08.35-.32,1.27-.95.56-.42,1.04-.64,1.47-.66-.01.45.08.87.28,1.23.03.06.05.1.06.12v1.54l.05-.03-.1.21,1.97-.53c.08-.01.16-.04.23-.07.56-.18,1.06-.61,1.51-1.31.45-.68.72-1.39.8-2.11.09-.83-.18-1.66-.8-2.48-.64-.84-1.27-1.3-1.93-1.39-.28-.04-.61-.14-.97-.3l-.19-.09h0Z"/>
      </g>
      <g>
        <path class="cls-3" d="M156.13,77.49c-.59,0-1.2-.28-1.87-.87-.63-.32-1.18-.83-1.64-1.54-.5-.76-.71-1.38-.64-1.88.18-1.95.88-4.03,2.07-6.18,1.21-2.18,2.64-3.65,4.24-4.37.44-.2.91-.3,1.4-.3.16,0,.32,0,.49.03.93.12,1.36.61,1.55.99.29.55.35,1.02.21,1.4.05,0,.09-.01.14-.02,1.09-.16,1.29-.34,1.3-.35l.05-.05.08-.04c.17-.08.37-.13.6-.13.19,0,.41.03.66.09s1,.24,1,.86c0,.05.01.15.09.32,0,.02.02.04.02.05.23.08.34.22.39.32.18.34.02.72-.11.97-.24.44-.57.82-.98,1.11-.44.29-.66.44-.77.52,0,.02,0,.04.02.06.37.87.14,2.06-.71,3.48-.79,1.33-1.89,2.54-3.24,3.6-1.36,1.07-2.65,1.68-3.83,1.83-.17.05-.34.08-.52.08ZM156.42,73.21s.06.03.17.04c.02,0,.21-.01.9-.35.46-.46.67-.56.83-.61.01,0,.03,0,.04-.01,0,0,0-.01.01-.02.04-.07.08-.15.12-.26.07-.19.26-.59,1.05-1.59.59-.66.81-1.02.89-1.22.13-.32.12-.48.11-.55-.01-.05-.02-.09-.03-.12-.02,0-.2-.07-.25-.09l-.51.15h-.07c-.21,0-.44-.09-.7-.28l-.06-.04-.3-.37-.24.24c-.53.53-.98,1.25-1.34,2.16-.37.93-.58,1.67-.63,2.19-.05.56.02.71.02.72h0Z"/>
        <path class="cls-1" d="M159.69,62.86c.14,0,.28,0,.42.03.58.08.97.31,1.17.72.38.73.29,1.19-.26,1.39-.28,0-.41.11-.41.34.07.03.18.04.34.04.27,0,.67-.04,1.2-.12.85-.13,1.38-.29,1.58-.49.1-.05.23-.07.38-.07s.33.02.54.07c.41.1.62.23.62.38s.04.33.13.53c.09.2.17.3.24.3.25.03.28.23.08.6-.2.38-.48.69-.83.94-.63.4-.95.65-.98.73-.03.09-.01.22.04.39.33.78.11,1.81-.66,3.09-.77,1.28-1.81,2.43-3.12,3.46-1.32,1.03-2.53,1.61-3.63,1.73-.13.05-.27.07-.41.07-.48,0-1-.26-1.58-.78-.58-.28-1.08-.74-1.5-1.39-.43-.65-.61-1.17-.56-1.54.18-1.91.85-3.91,2.01-6,1.17-2.09,2.5-3.48,4.01-4.16.38-.17.77-.25,1.19-.25M156.59,73.74c.22,0,.62-.14,1.2-.43.33-.33.55-.51.68-.55.13-.04.2-.07.23-.09.02-.02.06-.08.11-.17.05-.09.1-.19.15-.32.1-.28.43-.76.98-1.47.5-.55.82-1,.96-1.34.14-.34.18-.62.13-.85-.05-.23-.11-.36-.17-.39-.06-.04-.15-.08-.26-.11-.11-.04-.21-.08-.28-.13l-.64.19c-.1,0-.24-.06-.41-.19l-.6-.75-.64.64c-.58.58-1.06,1.35-1.45,2.33-.39.98-.61,1.76-.66,2.33-.05.58,0,.94.13,1.07.14.14.31.21.53.23,0,0,.02,0,.03,0M159.69,61.86c-.56,0-1.1.12-1.6.34-1.7.76-3.2,2.31-4.47,4.58-1.23,2.21-1.95,4.36-2.13,6.4-.08.6.15,1.3.72,2.18.49.76,1.09,1.32,1.78,1.68.74.64,1.44.95,2.15.95.21,0,.42-.03.62-.09,1.26-.17,2.61-.81,4.03-1.92,1.41-1.1,2.54-2.36,3.36-3.74.83-1.38,1.11-2.59.85-3.6.11-.07.25-.17.43-.28h.02s.02-.03.02-.03c.47-.34.85-.77,1.13-1.28.29-.55.33-1.04.11-1.45-.1-.19-.26-.35-.44-.46,0-.01,0-.01,0-.01,0-.45-.24-1.06-1.39-1.33-.29-.07-.54-.1-.78-.1-.31,0-.59.06-.83.18l-.15.07-.08.08c-.05.02-.2.09-.56.16-.03-.32-.14-.67-.33-1.04-.24-.48-.78-1.1-1.92-1.25-.19-.02-.37-.04-.56-.04h0ZM156.89,72.62s0-.06,0-.09c.03-.33.15-.95.59-2.05.3-.76.67-1.38,1.08-1.84l.1.07c.36.25.67.37,1,.37h.14l.14-.04c-.06.13-.24.44-.76,1l-.02.03-.02.03c-.82,1.05-1.04,1.48-1.13,1.74,0,.01,0,.02-.01.03-.23.11-.47.29-.8.61-.12.06-.22.1-.31.14h0Z"/>
      </g>
      <g>
        <path class="cls-3" d="M170.8,76.68c-.58,0-1.16-.1-1.74-.3l-.1-.04-.08-.07c-.44-.42-.75-.73-.94-.94-.61-.64-1-1.54-1.15-2.67-.15-1.11.12-2.7.83-4.85.71-2.15,1.41-3.56,2.15-4.3.63-.8,1.38-1.22,2.17-1.22.32,0,.65.07.98.21l.11.05.08.09c.35.41.53.97.55,1.65.01.66-.16,1.28-.51,1.84-1.02,1.36-1.67,3.06-1.96,5.07-.28,1.01-.16,1.28-.13,1.33.13.05.21.06.28.06.44,0,.95-.33,1.5-.98.74-.87,1.41-2.08,1.98-3.6.06-.16.17-.49.32-1.15.16-.71.25-.99.32-1.14.21-.79.67-1.38,1.35-1.77.4-.23.76-.34,1.09-.34.27,0,.52.08.73.23.92.42,1.35,1.17,1.26,2.17,0,.88-.26,1.84-.77,2.8-.47.87-.83,1.61-1.07,2.19-.27.66-.86,1.52-1.81,2.63-.96,1.14-1.79,1.84-2.52,2.15-.9.57-1.9.88-2.91.88Z"/>
        <path class="cls-1" d="M171.94,62.79c.25,0,.51.06.78.17.28.33.42.77.43,1.34.01.56-.13,1.09-.43,1.56-1.05,1.41-1.73,3.16-2.03,5.27-.33,1.15-.23,1.79.3,1.92.11.03.23.04.34.04.6,0,1.23-.38,1.88-1.15.78-.92,1.47-2.16,2.07-3.74.1-.25.21-.66.34-1.22.13-.56.23-.92.3-1.07.18-.68.55-1.18,1.13-1.51.33-.18.61-.28.85-.28.18,0,.34.05.47.16.75.33,1.09.89,1.02,1.69,0,.85-.24,1.73-.71,2.62-.48.89-.84,1.64-1.09,2.24-.25.6-.83,1.44-1.73,2.5-.9,1.07-1.68,1.74-2.33,2.01-.89.56-1.8.84-2.71.84-.52,0-1.05-.09-1.58-.27-.43-.4-.73-.7-.9-.9-.55-.58-.9-1.38-1.03-2.41-.14-1.03.13-2.57.81-4.63.68-2.06,1.35-3.42,2.03-4.1.57-.72,1.18-1.07,1.82-1.07M171.94,61.79h0c-.94,0-1.8.47-2.56,1.41-.78.81-1.51,2.26-2.23,4.46-.73,2.22-1.01,3.88-.85,5.07.17,1.24.6,2.23,1.3,2.97.17.19.48.51.94.94l.16.15.2.07c.63.22,1.27.33,1.9.33,1.08,0,2.15-.32,3.18-.95.79-.36,1.65-1.09,2.63-2.25.98-1.16,1.6-2.06,1.89-2.77.24-.57.59-1.29,1.05-2.15.54-1.02.82-2.04.83-3.04.09-1.18-.44-2.1-1.51-2.6-.29-.19-.62-.3-.98-.3-.42,0-.85.13-1.34.41-.78.44-1.33,1.14-1.58,2.03-.08.19-.18.5-.33,1.2-.15.67-.25.96-.29,1.07-.56,1.48-1.2,2.64-1.9,3.47-.35.41-.68.68-.94.77.02-.15.05-.36.14-.65l.02-.06v-.07c.28-1.93.9-3.55,1.85-4.81l.02-.03.02-.03c.41-.64.6-1.35.59-2.12-.02-.8-.24-1.46-.67-1.96l-.15-.18-.22-.09c-.39-.17-.79-.25-1.18-.25h0Z"/>
      </g>
      <g>
        <path class="cls-3" d="M182.12,77.18c-.37,0-.77-.19-1.23-.59-.9-.66-1.31-1.45-1.2-2.3.09-.68.35-1.94.78-3.75.07-.66.47-2.01,1.2-4.06.74-2.05,1.34-3.41,1.84-4.16.41-.42.93-.59,1.62-.59s1.18.15,1.48.45c.67.58.51,1.84-.57,4.14.11-.09.22-.18.34-.27,1.47-1.14,1.9-1.4,2.1-1.5.29-.14.59-.28.92-.41.29-.11.46-.18.51-.21.52-.26,1.1-.39,1.72-.39.14,0,.28,0,.43.02.9.08,1.47.41,1.7.97l.04.09v.1c0,.06.12.13.18.16l.09.05.37.44v.18c0,.36-.22.72-.69,1.14-.44.39-.9.6-1.39.63-.31.02-.7.14-1.16.35-.5.23-.99.48-1.45.74-.48.26-.83.46-1.07.6-.24.14-.54.32-.92.54-.64.43-1.24.97-1.76,1.59-.94.94-1.08,1.18-1.1,1.22l-.04.07-.06.06s-.18.2-.41,1.14c-.25,1-.27,1.22-.27,1.25v.06l-.02.06c-.12.47-.34.91-.65,1.33-.35.46-.7.73-1.07.84-.09.03-.18.04-.28.04Z"/>
        <path class="cls-1" d="M185.14,62.21c.55,0,.93.1,1.13.3.55.48.16,2.01-1.17,4.59-.43.85-.56,1.28-.41,1.28.28-.48.95-1.13,2.01-1.96,1.07-.83,1.74-1.31,2.01-1.45.28-.14.57-.27.88-.39.31-.13.49-.2.55-.23.45-.22.95-.34,1.5-.34.12,0,.25,0,.38.02.7.06,1.13.28,1.28.66,0,.25.15.45.45.6l.19.23c0,.2-.18.46-.53.77-.35.31-.71.48-1.09.51-.38.03-.82.16-1.34.39-.51.24-1.01.49-1.49.75-.48.26-.83.46-1.07.6-.24.14-.55.32-.92.55-.7.48-1.33,1.04-1.88,1.69-.68.68-1.07,1.12-1.17,1.32-.18.18-.36.63-.55,1.37-.19.74-.28,1.2-.28,1.37-.1.4-.29.78-.56,1.15-.28.36-.55.58-.81.66-.04.01-.09.02-.14.02-.24,0-.54-.16-.9-.47-.78-.58-1.12-1.2-1.03-1.86.09-.66.34-1.9.77-3.71.08-.68.47-2.01,1.18-4.01.72-1.99,1.31-3.34,1.79-4.05.25-.25.65-.38,1.2-.38M185.14,61.21c-.82,0-1.47.22-1.91.67l-.07.07-.05.08c-.53.78-1.15,2.18-1.9,4.27-.74,2.06-1.13,3.39-1.23,4.17-.43,1.82-.68,3.05-.78,3.75-.09.71.07,1.77,1.4,2.77.54.47,1.04.69,1.52.69.14,0,.28-.02.42-.06.48-.14.91-.47,1.33-1.01.36-.47.6-.98.74-1.51l.03-.12v-.12s.02-.22.25-1.13c.17-.65.28-.89.31-.94l.09-.09.07-.15s.15-.23.98-1.05l.03-.03.03-.03c.48-.57,1.04-1.08,1.66-1.5.36-.21.65-.39.88-.52.24-.14.59-.33,1.06-.59.45-.25.92-.49,1.42-.72.5-.23.81-.29.98-.3.6-.04,1.17-.29,1.69-.76.37-.33.86-.85.86-1.52v-.36l-.23-.28-.19-.23-.13-.16-.11-.06-.05-.12c-.21-.52-.74-1.16-2.12-1.28-.16-.01-.32-.02-.47-.02-.71,0-1.36.15-1.95.44-.05.02-.21.09-.47.19-.35.14-.66.28-.96.43-.17.08-.43.24-1.06.7.49-1.49.39-2.42-.26-3.01-.4-.38-.99-.57-1.81-.57h0Z"/>
      </g>
      <g>
        <path class="cls-3" d="M197.36,77.42c-1.29,0-1.71-.11-1.95-.28-.18-.13-.41-.32-.68-.56l-.07-.06-.04-.08c-.2-.4-.52-.83-.96-1.26l-.08-.08-.04-.11c-.2-.61-.2-1.53.02-2.8.18-1.21.58-2.58,1.21-4.07.04-.24.23-.64,1.04-1.8.67-.96,1.19-1.6,1.59-1.98.48-.53,1.26-1,2.3-1.37,1.03-.36,1.75-.54,2.22-.54,1.09,0,1.95.41,2.55,1.22.44.44.77,1.04.93,1.75.15.69.15,1.39-.02,2.09-.19.79-.71,1.37-1.55,1.72-.3.13-.6.19-.89.19-.54,0-1.02-.23-1.43-.68l-.05-.05-.03-.06c-.21-.42-.2-1.02.02-1.82.05-.17.07-.29.08-.37-.1.02-.18.05-.23.09-1.29,1.1-2.31,2.52-3.03,4.22l-.58,1.91-.06.48s0,0,0,0c0,0,.02.09.23.21.34.18.47.19.48.19.02,0,.19-.02.73-.27.39-.18.84-.48,1.33-.88.73-.59.96-.74,1.07-.8.12-.07.24-.14.34-.2.08-.05.14-.09.17-.13.07-.07.29-.29.6-.29h.21l.06.05c.27-.19.52-.24.69-.24h.13c.29.04.56.12.8.25.15.08.55.29.55.71v.11c-.03.07-.02.08,0,.1l.15.15v.21c0,.44-.16.82-.48,1.14l-1.65,2.19-.21-.04c-.05.03-.15.11-.32.27-.36.35-.73.54-1.09.58-.05.02-.11.05-.17.07v.03l-.15.15c-.54.54-1.72.79-3.74.79Z"/>
        <path class="cls-1" d="M201.92,62.93c.93,0,1.64.34,2.14,1.02.43.43.71.95.85,1.56.14.61.13,1.24-.02,1.86-.15.63-.57,1.09-1.26,1.37-.24.1-.48.15-.69.15-.4,0-.75-.17-1.06-.51-.15-.3-.13-.79.06-1.47.19-.68.12-1.02-.21-1.02s-.58.07-.75.23c-1.35,1.15-2.41,2.62-3.16,4.4l-.6,1.96-.08.56c0,.3.16.54.49.71.3.16.54.25.71.25.01,0,.03,0,.04,0,.18-.01.48-.12.9-.32.43-.2.9-.51,1.43-.94.53-.43.86-.68,1-.75.14-.07.26-.15.38-.23.11-.08.19-.14.24-.19.1-.1.18-.15.25-.15.03,0,.06.01.09.04,0,.14.03.2.09.2.05,0,.12-.05.21-.15.18-.19.37-.29.57-.29.02,0,.05,0,.07,0,.23.03.43.09.62.19.19.1.28.19.28.26-.05.23,0,.41.15.56,0,.3-.11.56-.34.79l-1.51,1.99s-.02,0-.03,0c-.13,0-.34.14-.63.42-.31.3-.61.45-.88.45-.08.05-.18.09-.3.11-.15.08-.23.16-.23.26-.43.43-1.56.64-3.39.64-.93,0-1.48-.06-1.66-.19-.18-.13-.39-.3-.64-.53-.23-.45-.58-.92-1.05-1.39-.18-.53-.16-1.38.04-2.56.18-1.2.58-2.55,1.2-4.03,0-.17.32-.72.96-1.64.64-.92,1.15-1.55,1.52-1.9.45-.5,1.16-.92,2.13-1.26.96-.34,1.65-.51,2.05-.51M201.92,61.93c-.53,0-1.28.18-2.38.57-1.11.39-1.94.88-2.51,1.5-.43.41-.96,1.07-1.63,2.03-.76,1.09-1.03,1.58-1.11,1.93-.63,1.51-1.04,2.91-1.22,4.16-.23,1.35-.23,2.32,0,3.02l.07.22.17.17c.4.4.69.78.87,1.13l.08.17.14.13c.28.25.52.45.73.6.33.24.8.37,2.24.37,2.19,0,3.45-.29,4.09-.93l.11-.11c.44-.07.87-.31,1.29-.71.04-.04.07-.07.1-.09l.29.06.37-.5,1.47-1.95c.38-.4.58-.9.58-1.44v-.41l-.15-.15h0c0-.47-.27-.86-.81-1.15-.3-.16-.63-.26-.98-.3-.06,0-.12-.01-.18-.01-.21,0-.49.04-.79.2-.05,0-.11-.01-.17-.01-.34,0-.66.15-.96.44-.01,0-.05.03-.1.07-.08.05-.18.12-.29.18-.15.08-.4.24-1.15.86-.46.37-.87.65-1.23.81-.28.13-.44.19-.51.21-.04-.01-.1-.04-.18-.08l.03-.22.56-1.83c.52-1.22,1.2-2.28,2.03-3.18-.03.44.04.82.2,1.13l.06.12.09.1c.5.55,1.12.84,1.8.84.35,0,.71-.08,1.08-.23,1.24-.52,1.69-1.41,1.85-2.06.19-.77.19-1.55.02-2.31-.17-.78-.53-1.45-1.06-2-.69-.89-1.69-1.36-2.9-1.36h0Z"/>
      </g>
      <g>
        <path class="cls-3" d="M212.15,77.72c-1.5,0-2.76-.45-3.72-1.33-.98-.9-1.48-2.17-1.48-3.79,0-.59.03-1.22.1-1.89.07-.7.29-1.54.69-2.54.39-.99,1.02-2.07,1.87-3.2.88-1.17,1.84-2,2.86-2.47,1.03-.47,1.9-.71,2.65-.71,1.62,0,2.83.41,3.6,1.23.77.81,1.15,1.6,1.15,2.36v.3c0,.63-.36,1.54-1.12,2.85-.38.68-.98,1.31-1.77,1.84-.8.54-1.63.83-2.44.86-.14,0-.28,0-.41,0-.61,0-1.21-.05-1.78-.15-.86-.15-1.08-.16-1.14-.16-.05.12-.18.42-.18,1.31.06.51.2.91.41,1.09.22.19.49.29.82.29.38,0,.74-.07,1.08-.22.36-.16.79-.45,1.29-.87.65-.54,1.15-.79,1.58-.79s.86.2,1.26.6c.38.39.6.78.63,1.17v.06s0,.05,0,.05c-.09.72-.7,1.54-1.92,2.59-1.18,1.02-2.54,1.53-4.03,1.53ZM212.51,67.62c.12.02.3.04.58.04,1.01,0,1.23-.1,1.25-.11.08-.04.32-.2.97-.85.59-.59.66-.78.67-.81,0-.03,0-.28-.76-.36h-.37c-.05,0-.34.04-1.08.69-.47.41-.89.88-1.26,1.4Z"/>
        <path class="cls-1" d="M215.12,62.29c1.48,0,2.56.36,3.24,1.07.68.72,1.02,1.39,1.02,2.01v.3c0,.53-.35,1.39-1.05,2.6-.35.63-.89,1.18-1.62,1.67-.73.49-1.45.75-2.18.77-.13,0-.27,0-.4,0-.58,0-1.15-.05-1.69-.14-.66-.11-1.07-.17-1.22-.17s-.29.09-.41.26c-.18.28-.26.79-.26,1.54.08.7.27,1.19.58,1.47.31.28.7.41,1.15.41s.88-.09,1.28-.26c.4-.18.87-.49,1.41-.94.54-.45.96-.68,1.26-.68s.6.15.9.45c.3.3.46.59.49.87-.08.58-.66,1.34-1.75,2.28-1.09.94-2.33,1.41-3.71,1.41s-2.51-.4-3.39-1.2c-.88-.8-1.32-1.94-1.32-3.42,0-.58.03-1.19.09-1.84s.28-1.45.66-2.41c.38-.95.98-1.98,1.81-3.09.83-1.1,1.72-1.88,2.67-2.31.95-.44,1.77-.66,2.45-.66M213.09,68.16c.78,0,1.27-.06,1.49-.17.21-.11.58-.43,1.09-.94.51-.51.78-.87.81-1.07,0-.55-.4-.86-1.2-.94h-.41c-.33,0-.8.27-1.41.81s-1.15,1.16-1.6,1.86c.05.3.46.45,1.24.45M215.12,61.29c-.83,0-1.77.25-2.86.75-1.1.51-2.13,1.39-3.05,2.62-.88,1.17-1.53,2.28-1.94,3.32-.42,1.05-.65,1.93-.72,2.68-.07.68-.1,1.33-.1,1.94,0,1.77.55,3.17,1.64,4.16,1.06.97,2.43,1.47,4.06,1.47s3.09-.56,4.36-1.65c1.31-1.13,1.98-2.06,2.09-2.9v-.11s0-.11,0-.11c-.05-.51-.31-1.01-.78-1.48-.42-.42-.88-.67-1.37-.73.27-.13.54-.28.81-.46.86-.58,1.51-1.25,1.93-2.02.8-1.38,1.18-2.36,1.18-3.08v-.3c0-.89-.43-1.8-1.29-2.7-.87-.92-2.2-1.38-3.96-1.38h0ZM214.9,66.03h.32s.02,0,.03,0c-.08.08-.17.18-.29.3-.53.53-.76.7-.83.75-.06.01-.22.04-.59.06.18-.19.37-.38.57-.55.49-.43.73-.54.79-.56h0ZM211.53,72.17c0-.33.02-.56.05-.71.16.02.38.06.69.11.59.1,1.22.15,1.86.15.14,0,.29,0,.43,0,.11,0,.23-.01.34-.02-.19.12-.38.27-.59.44-.58.48-.95.7-1.17.79-.28.12-.56.18-.88.18-.27,0-.4-.09-.49-.16-.06-.06-.18-.28-.24-.77h0Z"/>
      </g>
      <g>
        <path class="cls-3" d="M223.85,77.99c-1.49,0-2.61-.5-3.34-1.48-.47-.98-.49-1.79-.11-2.49.23-.46.58-.53.77-.53.25,0,.48.11.73.33.24.14.51.2.82.2.42,0,.93-.02,1.53-.06.73-.05.93-.17.97-.2.11-.08.13-.13.13-.13,0,0,0,0-.01-.03-1.02-.27-1.99-.71-2.9-1.33-1.01-.68-1.61-1.44-1.79-2.24-.17-.76-.1-1.64.22-2.6.31-.94.79-1.78,1.44-2.51l.04-.05.05-.04c1.31-.87,1.7-1.09,1.85-1.16.8-.81,2.04-1.49,3.79-2.09l.05-.02h.05c1.09-.14,1.34-.16,1.45-.16h.11l.1.04c.4.18.77.29,1.1.34.52.07,1.04.46,1.59,1.19.54.72.78,1.43.7,2.12-.07.64-.31,1.28-.72,1.89-.35.53-.71.88-1.1,1.05l-.05.1h-.29s-.94.26-.94.26l.26-.55-.62.31v-.81s-.01-.08-.12-.28c-.17-.31-.25-.68-.21-1.09.01-.14.02-.26.03-.35h-.05c-.13-.04-.26-.05-.4-.05-.56,0-1.18.25-1.83.74-.89.62-1.23.9-1.36,1.03-.11.11-.3.37-.55.95-.33.51-.34.66-.34.67h0s.23.4,2.25,1.23c.66.27,1.1.59,1.34.99.2.32.32.53.38.64.38.76.48,1.05.5,1.22.15.44.23.77.22,1.02.26.53.34,1.37-.71,2.36-.75.71-1.6,1.15-2.55,1.31-.88.16-1.72.23-2.49.23Z"/>
        <path class="cls-1" d="M229.61,61.91c.45.2.87.33,1.24.38.38.05.8.38,1.26,1,.46.62.66,1.2.6,1.77-.06.56-.28,1.12-.64,1.67-.34.52-.69.83-1.05.93,0-.02-.04-.05-.13-.1-.3-.15-.46-.24-.49-.26l-.15.08c0-.13-.06-.3-.19-.53-.13-.23-.18-.49-.15-.81.02-.31.04-.5.04-.56s0-.12.02-.17c.01-.05,0-.09-.06-.11-.15-.02-.29-.04-.41-.04-.17-.03-.33-.05-.5-.05-.68,0-1.39.28-2.13.84-.73.5-1.2.86-1.41,1.07-.21.21-.43.58-.66,1.11-.25.38-.38.66-.38.87,0,.43.85.99,2.56,1.69.55.23.92.49,1.11.79.19.3.31.5.36.6.3.6.45.97.45,1.09.2.6.26.94.19,1.02,0,.03.02.06.08.11.28.55.08,1.15-.6,1.79-.68.64-1.44,1.03-2.3,1.18-.85.15-1.66.23-2.41.23-1.33,0-2.31-.43-2.93-1.28-.35-.75-.38-1.4-.08-1.96.09-.18.2-.27.33-.27.12,0,.26.08.42.24.33.2.7.3,1.13.3s.95-.02,1.56-.06c.61-.04,1.03-.14,1.24-.3.21-.16.32-.33.32-.51s-.08-.34-.23-.49c-1.03-.25-1.99-.68-2.9-1.3s-1.43-1.26-1.58-1.94c-.15-.68-.08-1.45.21-2.33.29-.88.73-1.65,1.34-2.33,1.1-.73,1.71-1.1,1.81-1.13v.04c.73-.8,1.97-1.51,3.72-2.11.8-.1,1.27-.15,1.39-.15M231.02,67.65s-.02.01-.06.01c.02,0,.04,0,.06-.01M229.82,60.91h-.21c-.12,0-.34.01-1.52.16h-.1s-.1.05-.1.05c-1.78.61-3.06,1.32-3.92,2.15-.24.12-.71.41-1.84,1.16l-.11.07-.09.1c-.69.78-1.21,1.68-1.54,2.68-.34,1.05-.42,2.01-.23,2.86.21.93.88,1.79,1.99,2.55.45.31.93.58,1.41.8-.32.01-.6.02-.85.02-.21,0-.38-.04-.53-.11-.32-.28-.66-.42-1.02-.42-.25,0-.86.08-1.23.83-.3.55-.55,1.52.06,2.83l.04.09.06.08c.82,1.12,2.08,1.69,3.74,1.69.81,0,1.68-.08,2.58-.24,1.04-.18,1.99-.67,2.81-1.44,1.25-1.18,1.12-2.24.87-2.83-.02-.34-.13-.7-.24-1.04-.05-.25-.18-.61-.54-1.32-.06-.12-.19-.35-.4-.68-.31-.49-.82-.88-1.58-1.19-1.08-.44-1.6-.75-1.83-.92.03-.05.06-.1.1-.16l.05-.08.04-.08c.24-.57.4-.75.45-.8.08-.08.35-.32,1.27-.95.56-.42,1.04-.64,1.47-.66-.01.45.08.87.28,1.23.03.06.05.1.06.12v1.54l.05-.03-.1.21,1.97-.53c.08-.01.16-.04.23-.07.56-.18,1.05-.61,1.51-1.31.45-.68.72-1.39.8-2.11.09-.83-.18-1.66-.8-2.48-.64-.84-1.27-1.3-1.93-1.39-.28-.04-.61-.14-.97-.3l-.19-.09h0Z"/>
      </g>
      <g>
        <path class="cls-3" d="M32.33,109.87c-1.5,0-2.76-.45-3.72-1.34-.98-.9-1.48-2.17-1.48-3.79,0-.59.03-1.22.1-1.89.07-.7.29-1.53.69-2.54.39-.99,1.02-2.07,1.87-3.2.87-1.17,1.84-2,2.86-2.47,1.03-.47,1.9-.7,2.66-.7,1.62,0,2.83.41,3.6,1.23.76.81,1.15,1.6,1.15,2.36v.3c0,.63-.36,1.54-1.12,2.85-.38.69-.98,1.31-1.77,1.84-.8.54-1.63.83-2.44.86-.14,0-.27,0-.41,0-.62,0-1.22-.05-1.78-.15-.86-.15-1.08-.16-1.14-.16-.05.12-.18.42-.18,1.31.06.51.2.91.41,1.09.22.19.49.29.82.29.38,0,.74-.07,1.08-.22.35-.16.79-.45,1.29-.87.64-.54,1.15-.79,1.58-.79s.86.2,1.26.6c.38.38.6.78.63,1.17v.06s0,.05,0,.05c-.09.72-.7,1.54-1.92,2.59-1.18,1.02-2.54,1.53-4.03,1.53ZM32.69,99.77c.12.02.3.04.58.04,1.01,0,1.23-.1,1.25-.11.08-.04.32-.2.97-.85.59-.59.66-.79.67-.81,0-.03,0-.28-.76-.36h-.37c-.05,0-.34.04-1.08.69-.47.41-.89.88-1.27,1.4Z"/>
        <path class="cls-1" d="M35.3,94.44c1.48,0,2.56.36,3.24,1.07s1.02,1.39,1.02,2.01v.3c0,.53-.35,1.39-1.05,2.6-.35.63-.89,1.18-1.62,1.67-.73.49-1.45.75-2.18.77-.13,0-.27,0-.4,0-.58,0-1.15-.05-1.69-.14-.66-.11-1.07-.17-1.22-.17s-.29.09-.41.26c-.18.28-.26.79-.26,1.54.08.7.27,1.19.58,1.47.31.28.7.41,1.15.41s.88-.09,1.28-.26c.4-.18.87-.49,1.41-.94.54-.45.96-.68,1.26-.68s.6.15.9.45c.3.3.46.59.49.87-.08.58-.66,1.34-1.75,2.28-1.09.94-2.33,1.41-3.71,1.41s-2.51-.4-3.39-1.2c-.88-.8-1.32-1.94-1.32-3.42,0-.58.03-1.19.09-1.84.06-.65.28-1.45.66-2.41.38-.95.98-1.98,1.81-3.09.83-1.1,1.72-1.88,2.67-2.31.95-.44,1.77-.66,2.45-.66M33.27,100.3c.78,0,1.27-.06,1.49-.17.21-.11.58-.43,1.09-.94.51-.51.78-.87.81-1.07,0-.55-.4-.86-1.2-.94h-.41c-.33,0-.8.27-1.41.81-.61.54-1.15,1.16-1.6,1.86.05.3.46.45,1.24.45M35.3,93.44c-.83,0-1.77.25-2.86.75-1.1.51-2.13,1.39-3.05,2.62-.88,1.17-1.53,2.28-1.94,3.32-.42,1.05-.65,1.93-.72,2.68-.07.68-.1,1.34-.1,1.94,0,1.77.55,3.17,1.64,4.16,1.06.97,2.43,1.47,4.06,1.47s3.09-.56,4.36-1.65c1.31-1.13,1.98-2.06,2.09-2.9v-.11s0-.11,0-.11c-.05-.51-.31-1.01-.78-1.48-.42-.42-.88-.67-1.37-.73.27-.13.54-.28.81-.46.86-.58,1.51-1.25,1.93-2.02.8-1.38,1.18-2.36,1.18-3.08v-.3c0-.89-.43-1.8-1.29-2.7-.87-.92-2.2-1.38-3.96-1.38h0ZM35.08,98.18h.32s.02,0,.03,0c-.08.08-.17.18-.29.3-.53.53-.76.7-.83.75-.06.01-.22.04-.59.06.18-.2.37-.38.57-.55.49-.43.73-.54.79-.56h0ZM31.71,104.31c0-.33.02-.56.05-.71.16.02.38.06.69.11.59.1,1.22.15,1.86.15.14,0,.29,0,.43,0,.11,0,.23-.01.34-.02-.19.12-.38.27-.59.44-.58.48-.95.7-1.17.79-.28.12-.56.18-.88.18-.27,0-.4-.09-.49-.16-.06-.06-.18-.28-.24-.77h0Z"/>
      </g>
      <g>
        <path class="cls-3" d="M44.04,110.03c-.32,0-.61-.02-.86-.07-.68-.13-1.32-.53-1.9-1.17-.53-.6-.86-1.11-1.02-1.57l-.13-.2c-.22-.25-.32-.76-.25-2.27.05-1.21.14-2.05.28-2.57.16-.62.58-1.88,1.29-3.84l.78-1.68-.94-.26c-.24-.03-.51-.19-.7-.45-.18-.24-.27-.5-.27-.77s.12-.59.38-1.06c.19-.34.51-.8.99-.8.13,0,.25.01.42.01.18,0,.42,0,.71-.01.74-.01.97-.08,1.02-.1.02,0,.09-.04.16-.21.11-.3.36-.77.79-1.47,1.19-2.32,1.68-2.88,1.96-3.1.42-.33.92-.53,1.48-.59.09,0,.18-.01.27-.01.48,0,.95.15,1.39.43l.08.05.06.08c.49.69.51,1.45.05,2.15-.13.27-.38.68-.72,1.17-.32.46-.55.83-.69,1.09-.07.1-.12.18-.16.25.37-.02.93-.09,1.68-.21.21-.03.4-.05.58-.05,1.12,0,1.83.63,1.99,1.77.07.53.09,1.27-.42,1.59-.22.14-.61.26-2,.26-.75.12-1.54.2-2.27.21-.92.02-1.12.06-1.15.07-.17.04-.3.19-.41.44l-.06.13-.11.07s-.03.06-.1.21c-.16.32-.48.92-.96,1.8-.61,1.8-1.11,3.76-1.45,5.75-.08.53,0,.69,0,.7h0s.18.11.84.19c.13.01.27.02.42.02.98,0,2.06-.35,3.22-1.04l.93-.55c.14-.17.34-.27.55-.27.46,0,.79.44,1.05.88.11.17.21.36.27.55l.03.08v.08c0,1.17-.62,2.11-1.83,2.8-1.06.67-2.21,1.12-3.4,1.32-.73.12-1.36.18-1.88.18Z"/>
        <path class="cls-1" d="M48.51,88.33c.39,0,.76.12,1.12.35.38.53.39,1.05.04,1.58-.15.3-.39.69-.72,1.17-.33.48-.56.85-.71,1.13-.43.6-.49.93-.19.98.06.01.15.02.25.02.38,0,1.04-.07,1.97-.22.18-.03.34-.04.5-.04.87,0,1.37.45,1.5,1.34.08.6.01.97-.19,1.09-.2.13-.78.19-1.73.19-.8.13-1.56.2-2.28.21-.71.01-1.15.04-1.3.09-.3.08-.54.31-.71.72-.08.05-.16.19-.26.41-.15.3-.46.89-.94,1.77-.65,1.91-1.15,3.88-1.51,5.91-.08.5-.05.85.08,1.05.13.2.53.34,1.2.41.15.02.31.02.47.02,1.07,0,2.24-.37,3.48-1.11l1.02-.6c.06-.1.12-.15.2-.15.16,0,.37.21.63.64.1.15.18.3.23.45,0,.98-.53,1.77-1.58,2.37-1.03.65-2.11,1.07-3.24,1.26-.71.12-1.3.18-1.79.18-.29,0-.55-.02-.76-.06-.58-.11-1.12-.45-1.62-1.02-.5-.56-.82-1.05-.94-1.45l-.19-.3c-.15-.13-.2-.77-.15-1.94.05-1.17.14-1.99.26-2.46.15-.6.58-1.87,1.28-3.8l1.02-2.18-1.51-.41c-.18-.02-.32-.11-.43-.26-.11-.15-.17-.31-.17-.47s.11-.43.32-.81c.21-.37.39-.55.55-.55,0,0,0,0,.01,0,.08,0,.22.01.4.01s.43,0,.72-.01c.59-.01.98-.06,1.18-.13.2-.08.35-.24.45-.49.1-.28.35-.74.75-1.39.88-1.71,1.49-2.7,1.84-2.97.35-.28.76-.44,1.22-.49.07,0,.14-.01.21-.01M48.51,87.33c-.11,0-.21,0-.32.02-.65.07-1.23.31-1.73.7-.34.27-.86.87-2.1,3.27-.4.65-.65,1.12-.79,1.46-.12.02-.34.04-.75.05-.29,0-.52.01-.7.01-.15,0-.26,0-.32,0h-.04s-.06,0-.06,0c-.83,0-1.27.79-1.42,1.06-.31.55-.45.94-.45,1.3,0,.38.13.75.37,1.07.26.35.61.57,1.02.64l.31.09-.52,1.11-.02.04v.04c-.74,1.98-1.16,3.26-1.32,3.9-.14.54-.24,1.41-.29,2.66-.07,1.5.02,2.18.35,2.59l.08.12c.19.51.55,1.06,1.1,1.68.65.73,1.38,1.18,2.17,1.33.28.05.59.08.96.08.55,0,1.19-.06,1.96-.19,1.26-.21,2.47-.68,3.61-1.4,1.68-.96,2.04-2.28,2.04-3.21v-.16l-.05-.15c-.08-.23-.19-.47-.34-.69-.18-.3-.65-1.08-1.46-1.08-.33,0-.64.14-.87.38l-.86.51c-1.08.65-2.08.97-2.97.97-.12,0-.24,0-.37-.02-.19-.02-.33-.04-.42-.07,0-.07.01-.15.03-.26.33-1.92.82-3.83,1.44-5.65.46-.86.76-1.42.92-1.72.02-.05.04-.09.05-.12l.12-.08.12-.27c.04-.09.07-.14.09-.16h.02s0,0,0,0c.02,0,.25-.03,1-.05.73-.01,1.52-.08,2.33-.21,1.37,0,1.86-.13,2.18-.34.84-.53.7-1.68.65-2.06-.2-1.39-1.13-2.22-2.49-2.22-.21,0-.43.02-.66.05-.24.04-.45.07-.63.1.09-.13.19-.28.3-.44.34-.49.58-.89.76-1.23.54-.85.51-1.82-.09-2.66l-.11-.15-.16-.1c-.52-.34-1.08-.51-1.67-.51h0Z"/>
      </g>
      <g>
        <path class="cls-3" d="M65.18,109.38c-.51,0-1.14-.18-1.93-.55-1.28-.6-1.67-.94-1.84-1.14-.13-.15-.52-.61-.36-1.11.11-.37.4-.6.76-.6.04,0,.07,0,.1-.03,0,0,.08-.06.22-.31.1-.19.17-.4.18-.65.03-.35.1-.71.21-1.07.08-.25.12-.4.13-.46,0,0,0,0,0,0,0,0,0-.13.04-.33.05-.48.15-.91.29-1.3.38-1.72.91-3.56,1.56-5.4.07-.51.34-1.23.83-2.18.45-1.23,1.25-3.08,2.34-5.44,1.49-3.22,1.9-3.89,2.07-4.12.3-.3.66-.43,1.12-.43.1,0,.2,0,.31.02.59.07.97.22,1.21.48l.38.42c.11.13.19.22.23.28.04.05.1.14.19.27.11.17.18.33.21.47.02.1.03.21.03.31.04.21-.06.52-.32.89l-.98,1.55c-.19.5-.58,1.37-1.18,2.66-.6,1.28-1.04,2.29-1.3,2.99-.27.72-.47,1.27-.63,1.65-.28.77-.51,1.38-.69,1.84,2.03-2.15,3.66-3.21,4.95-3.24h.01c.68,0,1.3.22,2,.66.74.47,1.23.99,1.47,1.57.36.69.45,1.71.26,3.08-.19,1.34-.64,2.47-1.34,3.36-.52.92-1.23,1.76-2.08,2.42-.66.61-1.21,1.08-1.62,1.37-.41.29-.88.54-1.4.72-.85.56-2.52.99-5.09,1.33-.08.02-.21.03-.35.03ZM72.88,99.06c-.18.01-.83.21-2.65,2.01-.46.43-1.35,1.39-2.65,2.84-.06.1-.19.28-.35.49-.27.33-.32.44-.32.45-.06.28-.09.48-.11.62.62-.05,1.15-.24,1.57-.56,1.65-.85,2.82-1.81,3.56-2.88.72-1.04,1.05-1.99.98-2.82,0-.08-.02-.13-.03-.15Z"/>
        <path class="cls-1" d="M70.9,84.75c.08,0,.17,0,.26.02.45.05.75.16.9.32.15.16.28.3.38.41.1.11.17.19.21.24.04.05.09.13.17.24.08.11.12.21.13.28.01.08.02.15.02.23.02.15-.05.35-.23.6l-1.02,1.62c-.18.48-.57,1.37-1.18,2.67-.61,1.3-1.05,2.31-1.32,3.03-.26.71-.47,1.26-.62,1.64-.5,1.38-.84,2.26-1.02,2.63-.18.38-.3.79-.38,1.24.4-.38.85-.81,1.35-1.32,2.01-2.16,3.6-3.25,4.78-3.27.03,0,.06,0,.09,0,.48,0,1.03.19,1.64.58.65.41,1.08.86,1.28,1.34.33.63.4,1.57.23,2.82-.18,1.26-.59,2.3-1.24,3.12-.53.93-1.19,1.71-1.99,2.33-.68.63-1.21,1.08-1.6,1.35-.39.28-.83.5-1.34.68-.75.53-2.4.95-4.93,1.28-.09.02-.19.03-.29.03-.43,0-1.01-.17-1.72-.5-.89-.41-1.45-.75-1.67-1.02s-.31-.48-.26-.64c.05-.16.14-.24.28-.24s.26-.04.38-.11c.11-.08.24-.24.38-.49.14-.25.22-.53.24-.85.02-.31.09-.63.19-.96.1-.33.15-.51.15-.55s.01-.14.04-.32c.05-.45.14-.85.26-1.2.4-1.78.93-3.6,1.58-5.46.05-.45.31-1.14.79-2.07.48-1.28,1.26-3.1,2.35-5.46,1.09-2.36,1.76-3.7,2.01-4.03.16-.16.4-.24.72-.24M66.41,105.99c.9,0,1.66-.23,2.26-.68,1.66-.85,2.88-1.85,3.67-2.99.79-1.14,1.15-2.19,1.07-3.14-.04-.41-.22-.62-.51-.62-.56,0-1.57.72-3.02,2.16-.45.43-1.34,1.38-2.67,2.86-.1.15-.23.33-.38.53-.28.33-.41.55-.41.68-.18.8-.18,1.2,0,1.2M70.9,83.75c-.74,0-1.18.29-1.43.53l-.05.05-.04.05c-.22.28-.64,1.01-2.13,4.22-1.08,2.34-1.88,4.18-2.36,5.47-.49.96-.76,1.68-.85,2.24-.64,1.83-1.17,3.65-1.57,5.41-.14.41-.24.87-.29,1.37-.02.12-.03.22-.04.29-.02.08-.06.21-.12.39-.12.39-.2.79-.23,1.17-.01.17-.05.32-.12.45-.02.04-.04.07-.05.09-.5.07-.9.41-1.06.94-.16.51,0,1.04.46,1.58.33.39.95.78,2.01,1.27.86.4,1.56.59,2.14.59.16,0,.31-.01.46-.04,2.62-.34,4.28-.77,5.21-1.37.54-.2,1.03-.45,1.46-.76.42-.3.97-.76,1.67-1.41.87-.69,1.6-1.54,2.18-2.54.73-.95,1.2-2.15,1.4-3.54.2-1.46.1-2.57-.31-3.39-.29-.65-.84-1.24-1.65-1.75-.79-.5-1.5-.74-2.18-.74-.05,0-.09,0-.14,0-1.05.02-2.24.61-3.67,1.84.14-.35.32-.83.53-1.42.25-.69.68-1.68,1.28-2.95.59-1.26.98-2.13,1.18-2.65l.96-1.53c.28-.4.41-.81.38-1.2,0-.11-.01-.22-.03-.32-.04-.22-.13-.44-.29-.67-.09-.13-.16-.23-.2-.29-.04-.06-.13-.16-.26-.31-.09-.1-.2-.23-.34-.37l-.05-.06c-.33-.36-.81-.56-1.53-.64-.13-.01-.25-.02-.37-.02h0ZM68,104.19c1.59-1.76,2.27-2.47,2.57-2.75.88-.87,1.46-1.34,1.82-1.59-.1.56-.39,1.2-.87,1.89-.69,1-1.8,1.9-3.3,2.67l-.08.04-.07.05c-.16.12-.33.21-.52.29.01-.01.03-.03.04-.05l.02-.02.02-.02c.14-.19.27-.36.37-.51h0Z"/>
      </g>
      <g>
        <path class="cls-3" d="M81.2,109.83c-.71,0-1.36-.39-1.9-1.15-.49-.69-.79-1.56-.9-2.57v-.05s0-.05,0-.05c.1-.96.18-1.64.23-2.04.9-4.1,1.49-6.45,1.8-7.23.18-.44.55-.69,1.02-.69.19,0,.4.04.63.12.63.23,1.17.68,1.61,1.34.3.32.44.87.36,1.55-.07.57-.35,1.73-.86,3.54-.48,1.71-.71,2.97-.66,3.77-.1,1.24-.21,2.02-.31,2.48-.19.82-.6.99-.9.99,0,0-.1,0-.11,0ZM84.51,94.29c-.21,0-.43-.07-.67-.21-.34-.08-.71-.32-1.16-.76-.57-.55-.77-.85-.77-1.15-.05-.57.04-1.33.28-2.29.29-1.12.81-1.71,1.55-1.75h0c.26,0,.7.07,1.94.56l.18.07.08.18c.74,1.55.93,2.77.56,3.72-.25.66-.77,1.17-1.53,1.49-.14.08-.3.13-.47.13Z"/>
        <path class="cls-1" d="M83.76,88.64c.28,0,.85.18,1.73.53,1.13,2.36.88,3.88-.75,4.55-.07.05-.14.07-.23.07-.14,0-.3-.06-.48-.19-.25-.02-.58-.24-1-.64-.41-.4-.62-.66-.62-.79-.05-.55.04-1.27.26-2.16.23-.89.59-1.35,1.09-1.37M81.45,96.54c.13,0,.29.03.46.09.53.19.98.57,1.35,1.15.25.28.34.68.28,1.22-.06.54-.35,1.69-.85,3.46-.5,1.77-.73,3.08-.68,3.93-.1,1.13-.2,1.91-.3,2.33-.09.4-.23.6-.42.6-.01,0-.02,0-.03,0-.6,0-1.12-.31-1.56-.94-.44-.63-.71-1.4-.81-2.33.1-.95.18-1.63.23-2.03.88-3.99,1.47-6.36,1.77-7.11.1-.25.28-.38.55-.38M83.76,87.64h-.05c-.68.04-1.58.43-2.01,2.13-.25,1-.35,1.81-.29,2.47.03.49.35.89.92,1.45.48.47.91.75,1.32.86.29.16.57.24.86.24.25,0,.48-.06.69-.18.88-.38,1.47-.98,1.77-1.76.42-1.09.23-2.43-.58-4.11l-.17-.35-.36-.14c-1.32-.53-1.8-.6-2.1-.6h0ZM81.45,95.54h0c-.68,0-1.23.38-1.48,1.01-.21.52-.62,1.83-1.82,7.27v.04s-.02.05-.02.05c-.05.41-.13,1.09-.23,2.05v.11s0,.11,0,.11c.12,1.09.45,2.04.98,2.8.76,1.09,1.66,1.35,2.31,1.37h0s.1,0,.1,0c.4,0,1.11-.18,1.39-1.37.11-.48.22-1.29.32-2.47v-.07s0-.07,0-.07c-.03-.51.06-1.54.64-3.6.69-2.45.83-3.24.88-3.62.09-.8-.07-1.45-.48-1.94-.49-.73-1.1-1.23-1.82-1.48-.29-.1-.55-.15-.8-.15h0Z"/>
      </g>
      <g>
        <path class="cls-3" d="M89.48,110.22c-.5,0-1.04-.19-1.66-.57-.64-.49-1.15-1.07-1.54-1.75-.43-.73-.61-1.26-.57-1.67.02-.27.04-.46.04-.58,0-.04,0-.1-.02-.19-.09-.1-.19-.25-.21-.44l-.02-.21.14-.21v-.25l.06-.02c-.04-.24-.04-.65.16-1.5.17-.73.37-1.4.61-1.98.73-1.67,1.52-2.95,2.36-3.84,1.23-1.39,2.27-2.24,3.16-2.57.51-.21,1.01-.32,1.49-.32.65,0,1.26.2,1.81.59,1.55.46,2.51,1.35,2.86,2.66.51,2.02.12,4.29-1.13,6.75-.88,1.76-1.89,3.13-3.02,4.08-1.14.97-2.57,1.63-4.25,1.97-.11.01-.18.02-.25.02ZM93.54,98.67c-.38,0-.83.29-1.31.83-.55.59-.95,1.17-1.2,1.72-.26.58-.56,1.52-.89,2.79-.26,1.01-.24,1.7.05,1.87.05.03.08.04.13.04h0c.17,0,.82-.16,2.18-2.18.94-1.32,1.41-2.79,1.38-4.38-.01-.39-.06-.58-.09-.66-.1-.03-.17-.04-.25-.04Z"/>
        <path class="cls-1" d="M93.46,94.64c.57,0,1.1.18,1.58.55,1.43.4,2.29,1.18,2.6,2.33.48,1.91.11,4.04-1.09,6.4-.85,1.71-1.82,3.02-2.9,3.93-1.08.92-2.42,1.54-4.03,1.86-.05,0-.1,0-.15,0-.4,0-.86-.17-1.39-.5-.55-.43-1.01-.95-1.37-1.58-.36-.63-.53-1.09-.51-1.37.02-.29.04-.49.04-.62s-.03-.28-.08-.45c-.15-.13-.19-.23-.13-.3.06-.08.09-.13.09-.15.2-.05.23-.19.08-.41-.08-.2-.03-.66.13-1.37s.36-1.35.58-1.9c.7-1.6,1.45-2.83,2.26-3.69,1.18-1.33,2.17-2.14,2.97-2.45.46-.19.9-.28,1.31-.28M90.31,106.43c.65,0,1.51-.8,2.59-2.4,1-1.4,1.49-2.96,1.47-4.67-.03-.68-.14-1.04-.34-1.09-.16-.07-.33-.1-.49-.1-.53,0-1.1.33-1.69,1-.58.63-1,1.24-1.28,1.84-.28.6-.58,1.56-.92,2.88-.34,1.32-.24,2.13.28,2.43.12.07.24.1.38.1M93.46,93.64h0c-.54,0-1.11.12-1.69.36-.94.35-2.04,1.24-3.34,2.71-.87.92-1.67,2.22-2.43,3.95-.26.62-.47,1.32-.64,2.08-.12.51-.18.9-.19,1.22h-.04v.51c-.1.19-.14.39-.12.6.02.21.1.42.23.6,0,.11-.01.28-.03.52-.05.52.15,1.12.64,1.96.43.74.97,1.37,1.63,1.87l.04.03.04.03c.7.44,1.33.65,1.92.65.09,0,.18,0,.27-.02h.04s.04-.01.04-.01c1.77-.36,3.27-1.06,4.47-2.08,1.18-1,2.23-2.43,3.14-4.25,1.31-2.56,1.7-4.95,1.17-7.09-.27-1.03-1.03-2.35-3.12-3-.62-.42-1.3-.63-2.03-.63h0ZM90.45,105.34c-.02-.19,0-.55.16-1.2.32-1.25.61-2.16.86-2.71.23-.5.6-1.04,1.11-1.58.36-.41.62-.57.78-.64,0,.05,0,.12.01.19.02,1.48-.4,2.81-1.28,4.05-.87,1.28-1.39,1.74-1.63,1.9h0Z"/>
      </g>
      <g>
        <path class="cls-3" d="M108.47,110.46c-.57,0-1.1-.18-1.57-.53-.51-.51-.77-1.23-.83-2.24-.35.22-1.08.65-2.2,1.29l-.06.03-.06.02c-.69.19-1.24.28-1.65.28-.06,0-.11,0-.17,0-.47-.03-.96-.22-1.46-.58-.83-.51-1.36-1.43-1.56-2.7-.19-1.2-.03-2.57.47-4.07.81-1.94,2.01-3.73,3.58-5.34.12-.12.34-.3,1.13-.73,1.17-.64,2.22-.97,3.12-.97.64,0,1.22.16,1.72.48.13.03.23.04.32.04.08,0,.11-.01.12-.01,0,0,.14-.16.4-.83.75-2.06,1.48-3.95,2.17-5.61.69-1.67,1.08-2.64,1.18-2.9l.22-.6c.08-.21.16-.36.27-.46l.08-.08,1.17-.38c.1-.03.2-.05.31-.05.34,0,.71.16,1.11.49.46.39.74.78.87,1.2l.02.07v.08c0,.9-.52,2.58-1.6,5.12-1.03,2.44-1.67,4-1.89,4.65-.23.68-.44,1.25-.63,1.72l-.45,1.11c-.1.25-.2.56-.28.92-.1.42-.4,1.28-.95,2.62-.6,1.72-.96,3-1.06,3.8-.09.79-.06,1.64.11,2.54,0,.57-.29,1.01-.89,1.41l-.06.04-.07.02c-.33.11-.65.16-.95.16ZM105.36,104.25c.34,0,.91.18.91,1.38,0,.11,0,.2.02.29.14-.72.33-1.6.58-2.66.44-1.89.75-3.05.97-3.53.08-.33.1-.53.1-.63-.08-.02-.22-.05-.46-.06-.62,0-1.72.58-3.5,3.35-1.19,1.85-1.22,2.62-1.13,2.92.12-.02.37-.09.85-.35.17-.09.66-.3,1.47-.66l.1-.04h.1Z"/>
        <path class="cls-1" d="M115.18,85.01c.22,0,.49.13.79.38.38.31.61.63.71.96,0,.83-.52,2.47-1.56,4.93-1.04,2.46-1.67,4.02-1.9,4.68-.23.66-.43,1.23-.62,1.69-.19.46-.34.83-.45,1.11-.11.28-.21.61-.3,1-.09.39-.4,1.24-.92,2.54-.63,1.78-.99,3.09-1.09,3.93-.1.84-.06,1.74.11,2.69,0,.3-.23.6-.68.9-.28.09-.54.13-.8.13-.46,0-.88-.14-1.27-.43-.43-.43-.64-1.18-.64-2.26.1-.75.36-2.05.79-3.89.43-1.84.74-2.99.94-3.44.15-.6.18-.98.09-1.13-.09-.15-.38-.24-.88-.26-.01,0-.02,0-.03,0-1.07,0-2.38,1.19-3.92,3.57-1.08,1.68-1.46,2.85-1.13,3.5.06.13.18.2.36.2.26,0,.64-.14,1.15-.42.15-.08.63-.29,1.43-.64.28,0,.41.3.41.88s.15.97.45,1.15c.08.1-.06.26-.4.47-.34.21-1.07.65-2.2,1.3-.65.18-1.15.27-1.52.27-.05,0-.09,0-.13,0-.38-.02-.78-.19-1.2-.49-.73-.45-1.18-1.24-1.35-2.37-.18-1.13-.03-2.41.45-3.84.78-1.86,1.93-3.57,3.46-5.15.13-.13.46-.34,1.02-.64,1.1-.6,2.06-.9,2.88-.9.58,0,1.09.15,1.52.45.2.05.37.07.52.07.18,0,.31-.03.4-.1.16-.13.36-.48.58-1.05.75-2.06,1.47-3.93,2.16-5.61.69-1.68,1.08-2.65,1.18-2.92.1-.26.18-.46.23-.6.05-.14.1-.23.15-.28l1.05-.34s.1-.02.15-.02M115.18,84.01c-.15,0-.3.02-.44.06l-1.07.35-.23.07-.17.17c-.16.16-.28.36-.38.65-.05.13-.12.33-.22.59-.07.18-.33.83-1.18,2.89-.68,1.66-1.42,3.56-2.18,5.64-.09.22-.16.37-.21.48-.56-.33-1.19-.49-1.88-.49-1,0-2.1.34-3.36,1.03-.84.46-1.09.66-1.24.81-1.62,1.67-2.86,3.51-3.68,5.48v.03s-.03.04-.03.04c-.53,1.58-.69,3.02-.49,4.31.22,1.41.82,2.44,1.79,3.05.57.4,1.14.62,1.69.65.06,0,.13,0,.2,0,.46,0,1.05-.1,1.79-.3l.12-.03.11-.06c.63-.37,1.15-.67,1.54-.9.14.73.41,1.3.83,1.72l.05.05.06.04c.56.42,1.19.63,1.87.63.36,0,.73-.06,1.11-.18l.13-.04.12-.08c.75-.5,1.12-1.08,1.12-1.73v-.09l-.02-.09c-.16-.85-.19-1.65-.1-2.39.09-.76.44-2.01,1.04-3.72.72-1.78.89-2.37.95-2.65.07-.33.16-.62.25-.84l.45-1.11c.19-.48.4-1.05.64-1.75.22-.64.85-2.19,1.87-4.62,1.47-3.47,1.64-4.7,1.64-5.32v-.15l-.04-.14c-.16-.51-.5-.99-1.03-1.43-.5-.41-.96-.61-1.43-.61h0ZM103.42,104.52c.13-.39.4-.99.97-1.87,1.65-2.56,2.59-3.03,2.96-3.1,0,.02,0,.04-.01.06-.15.37-.42,1.18-.96,3.54-.07.31-.14.61-.2.89-.33-.26-.7-.29-.82-.29h-.21l-.19.08c-1.1.48-1.36.6-1.48.66-.02.01-.04.02-.05.03h0Z"/>
      </g>
      <g>
        <path class="cls-3" d="M115.83,109.79c-.52,0-.99-.25-1.38-.74-.33-.33-.54-.91-.62-1.76-.07-.78,0-1.33.19-1.71l.12-.64c0-.22.06-.58.33-1.37.55-1.26,1.25-3.29,2.09-6.06.02-.27.17-.82,1-.9.1-.03.19-.04.3-.04.36,0,.74.16,1.16.5.45.36.83.77,1.14,1.23.67.74.14,1.91-.03,2.3-.37.82-.63,1.64-.77,2.42v.06s-.04.05-.04.05c-.29.66-.49,1.14-.58,1.44-.09.29-.2.79-.32,1.48-.13.73-.27,1.22-.44,1.52-.27,1.1-.76,1.8-1.47,2.08-.23.09-.45.14-.68.14ZM119.67,94.4c-.39,0-.72-.1-.99-.29-.36-.26-.65-.58-.85-.97-.2-.39-.3-.72-.3-1,0-.31.09-.59.27-.83.04-.05.17-.27.53-1.04.71-1.39,1.04-1.79,1.34-1.91.21-.12.45-.18.71-.18.29,0,.6.07.95.22.64.27,1.11.65,1.42,1.14.57,1.25.34,2.45-.64,3.63-.43.58-1.01.96-1.7,1.12-.26.06-.51.1-.73.1Z"/>
        <path class="cls-1" d="M120.38,88.69c.22,0,.47.06.76.18.54.23.93.54,1.19.94.45,1,.25,2.02-.6,3.05-.38.5-.85.82-1.43.96-.23.05-.43.08-.62.08-.28,0-.52-.06-.7-.19-.3-.21-.53-.48-.7-.79-.16-.31-.24-.57-.24-.77s.06-.38.17-.53c.11-.15.31-.53.58-1.13.55-1.08.92-1.63,1.09-1.65.14-.09.31-.14.5-.14M117.86,97.07c.24,0,.52.13.85.39.43.34.78.72,1.05,1.15.33.33.29.92-.09,1.79-.39.86-.66,1.71-.81,2.54-.3.68-.5,1.17-.6,1.49-.1.31-.21.83-.34,1.54-.13.72-.26,1.19-.41,1.41-.23.98-.62,1.58-1.18,1.81-.17.07-.33.1-.49.1-.37,0-.7-.18-1-.55-.28-.28-.45-.77-.51-1.49-.06-.72,0-1.21.17-1.49l.15-.79c-.03-.15.08-.56.3-1.24.55-1.25,1.25-3.3,2.11-6.13,0-.3.2-.46.6-.49.06-.02.13-.03.2-.03M120.38,87.69h0c-.33,0-.64.07-.91.22-.47.19-.87.74-1.57,2.12-.37.8-.48.97-.5.99-.24.32-.36.7-.36,1.12,0,.37.12.77.36,1.23.24.45.57.84,1.01,1.14.35.25.78.38,1.28.38.26,0,.55-.04.85-.11.8-.19,1.48-.64,2-1.33,1.36-1.63,1.14-3.11.71-4.06l-.03-.06-.04-.06c-.36-.58-.92-1.03-1.65-1.33-.41-.17-.79-.26-1.14-.26h0ZM117.86,96.07h0c-.13,0-.26.02-.39.05-.94.11-1.34.72-1.4,1.29-.82,2.73-1.51,4.72-2.03,5.91l-.02.04v.04c-.28.8-.37,1.2-.37,1.49l-.1.52c-.22.46-.28,1.08-.21,1.91.08.94.33,1.61.76,2.07.61.73,1.28.89,1.74.89.28,0,.57-.06.86-.17.85-.34,1.44-1.13,1.75-2.36.18-.35.33-.86.46-1.61.15-.83.25-1.22.31-1.41.06-.19.21-.59.56-1.38l.05-.11.02-.12c.14-.75.38-1.52.74-2.31.55-1.22.54-2.17-.03-2.82-.33-.49-.74-.93-1.22-1.31-.52-.41-1-.61-1.47-.61h0Z"/>
      </g>
      <g>
        <path class="cls-3" d="M126.25,108.22c-.47,0-.86-.17-1.15-.48-.28-.23-.63-.78-1.26-2.77-.48-1.52-.8-2.76-.96-3.7-.15-.88-.37-1.78-.66-2.65-.16-.55-.12-1.13.12-1.74.24-.6.58-1.04.99-1.29.14-.11.42-.19.87-.24.22-.03.41-.04.55-.04.13,0,.23.01.3.03.65.23,1.26.98,1.9,5,.05.47.1.9.15,1.29.11.59.18.95.21,1.04.02.05.04.15.07.29.34-.39.96-1.17,2.05-2.75.91-1.29,1.64-2.21,2.25-2.79.66-.63,1.12-.96,1.49-1.06.17-.03.29-.04.4-.04.67,0,1.16.39,1.33,1.06.17.69-.03,1.45-.62,2.28-.14.19-.28.43-.43.73-.17.35-.33.67-.5.98-.18.33-.63.99-1.39,2.02-1.01,1.37-1.26,1.67-1.37,1.77-.15.15-.32.31-.53.49-.74.62-1.05,1-1.19,1.21l-.03.04-.04.04c-.64.64-1.3,1.05-1.97,1.21-.21.05-.41.08-.59.08Z"/>
        <path class="cls-1" d="M124.75,95.81c.09,0,.15,0,.2.02.55.2,1.05,1.73,1.5,4.59.05.45.1.88.15,1.28.13.68.2,1.05.23,1.13.02.08.06.26.11.55.05.29.11.43.19.43.28,0,1.18-1.1,2.71-3.31.88-1.25,1.6-2.16,2.18-2.71.58-.55,1-.86,1.28-.94.09-.02.18-.02.27-.02.45,0,.73.23.84.68.14.54-.04,1.16-.55,1.86-.15.2-.31.47-.47.81-.16.34-.33.66-.49.96-.16.3-.61.95-1.35,1.96-.74,1-1.18,1.57-1.32,1.71-.14.14-.31.3-.51.47-.63.53-1.05.97-1.28,1.32-.58.58-1.15.93-1.73,1.07-.17.04-.33.06-.47.06-.34,0-.61-.11-.8-.34-.28-.2-.65-1.05-1.13-2.56-.48-1.51-.79-2.71-.94-3.63-.15-.92-.38-1.82-.68-2.73-.13-.43-.09-.89.11-1.39s.46-.85.79-1.05c.1-.07.32-.13.66-.17.2-.02.37-.03.49-.03M124.75,94.81c-.17,0-.36.01-.6.04-.51.06-.85.16-1.1.33-.5.32-.89.83-1.16,1.52-.29.71-.33,1.4-.14,2.05.29.88.51,1.75.65,2.61.16.96.49,2.23.97,3.77.62,1.96,1.01,2.65,1.39,2.98.38.4.9.62,1.5.62.22,0,.46-.03.71-.09.76-.18,1.5-.63,2.21-1.34l.08-.08.06-.09c.1-.15.37-.49,1.08-1.09.23-.2.42-.38.57-.53.14-.14.4-.45,1.42-1.83,1.03-1.4,1.31-1.85,1.43-2.07.17-.32.34-.65.51-1,.16-.34.29-.54.37-.64.69-.97.93-1.87.71-2.71-.23-.9-.91-1.44-1.81-1.44-.14,0-.28.01-.43.04h-.05s-.05.02-.05.02c-.46.13-.97.48-1.71,1.18-.63.6-1.39,1.54-2.31,2.86-.59.86-1.04,1.47-1.37,1.91-.02-.08-.03-.18-.05-.28-.05-.39-.1-.8-.15-1.23-.65-4.1-1.3-5.11-2.16-5.42l-.07-.03h-.07c-.12-.04-.25-.05-.4-.05h0Z"/>
      </g>
      <g>
        <path class="cls-3" d="M138.73,110.55c-2.18,0-4.79-.94-4.79-5.39,0-1.91.65-4.05,1.94-6.38,1.82-3.27,3.83-4.92,5.97-4.92,3.9,0,4.71,2.17,4.71,4,0,1.32-.6,2.71-1.79,4.16-1.21,1.47-2.48,2.21-3.77,2.21-1.02,0-1.93-.27-2.69-.8-.22.52-.33.95-.33,1.28,0,.5,0,.83.02.97.01.13.05.31.12.55.06.2.14.31.44.31.44,0,.79-.04,1.05-.11.33-.1.49-.17.56-.2.12-.07.32-.2.58-.4.31-.23.57-.4.8-.54.21-.12.41-.25.61-.37.19-.12.33-.21.4-.25.25-.15.43-.22.58-.26h.06s.06-.01.06-.01c.48,0,.93.14,1.34.43.58.4.71.87.71,1.18,0,.42-.25.92-.79,1.59-.49.62-1.02,1.07-1.57,1.33l-.3.16c-.31.37-.65.56-1.01.56h-.06c-.22.21-.56.39-1.07.57-.62.22-1.21.33-1.77.33ZM139.88,99.78c.15.13.28.3.39.47.11.16.23.23.41.23.54,0,.99-.23,1.35-.71.49-.63.59-1.02.59-1.24,0-.14-.01-.85-.25-.85-.31,0-.69.17-1.13.5-.48.36-.9.85-1.27,1.44l-.1.16Z"/>
        <path class="cls-1" d="M141.85,94.36c2.81,0,4.21,1.17,4.21,3.5,0,1.2-.56,2.48-1.67,3.84-1.12,1.35-2.25,2.03-3.39,2.03s-2.1-.36-2.88-1.09c-.43.85-.64,1.54-.64,2.07s0,.86.02,1.02c.01.15.06.36.13.64.13.45.43.68.92.68s.88-.04,1.18-.13c.3-.09.52-.17.66-.24.14-.08.35-.22.64-.43.29-.21.54-.38.75-.51.21-.13.42-.25.62-.38.2-.13.34-.21.41-.26.18-.1.31-.16.41-.19.38,0,.73.11,1.05.34.33.23.49.48.49.77s-.23.72-.68,1.28c-.45.56-.92.96-1.39,1.19l-.41.23c-.23.3-.45.45-.68.45h-.3c-.1.2-.43.4-1,.6-.56.2-1.1.3-1.6.3-2.86,0-4.29-1.63-4.29-4.89,0-1.83.63-3.88,1.88-6.13,1.73-3.11,3.57-4.67,5.53-4.67M139.07,100.15c.1-.05.21-.08.32-.08s.27.15.47.45c.2.3.48.45.83.45.7,0,1.28-.3,1.75-.9.46-.6.7-1.11.7-1.54,0-.9-.25-1.35-.75-1.35-.43,0-.9.2-1.43.6-.53.4-.99.93-1.39,1.58l-.49.79M141.85,93.36c-2.34,0-4.49,1.74-6.4,5.18-1.33,2.4-2.01,4.62-2.01,6.62,0,3.8,1.88,5.89,5.29,5.89.61,0,1.26-.12,1.93-.36.47-.17.83-.35,1.09-.55.33-.03.77-.18,1.2-.66l.22-.12c.6-.29,1.18-.78,1.72-1.45.62-.77.9-1.36.9-1.9,0-.44-.16-1.07-.92-1.59-.42-.29-.89-.46-1.38-.51.57-.39,1.13-.91,1.67-1.57,1.26-1.53,1.9-3.04,1.9-4.47,0-1.68-.68-4.5-5.21-4.5h0ZM140.51,99.73c.31-.47.66-.86,1.04-1.15.24-.18.43-.28.56-.34,0,.08.01.17.01.29,0,.05-.02.33-.49.93-.27.36-.57.51-.96.51-.04-.07-.1-.16-.18-.25h0ZM138.59,106.04c-.07-.27-.08-.37-.08-.4,0-.07-.02-.28-.02-.94,0-.1.02-.28.09-.54.72.37,1.53.56,2.43.56.19,0,.38-.01.58-.04-.1.06-.2.12-.3.18-.24.14-.51.32-.84.56-.34.25-.48.34-.53.36-.01,0-.13.06-.46.16-.14.04-.4.09-.87.09h0Z"/>
      </g>
      <g>
        <path class="cls-3" d="M150.34,109.11c-.2,0-.46-.04-.81-.13-.54-.14-.84-.27-1-.45-.79-.7-1.44-1.94-.13-3.87.13-.26.46-1.16.96-2.61.58-1.7.77-2.23.85-2.43.04-.42-.02-.55-.03-.56-.01,0-.08-.05-.24-.06h0c-.35,0-1.25-.17-1.25-1.7.09-.93.46-1.59,1.09-2,.49-.26,1.07-.39,1.81-.4h.11c.72,0,1.25.14,1.63.42.25.19.53.56.81,1.82.07-.07.14-.15.22-.23.43-.47.74-.8.92-.97,1.38-.99,2.31-1.43,2.99-1.43.35,0,.76.15,1.24.45.48.3.8.6.96.9.76,1.31.84,2.36.26,3.11-.82.99-1.71,1.48-2.67,1.48-.19,0-.38-.02-.58-.06-.37-.07-.61-.43-.79-.78-.04-.07-.07-.13-.1-.19-.07.08-.16.17-.26.27-.58.62-.93.98-1.03,1.08-.52.63-1.19,1.76-1.96,3.31-.78,1.58-1.28,2.62-1.47,3.11-.21.53-.39.91-.53,1.18-.2.36-.41.58-.65.67-.1.04-.21.06-.35.06Z"/>
        <path class="cls-1" d="M158.25,95c.25,0,.58.13.98.38.4.25.66.49.79.72.65,1.13.75,1.98.3,2.56-.71.86-1.47,1.29-2.27,1.29-.16,0-.32-.02-.48-.05-.13-.02-.28-.2-.45-.53-.18-.33-.28-.58-.3-.75,0-.02,0-.03-.02-.03-.08,0-.36.26-.84.77-.58.62-.92.97-1.02,1.07-.58.7-1.26,1.85-2.05,3.44-.79,1.59-1.29,2.64-1.49,3.14s-.37.88-.51,1.13c-.14.25-.27.4-.4.45-.04.02-.09.02-.16.02-.15,0-.38-.04-.69-.12-.44-.11-.7-.22-.77-.32-.95-.83-.98-1.9-.08-3.24.18-.35.51-1.26,1.02-2.73.5-1.47.79-2.29.87-2.47.05-.43.02-.73-.08-.92-.1-.19-.31-.3-.64-.32-.53,0-.79-.4-.79-1.2.08-.73.36-1.25.87-1.58.38-.2.89-.31,1.54-.32.03,0,.07,0,.1,0,.6,0,1.04.11,1.33.32.3.23.56,1.04.79,2.45.18-.15.48-.46.9-.92.43-.46.73-.78.9-.96,1.2-.85,2.08-1.28,2.63-1.28M158.25,94c-.79,0-1.78.45-3.21,1.46l-.07.05-.06.06c-.12.12-.3.31-.53.56-.23-.68-.48-1-.76-1.21-.47-.35-1.1-.52-1.93-.52h-.12c-.82.02-1.47.16-1.99.44l-.04.02-.04.02c-.53.34-1.18,1.02-1.31,2.32v.05s0,.05,0,.05c0,1.72,1,2.1,1.53,2.18,0,0,0,.02,0,.03-.09.23-.29.79-.83,2.38-.56,1.65-.82,2.3-.94,2.55-1.52,2.29-.53,3.75.24,4.45.28.29.69.44,1.23.58.4.1.69.15.93.15.2,0,.37-.03.53-.1.46-.19.73-.6.9-.9.16-.29.34-.7.56-1.24.19-.47.68-1.51,1.45-3.07.74-1.49,1.38-2.57,1.9-3.22.12-.12.39-.4.8-.85.21.29.5.56.9.63.21.04.44.07.66.07,1.11,0,2.13-.56,3.04-1.65.74-.95.67-2.18-.2-3.7-.2-.37-.56-.71-1.12-1.06-.58-.36-1.06-.53-1.51-.53h0Z"/>
      </g>
      <g>
        <path class="cls-3" d="M164.72,110.13c-1.49,0-2.62-.5-3.34-1.48-.47-.98-.49-1.79-.11-2.49.23-.46.58-.53.77-.53.25,0,.48.11.72.34.24.13.51.2.82.2.42,0,.93-.02,1.53-.05.73-.05.93-.17.96-.2.11-.08.13-.13.13-.13,0,0,0-.01-.01-.03-1.02-.27-1.99-.71-2.9-1.33-1.01-.68-1.61-1.44-1.79-2.24-.17-.76-.1-1.64.22-2.6.31-.94.79-1.78,1.44-2.51l.04-.05.05-.04c1.31-.86,1.69-1.09,1.85-1.16.8-.81,2.04-1.5,3.79-2.09l.05-.02h.05c1.09-.14,1.34-.16,1.45-.16h.11l.1.04c.4.18.77.29,1.1.34.52.07,1.04.46,1.59,1.19.54.72.78,1.43.7,2.13-.07.64-.31,1.28-.72,1.89-.35.53-.71.87-1.1,1.05l-.05.1h-.29s-.93.26-.93.26l.26-.55-.63.32v-.81s-.01-.08-.13-.29c-.17-.31-.24-.68-.21-1.09.01-.14.02-.26.03-.35h-.04c-.13-.04-.26-.05-.4-.05-.56,0-1.18.25-1.83.74-.89.61-1.23.9-1.36,1.03-.11.11-.3.37-.55.95-.33.51-.34.66-.34.67h0s.23.4,2.25,1.23c.66.27,1.1.59,1.34.99.2.32.33.54.38.64.38.76.48,1.05.5,1.22.15.44.23.77.23,1.02.26.53.34,1.37-.71,2.36-.75.71-1.61,1.15-2.55,1.31-.87.15-1.71.23-2.49.23Z"/>
        <path class="cls-1" d="M170.48,94.06c.45.2.87.33,1.24.38.38.05.8.38,1.26,1,.46.62.66,1.2.6,1.77-.06.56-.28,1.12-.64,1.67-.34.52-.69.83-1.05.93,0-.02-.04-.05-.13-.1-.3-.15-.46-.24-.49-.26l-.15.08c0-.13-.06-.3-.19-.53-.13-.23-.18-.49-.15-.81.02-.31.04-.5.04-.56s0-.12.02-.17c.01-.05,0-.09-.06-.11-.15-.02-.29-.04-.41-.04-.17-.03-.33-.05-.5-.05-.68,0-1.39.28-2.13.84-.73.5-1.2.86-1.41,1.07-.21.21-.43.58-.66,1.11-.25.38-.38.66-.38.87,0,.43.85.99,2.56,1.69.55.23.92.49,1.11.79.19.3.31.5.36.6.3.6.45.97.45,1.09.2.6.26.94.19,1.02,0,.03.02.06.08.11.28.55.08,1.15-.6,1.79-.68.64-1.44,1.03-2.3,1.18-.85.15-1.66.23-2.41.23-1.33,0-2.31-.43-2.93-1.28-.35-.75-.38-1.4-.08-1.96.09-.18.2-.27.33-.27.12,0,.26.08.42.24.33.2.7.3,1.13.3s.95-.02,1.56-.06c.61-.04,1.03-.14,1.24-.3.21-.16.32-.33.32-.51s-.08-.34-.23-.49c-1.03-.25-1.99-.68-2.9-1.3s-1.43-1.26-1.58-1.94c-.15-.68-.08-1.45.21-2.33.29-.88.73-1.65,1.34-2.33,1.1-.73,1.71-1.1,1.81-1.13v.04c.73-.8,1.97-1.51,3.72-2.11.8-.1,1.27-.15,1.39-.15M171.89,99.8s-.02.01-.06.01c.02,0,.04,0,.06-.01M170.69,93.06h-.21c-.12,0-.34.01-1.52.16h-.1s-.1.05-.1.05c-1.78.61-3.06,1.32-3.92,2.15-.24.12-.71.41-1.84,1.16l-.11.07-.09.1c-.69.78-1.21,1.68-1.54,2.68-.34,1.05-.42,2.01-.23,2.86.21.93.88,1.79,1.99,2.55.45.31.93.58,1.41.8-.32.01-.6.02-.85.02-.21,0-.38-.04-.53-.11-.32-.28-.66-.42-1.02-.42-.25,0-.86.08-1.23.83-.3.55-.55,1.52.06,2.83l.04.09.06.08c.82,1.12,2.08,1.69,3.74,1.69.81,0,1.68-.08,2.58-.24,1.04-.18,1.99-.67,2.81-1.44,1.25-1.18,1.12-2.24.87-2.83-.02-.34-.13-.7-.24-1.04-.05-.25-.18-.61-.54-1.32-.06-.12-.19-.35-.4-.68-.31-.49-.82-.88-1.58-1.19-1.08-.44-1.6-.75-1.83-.92.03-.05.06-.1.1-.16l.05-.08.04-.08c.24-.57.4-.75.45-.8.08-.07.35-.32,1.27-.95.56-.42,1.04-.64,1.47-.66-.01.45.08.87.28,1.23.03.06.05.1.06.12v1.54l.05-.02-.1.21,1.97-.53c.08-.01.16-.04.23-.07.56-.18,1.05-.61,1.51-1.31.45-.68.72-1.39.8-2.11.09-.83-.18-1.66-.8-2.48-.64-.84-1.27-1.3-1.93-1.39-.28-.04-.61-.14-.97-.3l-.19-.09h0Z"/>
      </g>
      <g>
        <path class="cls-3" d="M175.27,108.63l-1.45-.58-.2-.79c-.66-.42-.91-1.03-.68-1.73l.02-.05.03-.04c.34-.58.97-1.96,1.87-4.1,1.04-2.46,1.39-3.34,1.49-3.63.02-.86.42-1.29.76-1.5.23-.17.52-.27.81-.27.46,0,.91.25,1.34.74.61.69.91,1.59.91,2.66,0,.26-.1.8-.88,2.76-.56,1.42-1.13,2.71-1.69,3.84-.76,1.54-1.03,1.96-1.16,2.13-.36.48-.77.58-1.06.58h-.1ZM180.49,94.22c-.64,0-1.31-.34-2.05-1.04-.74-.7-1.12-1.46-1.12-2.28,0-.19.05-.42.74-1.46.37-.57.52-.81.58-.91v-.39h.5c.5,0,1.05.14,1.62.43l.17.08.07.17c.07.18.29.56.91,1.35.6.78.9,1.4.9,1.92,0,1.37-.82,2.12-2.31,2.12Z"/>
        <path class="cls-1" d="M179.13,88.64c.43,0,.89.13,1.39.38.13.3.45.79.98,1.47.53.68.79,1.22.79,1.62,0,1.08-.6,1.62-1.81,1.62-.5,0-1.07-.3-1.71-.9-.64-.6-.96-1.24-.96-1.92,0-.13.22-.52.66-1.18.44-.66.66-1.02.66-1.07M177.9,96.42c.31,0,.64.19.97.57.53.6.79,1.38.79,2.33,0,.3-.28,1.16-.85,2.58s-1.12,2.68-1.67,3.8c-.55,1.12-.92,1.8-1.11,2.05-.19.25-.41.38-.66.38l-1.13-.45-.19-.75c-.6-.3-.82-.72-.64-1.24.35-.6.98-1.99,1.9-4.16.92-2.17,1.42-3.42,1.52-3.74,0-.55.18-.94.53-1.17.18-.13.35-.19.54-.19M179.13,87.64h-1v.76c-.08.13-.22.36-.49.77-.71,1.07-.82,1.39-.82,1.74,0,.96.43,1.85,1.27,2.65.84.79,1.62,1.18,2.4,1.18,1.76,0,2.81-.98,2.81-2.62,0-.64-.32-1.35-1-2.23-.66-.84-.81-1.16-.84-1.24l-.14-.34-.33-.17c-.64-.32-1.26-.48-1.84-.48h0ZM177.9,95.42c-.39,0-.76.12-1.1.37-.42.28-.9.81-.96,1.81-.11.3-.45,1.16-1.45,3.53-1.11,2.64-1.62,3.65-1.84,4.04l-.05.09-.03.1c-.29.86-.02,1.65.72,2.2l.09.36.12.5.47.19,1.13.45.18.07h.19c.57,0,1.08-.28,1.46-.78.16-.21.43-.65,1.21-2.21.56-1.14,1.14-2.44,1.71-3.87.85-2.12.92-2.64.92-2.95,0-1.2-.35-2.2-1.04-2.99-.53-.6-1.11-.91-1.72-.91h0Z"/>
      </g>
      <g>
        <path class="cls-3" d="M185.28,110.03c-.33,0-.62-.02-.86-.07-.68-.13-1.32-.53-1.9-1.17-.53-.59-.86-1.11-1.02-1.57l-.13-.2c-.22-.25-.32-.76-.25-2.27.05-1.22.14-2.06.28-2.57.16-.62.58-1.88,1.29-3.84l.78-1.68-.94-.26c-.24-.03-.51-.19-.7-.44-.18-.24-.27-.5-.27-.77s.12-.59.39-1.06c.19-.34.51-.8.98-.8.13,0,.25.01.42.01.19,0,.42,0,.71-.01.74-.01.97-.08,1.02-.1.02,0,.09-.04.16-.21.11-.29.36-.77.79-1.47,1.19-2.32,1.68-2.88,1.96-3.1.42-.33.92-.53,1.48-.59.09,0,.18-.01.27-.01.48,0,.95.15,1.39.43l.08.05.06.08c.49.69.51,1.45.05,2.15-.13.27-.38.68-.72,1.17-.31.46-.55.82-.69,1.09-.07.1-.12.18-.16.25.37-.02.93-.09,1.68-.21.21-.03.4-.05.58-.05,1.12,0,1.83.63,1.99,1.77.07.53.09,1.27-.42,1.59-.22.14-.61.26-2,.26-.75.12-1.54.2-2.27.21-.92.02-1.12.06-1.16.07-.17.04-.3.19-.41.44l-.06.13-.11.07s-.03.06-.1.21c-.16.33-.48.92-.96,1.8-.61,1.79-1.11,3.75-1.45,5.75-.08.53,0,.69,0,.7h0s.18.11.84.18c.13.01.27.02.42.02.98,0,2.06-.35,3.22-1.04l.93-.55c.14-.17.34-.27.55-.27.46,0,.79.44,1.05.88.11.17.21.36.27.55l.03.08v.08c0,1.17-.62,2.11-1.83,2.8-1.06.67-2.21,1.12-3.4,1.32-.73.12-1.36.18-1.87.18Z"/>
        <path class="cls-1" d="M189.75,88.33c.39,0,.76.12,1.12.35.38.53.39,1.05.04,1.58-.15.3-.39.69-.72,1.17-.33.48-.56.85-.71,1.13-.43.6-.49.93-.19.98.06.01.15.02.25.02.38,0,1.04-.07,1.97-.22.18-.03.34-.04.5-.04.87,0,1.37.45,1.5,1.34.08.6.01.97-.19,1.09-.2.13-.78.19-1.73.19-.8.13-1.56.2-2.28.21-.71.01-1.15.04-1.3.09-.3.08-.54.31-.71.72-.08.05-.16.19-.26.41-.15.3-.46.89-.94,1.77-.65,1.91-1.15,3.88-1.51,5.91-.08.5-.05.85.08,1.05.13.2.53.34,1.2.41.15.02.31.02.47.02,1.07,0,2.24-.37,3.48-1.11l1.02-.6c.06-.1.12-.15.2-.15.16,0,.37.21.63.64.1.15.18.3.23.45,0,.98-.53,1.77-1.58,2.37-1.03.65-2.11,1.07-3.24,1.26-.71.12-1.3.18-1.79.18-.29,0-.55-.02-.76-.06-.58-.11-1.12-.45-1.62-1.02-.5-.56-.82-1.05-.94-1.45l-.19-.3c-.15-.13-.2-.77-.15-1.94.05-1.17.14-1.99.26-2.46.15-.6.58-1.87,1.28-3.8l1.02-2.18-1.51-.41c-.18-.02-.32-.11-.43-.26-.11-.15-.17-.31-.17-.47s.11-.43.32-.81c.21-.37.39-.55.55-.55,0,0,0,0,.01,0,.08,0,.22.01.4.01s.43,0,.72-.01c.59-.01.98-.06,1.18-.13.2-.08.35-.24.45-.49.1-.28.35-.74.75-1.39.88-1.71,1.49-2.7,1.84-2.97.35-.28.76-.44,1.22-.49.07,0,.14-.01.21-.01M189.75,87.33c-.11,0-.21,0-.32.02-.65.07-1.23.31-1.73.7-.34.27-.86.87-2.1,3.27-.4.65-.65,1.12-.79,1.46-.12.02-.34.04-.75.05-.29,0-.52.01-.7.01-.15,0-.26,0-.32,0h-.04s-.06,0-.06,0c-.83,0-1.27.79-1.42,1.06-.31.55-.45.94-.45,1.3,0,.38.13.75.37,1.07.26.35.61.57,1.02.64l.31.09-.52,1.11-.02.04v.04c-.74,1.98-1.16,3.26-1.32,3.9-.14.54-.24,1.41-.29,2.66-.07,1.5.02,2.18.35,2.59l.08.12c.19.51.55,1.06,1.1,1.68.65.73,1.38,1.18,2.17,1.33.28.05.59.08.96.08.55,0,1.19-.06,1.96-.19,1.26-.21,2.47-.68,3.61-1.4,1.68-.96,2.04-2.28,2.04-3.21v-.16l-.05-.15c-.08-.23-.19-.47-.34-.69-.18-.3-.65-1.08-1.46-1.08-.33,0-.64.14-.87.38l-.86.51c-1.08.65-2.08.97-2.97.97-.12,0-.24,0-.37-.02-.19-.02-.33-.04-.42-.07,0-.07.01-.15.03-.26.33-1.92.82-3.83,1.44-5.65.46-.86.76-1.42.92-1.72.02-.05.04-.09.05-.12l.12-.08.12-.27c.04-.09.07-.14.09-.16h.02s0,0,0,0c.02,0,.25-.03,1-.05.73-.01,1.52-.08,2.33-.21,1.37,0,1.86-.13,2.18-.34.84-.52.7-1.68.65-2.06-.2-1.39-1.13-2.22-2.49-2.22-.21,0-.43.02-.66.05-.24.04-.45.07-.63.1.09-.13.19-.28.3-.44.34-.49.58-.89.76-1.23.54-.85.51-1.82-.09-2.66l-.11-.15-.16-.1c-.52-.34-1.08-.51-1.67-.51h0Z"/>
      </g>
      <g>
        <path class="cls-3" d="M198.43,109.87c-1.5,0-2.76-.45-3.72-1.34-.98-.89-1.48-2.17-1.48-3.79,0-.59.03-1.22.1-1.89.07-.7.29-1.54.69-2.54.39-.99,1.02-2.07,1.87-3.2.88-1.17,1.84-2,2.86-2.47,1.03-.47,1.9-.7,2.66-.7,1.62,0,2.83.41,3.6,1.23.76.81,1.15,1.6,1.15,2.36v.3c0,.63-.36,1.54-1.12,2.85-.38.69-.98,1.31-1.77,1.84-.81.54-1.63.83-2.44.86-.14,0-.27,0-.41,0-.62,0-1.22-.05-1.78-.15-.86-.15-1.08-.16-1.14-.16-.05.12-.18.42-.18,1.31.06.51.2.91.41,1.09.22.19.49.29.82.29.38,0,.74-.07,1.08-.22.35-.16.79-.45,1.29-.87.64-.54,1.15-.79,1.58-.79s.86.2,1.26.6c.38.38.6.78.63,1.17v.06s0,.05,0,.05c-.09.72-.7,1.54-1.92,2.59-1.18,1.02-2.54,1.53-4.03,1.53ZM198.8,99.77c.12.02.3.04.58.04,1.01,0,1.23-.1,1.25-.11.08-.04.32-.2.97-.85.59-.59.66-.79.67-.81,0-.03,0-.28-.76-.36h-.37c-.05,0-.34.04-1.08.69-.47.41-.9.88-1.27,1.4ZM203.18,93.69c-.61,0-1.63-.3-1.63-2.31l.04-.43c.06-.3.24-.67,1.75-2.28,1.44-1.55,1.97-1.87,2.27-1.97.17-.09.39-.18.59-.24l.07-.02h.07c.47,0,.92.23,1.33.69.4.44.6,1.02.6,1.72,0,.4-.22.95-1.82,2.25-1.31,1.07-1.76,1.56-1.91,1.79-.43.65-.98.79-1.36.79Z"/>
        <path class="cls-1" d="M206.34,86.95c.33,0,.65.18.96.53.31.35.47.82.47,1.39,0,.35-.55.97-1.64,1.86-1.09.89-1.76,1.52-2.01,1.9-.25.38-.56.56-.94.56-.75,0-1.13-.6-1.13-1.81l.04-.38c.05-.23.59-.89,1.62-1.99,1.03-1.1,1.72-1.72,2.07-1.84.2-.1.39-.18.56-.23M201.41,94.44c1.48,0,2.56.36,3.24,1.07.68.72,1.02,1.39,1.02,2.01v.3c0,.53-.35,1.39-1.05,2.6-.35.63-.89,1.18-1.62,1.67-.73.49-1.45.75-2.18.77-.13,0-.27,0-.4,0-.59,0-1.15-.05-1.69-.14-.66-.11-1.07-.17-1.22-.17s-.29.09-.41.26c-.18.28-.26.79-.26,1.54.08.7.27,1.19.58,1.47.31.28.7.41,1.15.41s.88-.09,1.28-.26c.4-.18.87-.49,1.41-.94.54-.45.96-.68,1.26-.68s.6.15.9.45c.3.3.46.59.49.87-.08.58-.66,1.34-1.75,2.28-1.09.94-2.33,1.41-3.71,1.41s-2.51-.4-3.39-1.2c-.88-.8-1.32-1.94-1.32-3.42,0-.58.03-1.19.09-1.84.06-.65.28-1.45.66-2.41.38-.95.98-1.98,1.81-3.09.83-1.1,1.72-1.88,2.67-2.31.95-.44,1.77-.66,2.45-.66M199.38,100.3c.78,0,1.27-.06,1.49-.17.21-.11.58-.43,1.09-.94.51-.51.78-.87.81-1.07,0-.55-.4-.86-1.2-.94h-.41c-.33,0-.8.27-1.41.81-.61.54-1.15,1.16-1.6,1.86.05.3.46.45,1.24.45M206.34,85.95h-.14l-.14.04c-.22.06-.45.15-.69.27-.39.16-.98.55-2.4,2.08-1.6,1.72-1.79,2.12-1.86,2.46v.06s-.02.06-.02.06l-.04.38v.05s0,.05,0,.05c0,.99.24,1.63.55,2.05-.06,0-.13,0-.19,0-.83,0-1.77.25-2.86.75-1.1.51-2.13,1.39-3.05,2.62-.88,1.17-1.53,2.29-1.94,3.32-.42,1.05-.65,1.93-.72,2.68-.07.68-.1,1.33-.1,1.94,0,1.77.55,3.17,1.64,4.16,1.06.97,2.43,1.47,4.06,1.47s3.09-.56,4.36-1.65c1.31-1.13,1.98-2.06,2.09-2.9v-.11s0-.11,0-.11c-.05-.51-.31-1.01-.78-1.48-.42-.42-.88-.67-1.37-.73.27-.13.54-.28.81-.46.86-.58,1.51-1.25,1.93-2.02.8-1.38,1.18-2.36,1.18-3.08v-.3c0-.89-.43-1.8-1.29-2.7-.34-.36-.75-.65-1.23-.87.31-.17.59-.43.81-.77.09-.13.44-.56,1.81-1.68,1.44-1.18,2-1.92,2-2.64,0-.83-.24-1.52-.72-2.06-.51-.57-1.08-.86-1.71-.86h0ZM201.19,98.18h.32s.02,0,.03,0c-.08.08-.17.18-.29.3-.53.53-.76.7-.83.75-.06.01-.22.04-.59.06.18-.19.37-.38.57-.55.49-.43.73-.54.79-.56h0ZM197.82,104.31c0-.33.02-.56.05-.71.16.02.38.06.69.11.59.1,1.22.15,1.86.15.14,0,.29,0,.43,0,.11,0,.23-.01.34-.02-.19.12-.38.27-.59.44-.58.48-.95.7-1.17.79-.28.12-.56.18-.88.18-.27,0-.4-.09-.49-.16-.06-.06-.18-.28-.24-.77h0Z"/>
      </g>
    </g>
  </g>
</svg>