<?xml version="1.0" encoding="UTF-8"?>
<svg id="Calque_2" data-name="Calque 2" xmlns="http://www.w3.org/2000/svg" viewBox="0 0 241.05 168.51">
  <defs>
    <style>
      .cls-1 {
        fill: #f39339;
      }

      .cls-2 {
        fill: #fff;
      }

      .cls-3 {
        fill: #feefe1;
      }
    </style>
  </defs>
  <g id="Calque_1-2" data-name="Calque 1">
    <g>
      <path class="cls-3" d="M71.03,117.96c-20.97-24.29-48.45-47.36-45.95-65.31,2.5-17.67,34.99-30.51,64.59-40.62,29.59-9.83,56.28-16.92,76.57-7.87,19.78,18.8,21.84,42.53,21.47,64.49-.38,22.24-2.12,32.98-17.68,54.49-15.58,21.79-32.35,45.8-47.83,45.34-15.75-.75-30.21-26.25-51.18-50.54Z"/>
      <g>
        <g>
          <path class="cls-1" d="M2.6,83.36c-.5,0-.98-.28-1.44-.85-.44-.53-.66-1.16-.66-1.86,0-.66.17-1.34.51-2.03.31-.63.63-1.19.95-1.67.3-.46.51-.78.62-.96.04-.07.12-.23.17-.58l.02-.13.08-.11c.29-.38.7-1.09,1.2-2.12.69-1.09,1.54-2.52,2.53-4.31,2.13-3.9,3.49-6.24,4.14-7.15,0,0,.04-.11.09-.24.06-.16.19-.44.4-.83.2-.39.39-.73.58-1.04.6-.94,1.1-1.36,1.62-1.36.63,0,1.29.33,1.95.98.66.65,1,1.52,1,2.58,0,.19-.04.71-.38,3.03-.3,1.44-.75,3.55-1.37,6.38-.49,2.26-.72,3.42-.83,4.02.05-.08.12-.17.19-.29.32-.49.69-1.03,1.1-1.61.4-.57.78-1.14,1.14-1.7,1.12-1.75,2.97-4.9,5.49-9.36.24-.37.59-.91,1.07-1.65,1.3-2.16,1.7-2.63,1.92-2.8.32-.25.75-.38,1.27-.38.66.02,1.25.32,1.88.94.63.62.95,1.32.95,2.07,0,.66-.17,1.72-.51,3.22-.33,1.45-.72,2.89-1.15,4.26-.08.43-.43,1.8-1.01,4.01-.72,2.68-.87,3.77-.87,4.21v.4l-.06.11c-.21.38-.45,1.29-.45,3.44-.16,1.2-.46,2-.92,2.49-.14.17-.36.38-.66.38-.05,0-.09,0-.12-.01-.18.16-.42.3-.78.3-.98,0-1.39-.5-1.57-.92-.19-.47-.29-1.02-.29-1.64s.02-1.08.07-1.5c.03-.28.26-1.42,1.93-8.12.47-1.91.83-3.35,1.09-4.44-.16.29-.33.58-.5.87l-2.37,4.44c-.27.38-.53.83-.83,1.42-.32.65-1.1,1.79-2.37,3.51-.22.45-.9,1.2-2.1,2.3-1.24,1.13-2.22,1.68-2.99,1.68s-1.48-.36-2.07-1.07c-.56-.68-.85-1.45-.85-2.29,0-.76.11-1.84.35-3.31.63-2.78,1.1-4.76,1.41-5.97-.8,1.49-1.66,3.24-2.57,5.24-4.4,8.09-5.33,9.51-5.65,9.88l-.15.17h-.23Z"/>
          <path class="cls-2" d="M25.97,57.82s.05,0,.07,0c.44.01.93.28,1.46.8.53.52.8,1.09.8,1.72s-.17,1.66-.49,3.11c-.33,1.45-.71,2.86-1.14,4.22-.09.48-.43,1.82-1.02,4.03-.59,2.21-.88,3.66-.88,4.33v.27c-.34.63-.51,1.86-.51,3.67-.14,1.02-.4,1.73-.78,2.14-.13.15-.23.22-.29.22,0,0,0,0-.01,0-.07-.01-.14-.02-.2-.02s-.15.05-.26.15-.24.15-.42.15c-.57,0-.93-.2-1.1-.61s-.25-.89-.25-1.45.02-1.04.07-1.44c.04-.41.69-3.09,1.92-8.06s1.85-7.56,1.85-7.79c-.11.16-.39.63-.82,1.43-.43.79-.88,1.6-1.36,2.41l-2.38,4.45c-.25.34-.53.82-.83,1.43-.31.61-1.08,1.76-2.33,3.43-.23.45-.91,1.2-2.04,2.23-1.13,1.03-2.02,1.55-2.65,1.55s-1.2-.29-1.68-.88c-.49-.59-.73-1.25-.73-1.97s.11-1.8.34-3.23c.91-3.99,1.48-6.36,1.73-7.11.25-.75.37-1.22.37-1.43s-.02-.33-.07-.37c-.07.05-.14.12-.2.24-1.16,1.88-2.47,4.43-3.94,7.65-3.24,5.96-5.1,9.21-5.58,9.76-.34,0-.69-.22-1.05-.66-.36-.44-.54-.96-.54-1.55s.15-1.19.46-1.8c.31-.61.61-1.15.92-1.62.31-.46.52-.79.63-.97.11-.18.19-.44.24-.78.32-.41.74-1.14,1.26-2.21.68-1.07,1.52-2.49,2.52-4.28,2.11-3.85,3.48-6.22,4.11-7.11.04-.09.1-.21.15-.36.06-.15.18-.41.37-.78.19-.37.38-.71.56-1,.48-.75.87-1.12,1.19-1.12.5,0,1.03.28,1.6.83.57.56.85,1.3.85,2.23,0,.27-.12,1.26-.37,2.96-.29,1.41-.75,3.52-1.36,6.34-.61,2.82-.92,4.39-.92,4.71s.08.48.24.48c.09,0,.23-.1.41-.31.04-.02.23-.28.54-.76s.68-1.02,1.09-1.6c.41-.58.79-1.15,1.16-1.72,1.13-1.77,2.97-4.9,5.51-9.38.23-.34.58-.88,1.05-1.63.95-1.59,1.55-2.48,1.8-2.67.24-.18.56-.27.97-.27M25.97,56.82h0c-.63,0-1.16.16-1.58.48-.26.2-.64.6-2.05,2.95-.46.72-.8,1.26-1.03,1.59l-.02.03-.02.03c-2.52,4.45-4.36,7.59-5.48,9.34-.33.51-.68,1.04-1.04,1.55.1-.46.21-.99.34-1.6.61-2.82,1.07-4.94,1.36-6.35v-.03s.01-.03.01-.03c.34-2.31.38-2.87.38-3.1,0-1.2-.39-2.19-1.15-2.94-.76-.74-1.53-1.12-2.3-1.12-.91,0-1.56.85-2.03,1.58-.2.33-.4.69-.61,1.08-.28.54-.37.76-.42.88-.03.08-.06.15-.09.21-.68.98-2.04,3.31-4.12,7.13-.99,1.77-1.82,3.19-2.48,4.23l-.03.05-.02.05c-.61,1.24-.96,1.79-1.15,2.04l-.17.21-.04.27c-.04.29-.09.38-.1.39-.11.17-.31.49-.61.95-.33.5-.65,1.07-.98,1.72-.38.75-.56,1.51-.56,2.25,0,.82.26,1.56.77,2.18.56.68,1.18,1.03,1.83,1.03h.45l.3-.34c.37-.42,1.35-1.93,5.7-9.94l.02-.03v-.03c.22-.45.43-.89.63-1.32-.12.53-.25,1.1-.39,1.7v.03s-.01.03-.01.03c-.24,1.49-.35,2.6-.35,3.39,0,.96.32,1.84.96,2.61.85,1.03,1.8,1.25,2.45,1.25.91,0,1.97-.57,3.33-1.81,1.52-1.38,2-2.03,2.22-2.43,1.26-1.7,2.04-2.86,2.37-3.52.28-.56.53-.99.75-1.29l.04-.06.03-.06,1.02-1.91c-.06.22-.11.45-.17.69-1.87,7.51-1.92,7.99-1.94,8.19-.05.44-.07.95-.07,1.55,0,.69.11,1.3.33,1.83.19.46.71,1.23,2.03,1.23.42,0,.73-.14.95-.29.53-.02.87-.42,1-.57.51-.53.85-1.41,1.01-2.66v-.07s0-.07,0-.07c0-2.15.25-2.93.39-3.2l.12-.22v-.52c0-.33.11-1.31.85-4.08.58-2.17.91-3.49,1.02-4.04.43-1.37.82-2.8,1.14-4.24.35-1.54.52-2.63.52-3.33,0-.9-.37-1.72-1.1-2.43-.73-.71-1.43-1.07-2.14-1.09h-.1Z"/>
        </g>
        <g>
          <path class="cls-1" d="M30.24,81.15c-.52,0-1.06-.25-1.65-.77-1.18-1.23-1.66-2.29-1.49-3.28l.05-.55c-.17-.29-.1-.57.05-.74.06-.07.1-.12.13-.15-.03-.33.06-.76.27-1.38.22-.65.49-1.25.83-1.8.8-1.31,1.65-2.34,2.53-3.05,1.2-1.03,2.27-1.64,3.27-1.87.52-.12,1-.18,1.42-.18.78,0,1.4.21,1.84.63,1,.47,1.59,1.41,1.74,2.78.19,2-.47,4.1-1.96,6.26-.87,1.28-2.09,2.39-3.62,3.31-.65.45-1.75.72-3.36.82h-.01s-.02,0-.02,0ZM34.97,71.48s-.18.06-.64.37c-1.59,1.34-2.57,2.81-2.89,4.35-.04.39,0,.72.11.89.02.03.05.07.16.07.07,0,.16-.02.26-.05.37-.11.72-.32,1.02-.61.36-.35.6-.58.71-.69.1-.1.19-.2.27-.28.03-.03.08-.11.16-.28.09-.18.15-.32.2-.41.04-.07.09-.19.16-.36.08-.21.14-.36.18-.44.03-.08.09-.23.17-.48.1-.3.2-.52.3-.68h0s.05-.16.07-.79c0-.35-.03-.51-.05-.57-.09-.04-.15-.04-.17-.04v-.5.5Z"/>
          <path class="cls-2" d="M35.63,67.87c.68,0,1.2.18,1.55.54.88.38,1.39,1.19,1.53,2.41.18,1.88-.44,3.85-1.87,5.92-.84,1.22-2,2.28-3.47,3.16-.59.41-1.63.66-3.13.75-.39,0-.83-.21-1.33-.65-1.02-1.07-1.46-2.01-1.33-2.82l.07-.78c-.11-.11-.14-.2-.08-.27.06-.07.1-.11.12-.14.14,0,.18-.11.14-.32-.05-.22.03-.63.24-1.24s.46-1.18.78-1.7c.77-1.27,1.58-2.24,2.41-2.92,1.13-.97,2.15-1.56,3.06-1.77.49-.11.92-.17,1.31-.17M31.71,77.66c.12,0,.25-.02.4-.07.45-.14.86-.38,1.22-.73.36-.35.6-.58.71-.7s.21-.22.29-.31c.08-.09.16-.22.24-.39.08-.17.14-.29.19-.37.05-.08.11-.22.19-.42.08-.2.14-.35.17-.43.03-.08.1-.25.19-.51.09-.26.18-.46.26-.59.08-.14.12-.48.14-1.04.01-.55-.07-.89-.25-1-.18-.08-.33-.12-.46-.12-.05,0-.1,0-.15.02-.16.04-.42.19-.78.44-1.72,1.45-2.75,3-3.09,4.66-.07.57,0,.99.19,1.28.13.19.32.29.57.29M35.63,66.87h0c-.46,0-.97.07-1.53.2-1.07.24-2.21.89-3.49,1.98-.9.73-1.79,1.8-2.62,3.16-.35.58-.65,1.22-.88,1.9-.2.59-.29,1.02-.3,1.36,0,0-.01.01-.02.02-.23.28-.34.71-.16,1.15l-.04.42c-.17,1.14.35,2.33,1.6,3.64l.03.03.04.03c.69.6,1.34.89,1.98.89h.06c1.67-.1,2.86-.4,3.61-.91,1.58-.95,2.84-2.11,3.75-3.44,1.56-2.25,2.24-4.46,2.04-6.58-.21-1.87-1.14-2.74-1.95-3.15-.53-.47-1.24-.71-2.12-.71h0ZM34.65,72.23s.03-.02.04-.03c-.01.3-.03.44-.04.51-.1.18-.19.4-.29.69-.08.23-.13.37-.16.44-.04.09-.1.24-.18.46-.05.13-.09.23-.12.29-.06.1-.13.25-.23.45-.05.11-.09.16-.09.16-.07.07-.15.16-.24.26-.11.11-.35.34-.7.68-.22.21-.45.36-.71.46,0-.09,0-.2.01-.34.3-1.39,1.21-2.75,2.71-4.02h0Z"/>
        </g>
        <g>
          <path class="cls-1" d="M49.36,82.08c-.32,0-.64-.12-.95-.35-.33-.25-.59-.55-.76-.89-.19-.51-.31-1.31-.38-2.47l-.6.54c-1.51,1.41-2.96,2.13-4.31,2.13-.56-.1-1.09-.44-1.73-1.06-.61-.6-1-1.11-1.18-1.56-.32-.77-.23-1.95.29-3.59.49-1.57,1.18-2.86,2.04-3.83.75-1.13,1.78-1.92,3.02-2.28.48-.14.95-.21,1.39-.21.72,0,1.38.19,1.97.55.28.14.43.15.48.15,0-.1.03-.21.94-3.01.6-1.87,1.44-3.94,2.49-6.18.53-1.11,1.11-1.65,1.78-1.65,0,0,.12,0,.12,0,.33,0,.73.12,1.15.35.45.25.78.62.97,1.1.2.52.14,1.08-.18,1.67-.58,1-1.3,2.66-2.15,4.93-.85,2.29-1.47,4.11-1.82,5.4-.35,1.27-.57,2.87-.65,4.75-.1,2.51,0,3.01.04,3.11l.02.06.02.09c.05.4.07.7.05.92-.01.25-.12.6-.53.87-.25.16-.47.26-.67.31-.15.04-.36.08-.64.12-.07.01-.15.02-.23.02ZM46.6,72.23c-.32,0-.72.22-1.16.63-1.06.96-1.79,2.37-2.18,4.21.12,0,.29-.04.57-.15.43-.17.96-.48,1.58-.94.62-.46,1.08-.87,1.35-1.22.26-.33.48-.77.64-1.31.12-.41.01-.74-.36-1.06-.13-.1-.29-.16-.45-.16Z"/>
          <path class="cls-2" d="M53.84,58.89s.04,0,.06,0c.29,0,.62.1.97.29s.6.48.75.85.1.79-.15,1.24c-.59,1.02-1.31,2.69-2.18,5-.86,2.31-1.47,4.13-1.84,5.44s-.58,2.94-.66,4.86c-.08,1.93-.05,3.04.08,3.33.04.36.06.64.05.83-.01.19-.11.35-.31.48-.19.12-.36.2-.51.24-.15.03-.35.07-.61.12-.05,0-.1.01-.14.01-.21,0-.43-.08-.65-.25-.27-.2-.48-.44-.61-.71-.2-.54-.33-1.65-.37-3.33l-1.39,1.26c-1.43,1.34-2.75,2.01-3.98,2.01-.36-.07-.82-.37-1.38-.92s-.91-1.01-1.07-1.39c-.27-.66-.17-1.74.31-3.25.48-1.51,1.12-2.72,1.94-3.65.72-1.09,1.65-1.8,2.79-2.12.44-.13.85-.19,1.25-.19.63,0,1.19.16,1.71.48.31.15.55.23.75.23.27,0,.42-.14.48-.43.02-.09.33-1.07.93-2.92s1.42-3.9,2.46-6.12c.43-.91.88-1.36,1.33-1.36M43.21,77.58c.2,0,.46-.06.8-.19.48-.18,1.04-.52,1.7-1s1.14-.92,1.45-1.31c.31-.38.55-.88.73-1.48s.01-1.13-.51-1.58c-.24-.19-.5-.28-.78-.28-.45,0-.95.25-1.5.76-1.16,1.04-1.94,2.56-2.35,4.56-.05.25.03.41.24.49.06.02.14.04.22.04M53.84,57.89h0c-1.31,0-2.01,1.46-2.23,1.93-1.06,2.26-1.9,4.36-2.51,6.24-.45,1.39-.68,2.12-.81,2.51-.64-.37-1.35-.55-2.11-.55-.49,0-1,.08-1.53.23-1.34.39-2.45,1.22-3.3,2.48-.88,1.02-1.59,2.36-2.1,3.96-.56,1.78-.65,3.03-.28,3.93.21.51.64,1.08,1.29,1.73.72.7,1.32,1.08,1.89,1.19l.09.02h.09c1.43,0,2.94-.72,4.5-2.13.09.86.21,1.28.31,1.54l.02.05.02.05c.21.41.51.77.91,1.07.4.3.82.45,1.26.45.11,0,.21,0,.32-.03.28-.05.5-.09.66-.13.26-.06.53-.18.83-.37.46-.3.73-.75.76-1.26.02-.25,0-.57-.06-1.01l-.02-.15-.05-.1c-.03-.13-.1-.71-.01-2.92.08-1.84.29-3.4.63-4.64.35-1.28.96-3.08,1.81-5.36.84-2.25,1.55-3.88,2.1-4.85.51-.92.4-1.65.22-2.11-.23-.6-.64-1.05-1.2-1.36-.48-.26-.96-.4-1.41-.41-.04,0-.07,0-.11,0h0ZM43.96,76.32c.39-1.31,1-2.35,1.81-3.08.4-.37.69-.5.83-.5.02,0,.06,0,.14.06.27.24.23.38.19.52-.14.48-.33.86-.56,1.15-.25.32-.67.69-1.26,1.13-.44.32-.82.57-1.15.73h0Z"/>
        </g>
        <g>
          <path class="cls-1" d="M57.88,81.39c-1.37,0-2.51-.41-3.4-1.22-.9-.82-1.35-1.99-1.35-3.46,0-.54.03-1.11.09-1.71.06-.64.27-1.4.63-2.31.35-.9.93-1.88,1.7-2.9.79-1.06,1.67-1.82,2.6-2.25.88-.4,1.62-.61,2.28-.64-.28-.34-.38-.89-.42-1.16-.01-.04-.15-.4-.91-1.7-.83-1.43-.93-1.97-.93-2.27,0-.51.27-.98.79-1.38.49-.38.91-.56,1.28-.56.72,0,1.36.77,2.08,2.49.94,2.27.94,2.56.94,2.72,0,.39-.25.81-.8,1.33-.3.28-.56.48-.79.61.94.15,1.68.5,2.2,1.05.7.74,1.06,1.47,1.06,2.16v.27c0,.58-.32,1.41-1.02,2.6-.35.62-.89,1.19-1.61,1.68-.73.49-1.48.76-2.23.78-.12,0-.25,0-.37,0-.56,0-1.1-.04-1.62-.13-.78-.13-.97-.15-1.02-.15.01.07-.11.32-.11,1.13.06.57.23.84.36.95.19.17.42.25.71.25.34,0,.65-.06.96-.2.32-.14.71-.4,1.15-.78.59-.5,1.06-.73,1.46-.73s.8.19,1.17.55.55.72.59,1.09v.06s0,.06,0,.06c-.09.66-.64,1.42-1.75,2.37-1.07.93-2.31,1.4-3.68,1.4ZM58.3,72.17c.1.01.24.03.43.03.89,0,1.09-.09,1.11-.1.06-.03.28-.18.86-.76.52-.51.59-.69.59-.71-.01,0-.01-.2-.65-.26h-.33s-.27.02-.95.61c-.4.35-.77.75-1.09,1.19Z"/>
          <path class="cls-2" d="M60.23,60.32c.48,0,1.01.73,1.61,2.18.6,1.45.9,2.29.9,2.53s-.22.56-.65.97c-.5.45-.86.68-1.09.68s-.4-.34-.51-1.02c-.07-.25-.39-.87-.97-1.87-.58-1-.87-1.67-.87-2.02s.2-.68.59-.99c.4-.31.72-.46.97-.46M60.57,67.39c1.34,0,2.31.32,2.92.97.61.65.92,1.25.92,1.82v.27c0,.48-.32,1.26-.95,2.35-.32.57-.8,1.07-1.46,1.51s-1.31.67-1.97.7c-.12,0-.24,0-.35,0-.53,0-1.04-.04-1.54-.13-.6-.1-.97-.15-1.1-.15s-.26.08-.37.24c-.16.25-.24.71-.24,1.39.07.64.24,1.08.53,1.33.28.25.63.37,1.04.37s.79-.08,1.16-.24c.36-.16.79-.44,1.27-.85s.87-.61,1.14-.61.54.14.82.41.42.53.44.78c-.07.52-.6,1.21-1.58,2.06-.99.85-2.1,1.28-3.35,1.28s-2.27-.36-3.06-1.09c-.79-.73-1.19-1.76-1.19-3.09,0-.52.03-1.08.08-1.67.06-.59.25-1.31.6-2.18.34-.86.88-1.79,1.63-2.79.75-1,1.55-1.69,2.41-2.09.86-.4,1.6-.59,2.21-.59M58.73,72.7c.7,0,1.15-.05,1.34-.15.19-.1.52-.39.99-.85s.71-.79.73-.97c0-.5-.36-.78-1.09-.85h-.37c-.29,0-.72.24-1.28.73-.56.49-1.04,1.05-1.44,1.68.04.27.42.41,1.12.41M60.23,59.32c-.49,0-.99.21-1.58.67-.81.63-.98,1.31-.98,1.78,0,.39.12,1,1,2.52.65,1.13.82,1.5.86,1.61.04.22.09.41.14.59-.53.11-1.1.3-1.73.59-1.01.47-1.95,1.27-2.8,2.4-.8,1.06-1.39,2.08-1.76,3.02-.38.96-.59,1.76-.66,2.45-.06.62-.09,1.21-.09,1.76,0,1.62.51,2.91,1.52,3.83.98.9,2.24,1.35,3.73,1.35s2.83-.51,4-1.52c1.21-1.04,1.82-1.89,1.92-2.68v-.11s0-.11,0-.11c-.05-.49-.29-.96-.73-1.4-.32-.32-.66-.53-1.01-.63.16-.09.33-.19.49-.3.79-.53,1.38-1.15,1.78-1.85.74-1.27,1.08-2.15,1.08-2.84v-.27c0-.83-.4-1.67-1.19-2.51-.39-.41-.87-.72-1.45-.93,0,0,0,0,0,0,.46-.44.97-1.01.97-1.71,0-.3-.07-.73-.98-2.91-.57-1.38-1.32-2.79-2.54-2.79h0ZM60.39,70.87h.08s-.07.07-.11.11c-.44.44-.65.6-.72.66-.04,0-.12.02-.26.03.11-.11.22-.22.34-.32.4-.35.61-.46.67-.48h0ZM57.42,76.31c0-.23.01-.4.03-.52.13.02.3.05.52.08.55.09,1.12.14,1.7.14.12,0,.24,0,.36,0-.08.06-.17.13-.26.2-.51.43-.85.62-1.03.7-.24.1-.48.15-.75.15-.21,0-.31-.06-.38-.12,0,0-.13-.13-.19-.63h0Z"/>
        </g>
        <g>
          <path class="cls-1" d="M66.05,81.81c-.71,0-1.29-.46-1.72-1.35-.46-.96-.54-2.13-.24-3.48.32-.86.36-1.19.36-1.32.08-.54.31-1.33.73-2.5.4-1.15.66-1.83.79-2.08l.14-.28h.13c0-.05.01-.13.01-.25,0-.57.14-1.01.43-1.32l.32-1.21.03-.05c.35-.68.98-2.26,1.88-4.69,1.16-3.14,1.32-3.76,1.33-3.88,0-.32.11-.63.32-.88.22-.26.47-.36.67-.4.25-.15.63-.22,1.17-.22h.21l.69.69c.62.56.93,1.11.93,1.65,0,.44-.08.9-.25,1.35-.15.42-.59,1.37-1.29,2.85-.08.22-.21.52-.38.87l-.37.78c-.05.11-.09.18-.1.23,0,.02-.01.14-.07.29-.04.11-.09.25-.16.44-.07.17-.16.39-.28.65-1.17,2.56-1.3,3.05-1.32,3.14,0,.32-.1.6-.31.81l-.02.02c0,.21-.07.62-.58,1.97-1.18,3.99-1.43,5.46-1.43,6,0,1.29-.58,1.83-1.07,2.07-.24.07-.4.1-.55.1Z"/>
          <path class="cls-2" d="M72.4,58.42l.54.54c.52.48.78.91.78,1.29s-.07.78-.22,1.17-.57,1.33-1.28,2.8c-.09.25-.21.54-.37.87-.16.33-.28.59-.37.78-.09.19-.14.31-.14.36s-.02.12-.05.22c-.03.1-.08.24-.15.41-.07.17-.16.38-.27.63-.91,2-1.36,3.1-1.36,3.32s-.06.38-.17.49c-.11,0-.17.09-.17.27v.1c0,.23-.18.83-.54,1.8-.97,3.29-1.46,5.34-1.46,6.17s-.26,1.37-.78,1.62c-.11.03-.22.05-.33.05-.51,0-.93-.36-1.27-1.07-.41-.86-.48-1.92-.2-3.16.25-.66.37-1.13.37-1.43.07-.43.3-1.21.7-2.33.4-1.12.65-1.8.76-2.02.23,0,.34-.25.34-.75s.12-.85.37-1.05l.34-1.29c.36-.7,1-2.28,1.9-4.74.91-2.46,1.36-3.8,1.36-4.03s.07-.42.2-.58c.14-.16.29-.24.48-.24.14-.14.46-.2.99-.2M72.81,57.42h-.41c-.45,0-.95.03-1.35.25-.33.08-.63.26-.87.54-.28.33-.43.72-.45,1.16-.04.17-.24.88-1.3,3.76-.89,2.41-1.51,3.96-1.85,4.63l-.05.1-.03.11-.27,1.04c-.29.35-.44.82-.47,1.38l-.24.48c-.09.17-.27.58-.81,2.14-.42,1.19-.66,2.01-.74,2.51v.08s-.01.08-.01.08c0,.03,0,.28-.31,1.07l-.03.07-.02.07c-.32,1.46-.23,2.74.28,3.8.64,1.35,1.53,1.64,2.17,1.64.2,0,.4-.03.6-.08l.09-.02.08-.04c.62-.3,1.35-.97,1.35-2.52,0-.41.18-1.71,1.41-5.85.42-1.13.55-1.63.58-1.91.17-.21.33-.53.35-.98.05-.17.27-.79,1.27-3,.12-.27.22-.49.29-.67.08-.19.13-.34.17-.46.04-.13.07-.24.09-.35.01-.03.03-.07.05-.12.09-.2.22-.45.37-.78.16-.33.29-.64.4-.91.71-1.48,1.13-2.41,1.29-2.84.19-.51.28-1.02.28-1.52,0-.69-.36-1.35-1.11-2.03l-.51-.51-.29-.29h0Z"/>
        </g>
        <g>
          <path class="cls-1" d="M75.12,81.39c-1.37,0-2.51-.41-3.4-1.22-.9-.82-1.35-1.99-1.35-3.46,0-.55.03-1.12.09-1.71.06-.64.27-1.39.63-2.31.36-.9.93-1.88,1.7-2.9.79-1.06,1.67-1.81,2.6-2.25.94-.43,1.73-.64,2.42-.64,1.47,0,2.58.38,3.29,1.12.7.74,1.06,1.47,1.06,2.16v.27c0,.58-.32,1.41-1.02,2.6-.35.62-.89,1.19-1.61,1.68-.73.49-1.48.76-2.23.78-.12,0-.25,0-.37,0-.56,0-1.1-.04-1.62-.13-.78-.13-.98-.15-1.02-.15.01.07-.11.32-.11,1.13.06.57.23.84.36.95.19.17.42.25.71.25.34,0,.65-.06.96-.2.32-.14.71-.4,1.15-.78.59-.5,1.06-.73,1.46-.73s.8.19,1.17.55.55.72.59,1.09v.05s0,.06,0,.06c-.09.66-.64,1.42-1.75,2.37-1.07.93-2.31,1.4-3.67,1.4ZM75.54,72.17c.1.01.24.03.43.03.89,0,1.09-.08,1.11-.09.06-.04.28-.18.87-.76.52-.51.59-.69.59-.71-.01,0-.01-.2-.65-.26h-.33s-.26,0-.94.61c-.4.35-.77.75-1.09,1.19Z"/>
          <path class="cls-2" d="M77.81,67.39c1.34,0,2.31.32,2.92.97.61.65.92,1.25.92,1.82v.27c0,.48-.32,1.26-.95,2.35-.32.57-.8,1.07-1.46,1.51s-1.31.67-1.97.7c-.12,0-.24,0-.35,0-.53,0-1.04-.04-1.53-.13-.6-.1-.97-.15-1.11-.15s-.26.08-.37.24c-.16.25-.24.71-.24,1.39.07.64.24,1.08.53,1.33.28.25.63.37,1.04.37s.79-.08,1.16-.24c.36-.16.79-.44,1.27-.85s.87-.61,1.14-.61.54.14.82.41.42.53.44.78c-.07.52-.59,1.21-1.58,2.06-.99.85-2.1,1.28-3.35,1.28s-2.27-.36-3.06-1.09c-.79-.73-1.19-1.76-1.19-3.09,0-.52.03-1.08.08-1.67.06-.59.25-1.31.59-2.18.34-.86.88-1.79,1.63-2.79.75-1,1.55-1.69,2.41-2.09.86-.4,1.6-.59,2.21-.59M75.97,72.7c.7,0,1.15-.05,1.34-.15.19-.1.52-.39.99-.85s.71-.79.73-.97c0-.5-.36-.78-1.09-.85h-.37c-.29,0-.72.24-1.27.73-.56.49-1.04,1.05-1.45,1.68.04.27.42.41,1.12.41M77.81,66.39c-.76,0-1.62.22-2.63.69-1.01.47-1.95,1.27-2.8,2.4-.8,1.06-1.39,2.08-1.76,3.02-.38.96-.6,1.76-.66,2.45-.06.6-.09,1.2-.09,1.76,0,1.62.51,2.91,1.51,3.83.98.9,2.24,1.35,3.74,1.35s2.83-.51,4-1.52c1.21-1.04,1.82-1.89,1.92-2.68v-.11s0-.11,0-.11c-.04-.49-.29-.96-.73-1.4-.32-.32-.66-.53-1.01-.63.16-.09.33-.19.49-.3.79-.53,1.38-1.15,1.78-1.85.74-1.27,1.08-2.15,1.08-2.84v-.27c0-.83-.4-1.67-1.19-2.51-.8-.85-2.03-1.28-3.65-1.28h0ZM77.62,70.87h.08s-.07.07-.11.11c-.44.44-.65.6-.72.66-.04,0-.12.02-.26.03.11-.11.22-.22.34-.32.4-.35.61-.46.67-.48h0ZM74.66,76.31c0-.23.01-.4.03-.52.13.02.3.05.52.08.54.09,1.12.14,1.7.14.12,0,.24,0,.36,0-.08.06-.17.13-.26.2-.51.43-.85.62-1.03.7-.24.1-.48.15-.75.15-.21,0-.31-.06-.38-.12,0,0-.13-.13-.19-.63h0Z"/>
        </g>
        <g>
          <path class="cls-1" d="M85.57,81.59c-1.17,0-2.22-.38-3.11-1.14-.92-.77-1.38-1.61-1.38-2.49,0-.79.5-1.08.98-1.08h.12c.11.04.28.11,1.09.6.58.35.92.42,1.1.42.35,0,.95-.04,1-.34,0-.04-.06-.38-.43-1.11-.81-1.19-1.28-2.86-1.38-4.89,0-1,.83-2.07,2.55-3.32,1.65-1.2,3.01-1.84,4.15-1.96h.03c1.84,0,2.37.24,2.63.45.35.28.66.72.97,1.36.31.65.46,1.12.46,1.47,0,.28-.1.75-.9,1.97-.22.45-.37.75-.4.84,0,.06-.04.16-.1.27-.06.12-.1.19-.16.25-.13.17-.25.25-.36.28-.09.05-.18.07-.28.07h-.15l-.06-.04s-.2,0-.2,0c-.42,0-.8-.21-1.2-.65-.41-.43-.61-.89-.61-1.36,0-.35.08-.69.25-1.01-.34.12-.79.35-1.42.78-.83.56-1.23,1.15-1.23,1.78,0,.7.17,1.32.51,1.89.16.18.41.58.86,1.74.37.95.56,1.79.56,2.51,0,.82-.39,1.51-1.12,2.01-.68.46-1.61.7-2.76.7Z"/>
          <path class="cls-2" d="M90.32,66.78c1.25,0,2.01.11,2.29.34s.56.62.83,1.19c.27.57.41.99.41,1.26,0,.29-.27.86-.82,1.7-.29.59-.45.91-.46.97-.01.06-.03.12-.07.19-.03.07-.06.11-.07.12s-.03.04-.07.08c-.03.04-.06.07-.08.07-.02,0-.05.01-.08.03-.02.01-.03.02-.05.02s-.03,0-.05-.02c-.02-.01-.09-.02-.2-.02-.05,0-.12,0-.2,0,0,0-.02,0-.02,0-.22,0-.49-.17-.79-.49-.32-.34-.48-.68-.48-1.02s.1-.67.31-.99.31-.5.31-.56-.1-.08-.31-.08c-.54,0-1.3.33-2.26.99-.96.66-1.45,1.39-1.45,2.19s.2,1.54.61,2.19c.18.18.45.72.8,1.62s.53,1.67.53,2.33-.3,1.19-.9,1.6-1.43.61-2.48.61-1.98-.34-2.79-1.02c-.81-.68-1.21-1.38-1.21-2.11,0-.39.16-.58.48-.58.09.02.41.2.95.53.54.33,1,.49,1.36.49.91,0,1.41-.25,1.5-.75,0-.32-.16-.79-.48-1.43-.79-1.18-1.24-2.74-1.33-4.69,0-.79.78-1.76,2.35-2.89,1.56-1.13,2.87-1.76,3.91-1.87M90.32,65.78h-.11c-1.23.14-2.66.81-4.39,2.06-1.88,1.37-2.76,2.54-2.76,3.7.1,2.14.59,3.87,1.46,5.19.14.29.23.5.27.64-.1.02-.23.03-.43.03-.04,0-.29-.02-.84-.35-.88-.53-1.05-.6-1.23-.64l-.12-.03h-.12c-.73,0-1.48.49-1.48,1.58,0,1.03.53,2,1.56,2.87.98.83,2.14,1.26,3.43,1.26s2.28-.26,3.04-.79c.88-.6,1.34-1.43,1.34-2.42,0-.79-.2-1.67-.6-2.69-.45-1.15-.72-1.6-.92-1.85-.28-.48-.42-1-.42-1.59,0-.45.34-.91,1.01-1.37.14-.1.27-.18.39-.26,0,.03,0,.05,0,.08,0,.6.25,1.17.74,1.7.51.55,1.01.81,1.52.81h.07s.07,0,.1,0c.09.03.19.04.29.04.16,0,.32-.04.47-.11.18-.06.38-.18.55-.41.1-.1.17-.23.23-.36.06-.12.1-.23.13-.35.03-.07.12-.26.37-.76.67-1.04.95-1.68.95-2.2,0-.44-.16-.96-.51-1.69-.34-.71-.7-1.21-1.11-1.54-.5-.4-1.34-.56-2.92-.56h0Z"/>
        </g>
        <g>
          <path class="cls-1" d="M106.47,81.39c-1.37,0-2.51-.41-3.4-1.22-.9-.82-1.35-1.99-1.35-3.46,0-.54.03-1.11.09-1.71.06-.64.27-1.4.63-2.31.35-.9.93-1.88,1.7-2.9.79-1.06,1.67-1.82,2.6-2.25.94-.43,1.73-.64,2.42-.64,1.47,0,2.58.38,3.29,1.12.7.74,1.06,1.47,1.06,2.16v.27c0,.58-.32,1.41-1.02,2.6-.35.62-.89,1.19-1.61,1.68-.73.49-1.48.76-2.23.78-.12,0-.25,0-.37,0-.56,0-1.1-.04-1.62-.13-.78-.13-.97-.15-1.02-.15.01.07-.11.32-.11,1.13.06.57.23.84.36.95.19.17.42.25.71.25.34,0,.65-.06.96-.2.32-.14.71-.4,1.15-.78.59-.5,1.06-.73,1.46-.73s.8.19,1.17.55.55.72.59,1.09v.06s0,.06,0,.06c-.09.66-.64,1.42-1.75,2.37-1.07.93-2.31,1.4-3.68,1.4ZM106.88,72.17c.1.01.24.03.43.03.89,0,1.09-.09,1.11-.1.06-.03.28-.18.86-.76.52-.51.59-.69.59-.71-.01,0-.01-.2-.65-.26h-.33s-.27.02-.95.61c-.4.35-.77.75-1.09,1.19ZM110.75,66.77c-.57,0-1.52-.28-1.52-2.13l.04-.39c.06-.28.22-.62,1.59-2.09,1.31-1.4,1.79-1.7,2.07-1.8.16-.08.36-.16.54-.21l.07-.02h.07c.44,0,.86.22,1.24.64.37.41.55.95.55,1.59,0,.37-.2.88-1.66,2.07-1.18.96-1.58,1.4-1.72,1.61-.41.61-.91.73-1.27.73Z"/>
          <path class="cls-2" d="M113.61,60.63c.29,0,.58.16.87.48s.43.74.43,1.26c0,.32-.49.88-1.48,1.68-.99.8-1.59,1.38-1.82,1.72-.23.34-.51.51-.85.51-.68,0-1.02-.54-1.02-1.63l.03-.34c.05-.2.53-.8,1.46-1.8.93-1,1.55-1.55,1.87-1.67.18-.09.35-.16.51-.2M109.15,67.39c1.34,0,2.31.32,2.92.97.61.65.92,1.25.92,1.82v.27c0,.48-.32,1.26-.95,2.35-.32.57-.8,1.07-1.46,1.51s-1.31.67-1.97.7c-.12,0-.24,0-.35,0-.53,0-1.04-.04-1.54-.13-.6-.1-.97-.15-1.1-.15s-.26.08-.37.24c-.16.25-.24.71-.24,1.39.07.64.24,1.08.53,1.33.28.25.63.37,1.04.37s.79-.08,1.16-.24c.36-.16.79-.44,1.27-.85s.87-.61,1.14-.61.54.14.82.41.42.53.44.78c-.07.52-.6,1.21-1.58,2.06-.99.85-2.1,1.28-3.35,1.28s-2.27-.36-3.06-1.09c-.79-.73-1.19-1.76-1.19-3.09,0-.52.03-1.08.08-1.67.06-.59.25-1.31.6-2.18.34-.86.88-1.79,1.63-2.79.75-1,1.55-1.69,2.41-2.09.86-.4,1.6-.59,2.21-.59M107.32,72.7c.7,0,1.15-.05,1.34-.15.19-.1.52-.39.99-.85s.71-.79.73-.97c0-.5-.36-.78-1.09-.85h-.37c-.29,0-.72.24-1.28.73-.56.49-1.04,1.05-1.44,1.68.04.27.42.41,1.12.41M113.61,59.63h-.14l-.13.04c-.21.06-.42.14-.64.25-.37.15-.91.52-2.2,1.9-1.46,1.57-1.63,1.94-1.71,2.26v.06s-.02.06-.02.06l-.03.34v.05s0,.05,0,.05c0,.8.17,1.36.41,1.75-.76,0-1.62.23-2.62.69-1.01.47-1.95,1.27-2.8,2.4-.8,1.06-1.39,2.08-1.76,3.02-.38.96-.59,1.76-.66,2.45-.06.62-.09,1.21-.09,1.76,0,1.62.51,2.91,1.52,3.83.98.9,2.24,1.35,3.73,1.35s2.83-.51,4-1.52c1.21-1.04,1.82-1.89,1.92-2.68v-.11s0-.11,0-.11c-.05-.49-.29-.96-.73-1.4-.32-.32-.66-.53-1.01-.63.16-.09.33-.19.49-.3.79-.53,1.38-1.15,1.78-1.85.74-1.27,1.08-2.15,1.08-2.84v-.27c0-.83-.4-1.67-1.19-2.51-.28-.29-.61-.54-.98-.73.23-.16.44-.37.61-.63.06-.09.35-.46,1.62-1.5,1.35-1.1,1.85-1.76,1.85-2.46,0-.77-.23-1.42-.68-1.92-.6-.67-1.21-.81-1.61-.81h0ZM108.97,70.87h.08s-.07.07-.11.11c-.44.44-.65.6-.72.66-.04,0-.12.02-.26.03.11-.11.22-.22.34-.32.4-.35.61-.46.67-.48h0ZM106.01,76.31c0-.23.01-.4.03-.52.13.02.3.05.52.08.55.09,1.12.14,1.7.14.12,0,.24,0,.36,0-.08.06-.17.13-.26.2-.51.43-.85.62-1.03.7-.24.1-.48.15-.75.15-.21,0-.31-.06-.38-.12,0,0-.13-.13-.19-.63h0Z"/>
        </g>
        <g>
          <path class="cls-1" d="M116.95,81.59c-.88,0-1.7-.27-2.46-.8-1.01-.71-1.52-1.68-1.52-2.89-.12-1.05.08-2.44.58-4.06.5-1.62,1.17-2.94,1.98-3.94,1.23-1.47,2.17-2.32,2.88-2.61.69-.28,1.44-.43,2.23-.43h.12c.88.22,2.02.58,2.22,1.39.4.18.65.74.85,1.32.29.81.32,1.43.11,1.9-.11.46-.3.92-.58,1.36-.22.34-.55.78-1.03.84-.09.18-.3.38-.76.4,0,0-.01,0-.02,0-.37,0-.66-.07-.95-.2-.4-.17-.65-.42-.74-.73l-.02-.07v-.07c0-.08,0-.23.25-1.35.12-.54.13-.82.12-.95-.05.01-.12.03-.22.07-.7.4-1.27.96-1.64,1.63-.4.72-.75,1.65-1.04,2.78-.41,1.55-.42,1.92-.41,1.99.02.2.05.32.08.37.18.04.35.06.51.06.29,0,.55-.06.79-.19.49-.25,1.16-.71,2-1.35.03-.03.09-.12.17-.25.16-.24.32-.42.49-.54.27-.37.68-.57,1.17-.57h.8l.08.03c.52.17.94.52,1.25,1.03.28.61.05.92-.09,1.04-.08.38-.48.89-1.34,1.76-1.18,1.19-1.66,1.47-2.01,1.49-.15.23-.51.44-1.24.79-.72.34-1.32.57-1.79.67-.28.05-.55.07-.81.07Z"/>
          <path class="cls-2" d="M120.64,67.36c1.25.29,1.87.68,1.87,1.16l.17.17c.2,0,.43.35.68,1.05.25.7.28,1.22.1,1.56-.09.43-.27.85-.53,1.26s-.5.61-.71.61-.32.06-.32.19-.12.19-.36.2c-.02,0-.04,0-.07,0-.22,0-.44-.05-.68-.15-.26-.11-.41-.25-.46-.41,0-.11.08-.53.24-1.24.16-.71.17-1.18.05-1.39-.07-.12-.18-.17-.34-.17-.13,0-.3.04-.49.12-.84.48-1.47,1.09-1.89,1.85-.42.76-.78,1.72-1.09,2.89-.31,1.17-.45,1.89-.43,2.16.05.43.15.69.31.78.27.07.53.11.78.11.37,0,.71-.08,1.03-.25.52-.27,1.21-.74,2.07-1.39.04-.02.14-.15.29-.37.15-.23.29-.37.42-.44.18-.29.45-.44.82-.44h.71c.41.14.74.41.99.82.09.2.09.34,0,.41l-.17.17c.09.18-.31.72-1.19,1.62-.88.9-1.45,1.34-1.7,1.34s-.37.07-.37.2c0,.09-.35.3-1.04.63-.69.33-1.25.54-1.68.63-.24.04-.47.06-.7.06-.77,0-1.5-.24-2.17-.71-.87-.61-1.31-1.44-1.31-2.48-.11-1.04.07-2.35.56-3.91.49-1.56,1.12-2.82,1.89-3.77,1.16-1.38,2.05-2.2,2.69-2.46s1.31-.39,2.04-.39M120.76,66.36h-.12c-.85,0-1.67.16-2.42.47-.8.33-1.78,1.2-3.07,2.75-.86,1.06-1.55,2.44-2.07,4.12-.53,1.69-.72,3.08-.61,4.26.02,1.34.62,2.46,1.74,3.25.84.59,1.77.89,2.75.89.29,0,.58-.03.87-.08.55-.12,1.17-.35,1.94-.71.53-.25,1-.47,1.29-.77.45-.11,1.01-.5,2.1-1.6.69-.7,1.23-1.29,1.42-1.85.27-.31.42-.82.14-1.45l-.03-.06-.03-.06c-.37-.61-.89-1.03-1.52-1.24l-.15-.05h-.45s.07-.07.1-.1c.63-.19,1.01-.79,1.15-1.01.3-.47.51-.96.64-1.47.25-.58.21-1.31-.11-2.23-.14-.4-.4-1.12-.91-1.49-.44-1.04-1.96-1.4-2.52-1.53l-.11-.03h0ZM117.39,77.11c0-.05.04-.44.4-1.79.28-1.08.62-1.98,1-2.66.2-.36.46-.68.79-.96-.21.96-.23,1.17-.23,1.31v.14l.04.13c.09.32.34.76,1.03,1.05.21.09.41.15.62.19-.16.11-.31.24-.44.4-.2.15-.38.36-.56.63-.04.07-.08.12-.11.16-.79.6-1.42,1.02-1.87,1.26-.17.09-.35.13-.56.13-.03,0-.06,0-.09,0h0Z"/>
        </g>
        <g>
          <path class="cls-1" d="M128.23,81.15c-.51,0-1.06-.25-1.65-.77-1.18-1.23-1.66-2.29-1.49-3.28l.05-.55c-.17-.29-.1-.57.05-.74.06-.07.11-.12.13-.15-.03-.33.06-.76.27-1.38.21-.64.49-1.25.83-1.8.8-1.31,1.65-2.34,2.53-3.05,1.18-1.02,2.28-1.65,3.27-1.87.52-.12,1-.18,1.42-.18.78,0,1.4.21,1.84.63,1,.47,1.59,1.41,1.74,2.78.19,2-.47,4.11-1.96,6.26-.87,1.28-2.09,2.39-3.62,3.31-.65.45-1.75.72-3.36.82h-.01s-.02,0-.02,0ZM132.95,71.48s-.18.06-.63.37c-1.59,1.34-2.57,2.81-2.89,4.35-.06.51.03.77.11.89.02.03.05.07.16.07.07,0,.16-.02.26-.04.38-.11.71-.31,1.02-.61.36-.35.6-.58.71-.69.1-.1.19-.2.27-.28.03-.03.08-.1.16-.27.09-.19.16-.33.21-.41.04-.06.09-.18.15-.35.08-.21.14-.35.17-.44.03-.08.09-.24.18-.48.1-.3.2-.52.3-.68h0s.05-.16.07-.79c0-.35-.03-.51-.05-.57-.09-.04-.15-.04-.17-.04h-.01Z"/>
          <path class="cls-2" d="M133.61,67.87c.68,0,1.2.18,1.55.54.88.38,1.39,1.19,1.53,2.41.18,1.88-.44,3.85-1.87,5.92-.84,1.22-2,2.28-3.47,3.16-.59.41-1.63.66-3.13.75-.39,0-.83-.21-1.33-.65-1.02-1.07-1.46-2.01-1.33-2.82l.07-.78c-.11-.11-.14-.2-.08-.27.06-.07.1-.11.12-.14.14,0,.18-.11.14-.32-.04-.22.03-.63.24-1.24s.46-1.18.78-1.7c.77-1.27,1.58-2.24,2.41-2.92,1.13-.97,2.15-1.56,3.06-1.77.49-.11.92-.17,1.31-.17M129.7,77.66c.12,0,.25-.02.4-.07.45-.14.86-.38,1.22-.73.36-.35.6-.58.71-.7.11-.11.21-.22.29-.31.08-.09.16-.22.24-.39s.14-.29.19-.37c.04-.08.11-.22.19-.42s.14-.35.17-.43c.03-.08.1-.25.19-.51.09-.26.17-.46.25-.59.08-.14.12-.48.14-1.04.01-.55-.07-.89-.25-1-.18-.08-.33-.12-.46-.12-.05,0-.1,0-.15.02-.16.04-.42.19-.78.44-1.72,1.45-2.75,3-3.09,4.66-.07.57,0,.99.19,1.28.13.19.32.29.57.29M133.61,66.87h0c-.46,0-.97.07-1.53.2-1.07.24-2.21.89-3.48,1.98-.9.73-1.79,1.8-2.62,3.16-.35.58-.65,1.22-.88,1.9-.19.58-.29,1.01-.3,1.36,0,0,0,.01-.01.02-.24.28-.35.72-.17,1.15l-.04.42c-.17,1.14.35,2.33,1.6,3.64l.03.03.04.03c.69.6,1.34.89,1.98.89h.06c1.68-.1,2.86-.4,3.61-.91,1.58-.95,2.84-2.11,3.75-3.44,1.56-2.25,2.24-4.46,2.04-6.58-.21-1.87-1.14-2.75-1.95-3.15-.53-.47-1.24-.71-2.12-.71h0ZM132.64,72.23s.03-.02.04-.03c-.01.3-.03.44-.04.5-.1.18-.19.41-.29.69-.08.22-.13.37-.16.44-.04.1-.1.25-.18.46-.05.14-.09.24-.12.29-.05.09-.13.24-.22.44-.05.12-.08.16-.09.16-.06.07-.14.16-.24.26-.11.11-.34.34-.7.68-.22.21-.45.36-.71.46,0-.08,0-.2.01-.34.3-1.39,1.21-2.75,2.71-4.02h0Z"/>
        </g>
        <g>
          <path class="cls-1" d="M148.88,81.25c-.6,0-1.15-.31-1.66-.91-.48-.58-.73-1.3-.73-2.16,0-.79.25-2.1.77-4.02,0-.03.01-.07.02-.11-.05.04-.11.08-.16.12-.17.13-.4.33-.7.59-.32.27-.6.49-.84.66-.15.1-.51.38-1.39,1.13-2.93,2.53-3.12,2.53-3.37,2.53-.21,0-.5-.07-1.28-.55-.66-.41-1-.91-1-1.46,0-.28.07-.84.64-2.55.41-1.24.91-2.47,1.49-3.66.01-.03.08-.22.19-1.11.09-.52.35-2.07,1.48-2.07.62,0,1.19.29,1.69.85.48.55.72,1.12.72,1.71,0,.39-.06.81-.19,1.28.65-.48,1.23-.88,1.7-1.18l1.18-.71.98-.31h.08c.44,0,.89.15,1.34.44.47.3.73.64.78,1.01,0,0,.02.02.03.03.54.56.79,1.18.79,1.88,0,.61-.18,1.64-.54,3.16-.43,1.77-.52,2.39-.53,2.6,0,.27.03.52.1.73.13.33.19.58.19.77,0,.27-.14.53-.44.85-.3.32-.75.48-1.33.48Z"/>
          <path class="cls-2" d="M142.34,68.17c.48,0,.91.23,1.31.68.4.45.59.91.59,1.38s-.11,1.01-.32,1.63c-.22.62-.37.99-.46,1.11.04-.02.11-.08.2-.17.23-.23.59-.5,1.09-.82.7-.52,1.29-.93,1.77-1.22l1.12-.68.85-.27c.34,0,.7.12,1.07.36.37.24.56.48.56.73,0,.07.07.16.2.27.41.43.61.93.61,1.5s-.18,1.58-.53,3.04c-.35,1.46-.53,2.36-.54,2.7-.01.34.03.65.14.92.1.27.15.47.15.6s-.1.29-.31.51c-.2.22-.53.32-.97.32s-.87-.24-1.27-.73c-.41-.49-.61-1.1-.61-1.84s.25-2.03.75-3.89c.02-.14.04-.25.07-.36.02-.1.04-.18.05-.24.01-.06.02-.11.03-.15.01-.04.02-.11.02-.19s-.05-.12-.14-.12-.23.06-.43.17c-.19.11-.37.24-.54.37-.17.14-.41.33-.71.6-.31.26-.57.47-.8.63s-.7.54-1.43,1.16c-1.86,1.61-2.87,2.41-3.04,2.41s-.51-.16-1.02-.48c-.51-.32-.76-.66-.76-1.04s.2-1.17.61-2.4c.41-1.22.89-2.43,1.46-3.6.07-.14.15-.55.24-1.26.18-1.09.51-1.63.99-1.63M142.34,67.17c-1.04,0-1.7.83-1.97,2.47-.09.72-.15.96-.17,1.02-.58,1.21-1.08,2.45-1.49,3.69-.59,1.76-.66,2.38-.66,2.71,0,.51.21,1.25,1.24,1.89.73.45,1.16.63,1.55.63.43,0,.63,0,3.7-2.66.9-.76,1.23-1.01,1.35-1.09.17-.12.36-.26.56-.43-.29,1.25-.44,2.16-.44,2.79,0,.97.28,1.81.85,2.48.6.72,1.29,1.09,2.04,1.09s1.3-.21,1.7-.64c.25-.26.58-.67.58-1.2,0-.26-.07-.55-.22-.95-.05-.15-.08-.33-.07-.53,0-.1.05-.56.52-2.5.38-1.58.56-2.62.56-3.28,0-.82-.29-1.55-.87-2.17-.1-.37-.36-.79-.97-1.18-.53-.34-1.07-.51-1.61-.51h-.16l-.15.05-.85.27-.11.04-.1.06-1.12.68c-.23.14-.49.31-.76.5,0-.06,0-.12,0-.17,0-.71-.28-1.39-.84-2.03-.74-.85-1.53-1.02-2.06-1.02h0Z"/>
        </g>
        <g>
          <path class="cls-1" d="M156.69,81.18c-.55,0-1.11-.26-1.71-.79-.58-.29-1.08-.76-1.5-1.4-.46-.7-.65-1.27-.59-1.74.16-1.76.79-3.65,1.88-5.6,1.1-1.98,2.4-3.32,3.85-3.97.4-.18.83-.27,1.28-.27.15,0,.3,0,.45.03.86.11,1.26.56,1.44.92.25.48.32.88.21,1.23.02,0,.03,0,.05,0,.96-.14,1.14-.3,1.15-.3l.05-.04.08-.05c.16-.08.35-.12.57-.12.18,0,.38.03.61.08.23.06.94.23.94.83,0,.04,0,.12.08.27,0,0,0,.02.01.03.21.08.31.21.36.3.18.33.03.69-.1.92-.22.41-.52.75-.9,1.02-.37.24-.56.38-.67.45v.02c.35.81.14,1.87-.64,3.18-.72,1.2-1.71,2.3-2.94,3.27-1.24.97-2.41,1.53-3.48,1.66-.15.05-.32.07-.48.07ZM157,77.23s.05.01.11.02c.01,0,.19-.01.78-.3.4-.39.6-.51.76-.56.05-.07.09-.15.12-.24.06-.17.24-.54.95-1.45.54-.59.73-.92.8-1.09.12-.28.1-.42.09-.46,0-.03-.01-.06-.02-.08-.01,0-.14-.05-.19-.07l-.45.13h-.07c-.2,0-.41-.08-.67-.26l-.06-.04-.24-.3-.18.18c-.47.47-.87,1.12-1.2,1.94-.33.83-.52,1.5-.56,1.97-.04.44,0,.59.01.62,0,0,0,0,0,0Z"/>
          <path class="cls-2" d="M159.9,67.91c.13,0,.25,0,.39.03.52.07.87.28,1.05.65.34.66.26,1.08-.24,1.26-.25,0-.37.1-.37.31.06.03.16.04.31.04.24,0,.6-.04,1.08-.11.77-.11,1.25-.26,1.43-.44.09-.05.21-.07.34-.07s.3.02.49.07c.37.09.56.2.56.34s.04.29.12.48c.08.18.15.27.22.27.23.02.25.2.07.54s-.43.62-.75.85c-.57.36-.86.58-.88.66-.02.08-.01.2.03.36.29.7.1,1.63-.59,2.79s-1.63,2.2-2.82,3.13c-1.19.93-2.28,1.45-3.28,1.56-.12.04-.24.06-.37.06-.43,0-.91-.24-1.43-.71-.52-.25-.97-.67-1.36-1.26-.38-.59-.56-1.05-.51-1.39.16-1.72.77-3.53,1.82-5.42s2.26-3.14,3.62-3.76c.34-.15.7-.23,1.08-.23M157.1,77.75c.2,0,.56-.13,1.08-.39.29-.29.5-.46.61-.49s.18-.06.2-.08.06-.07.1-.15c.05-.08.09-.18.14-.29.09-.25.38-.69.88-1.33.45-.5.74-.9.87-1.21.12-.31.16-.56.12-.76-.04-.2-.1-.32-.15-.36-.06-.03-.14-.07-.24-.1-.1-.03-.19-.07-.25-.12l-.58.17c-.09,0-.22-.06-.37-.17l-.54-.68-.58.58c-.52.52-.96,1.22-1.31,2.11-.35.88-.55,1.59-.6,2.11-.04.52,0,.84.12.97.12.12.28.19.48.2,0,0,.01,0,.02,0M159.9,66.91c-.52,0-1.02.11-1.49.32-1.55.7-2.93,2.11-4.08,4.18-1.12,2.01-1.77,3.97-1.94,5.82-.08.56.13,1.21.67,2.03.45.69,1,1.21,1.63,1.55.68.59,1.34.87,1.99.87.2,0,.39-.03.58-.08,1.15-.15,2.39-.75,3.68-1.76,1.28-1,2.31-2.15,3.06-3.4.74-1.24,1.01-2.34.8-3.26.09-.06.2-.13.33-.22.48-.34.83-.74,1.09-1.22.28-.53.31-.99.1-1.4-.09-.18-.23-.32-.39-.42,0-.42-.25-.99-1.32-1.25-.27-.06-.5-.1-.72-.1-.29,0-.56.06-.79.17l-.15.07-.07.07s-.15.06-.37.11c-.04-.27-.14-.56-.3-.87-.23-.45-.73-1.04-1.81-1.18-.17-.02-.35-.03-.52-.03h0ZM157.49,76.58c.04-.31.16-.85.52-1.75.25-.64.56-1.17.9-1.57h.02c.21.16.55.37.96.37h.07c-.1.15-.27.38-.57.71l-.02.03-.02.03c-.74.94-.94,1.34-1.03,1.6-.2.1-.42.27-.7.54-.04.02-.08.04-.11.05h0Z"/>
        </g>
        <g>
          <path class="cls-1" d="M168.25,80.36c-.17,0-.35-.04-.55-.13-1.12-.48-1.72-1.38-1.72-2.58,0-1.07.33-2.74,1-5.12l.02-.05.03-.05c.34-.62.52-1.21.52-1.73.08-.53.22-1.14.43-1.88.3-1.08.44-1.31.58-1.44.22-.23.56-.34,1-.34.12,0,.24,0,.38.02.64.07,1.08.32,1.31.74.6.68.71,1.7.33,3.05.1-.11.21-.23.32-.35.45-.5.96-.89,1.53-1.17.59-.29,1.06-.42,1.46-.42.74.12,1.31.44,1.76.98.44.52.71,1.22.81,2.08v.05s-.02.24-.02.24c.33-.34.69-.7,1.09-1.05.62-.48,1.19-.71,1.71-.71.48,0,.91.18,1.28.54.64.38,1.12,1.02,1.44,1.9.31.86.41,1.77.32,2.7-.08.79,0,1.58.25,2.34.35.6.25,1.12.09,1.44-.3.61-.7.74-.98.74-.6,0-1.28-.14-2-.43-1.09-.42-1.32-1.11-1.32-1.6v-2.11c0-.6-.04-.92-.07-1.08-.11.06-.32.21-.64.6-.55.67-1.21,1.64-1.97,2.88-.72,1.19-1.36,1.74-2,1.74-.19,0-.38-.05-.55-.15-1.06-.36-1.52-1.16-1.26-2.21.5-1.65.88-3,1.11-4.04-.06.04-.15.08-.24.15-.07.05-.6.38-.7.44-.09.06-.19.14-.31.24-.09.1-.48.57-1.62,2.32-1.04,1.6-1.48,2.15-1.71,2.38-.18.45-.36.72-.56.88-.15.11-.33.17-.53.17Z"/>
          <path class="cls-2" d="M169.55,67.52c.1,0,.21,0,.33.02.5.06.82.23.95.53.59.61.62,1.66.1,3.13-.27.57-.56,1.33-.85,2.28.27-.48,1-1.36,2.18-2.65.41-.45.87-.8,1.38-1.05.51-.25.92-.37,1.24-.37.54.09,1,.36,1.38.8.37.44.61,1.05.7,1.82l-.17,1.77c.52-.7,1.21-1.44,2.07-2.21.51-.39.97-.58,1.38-.58.36,0,.68.15.97.44.57.32.99.87,1.27,1.67.28.79.38,1.62.29,2.48s0,1.71.27,2.55c.23.41.27.76.12,1.07-.15.31-.32.46-.53.46-.54,0-1.15-.13-1.82-.39-.67-.26-1-.64-1-1.14v-2.11c0-.91-.08-1.43-.24-1.56-.07-.04-.15-.06-.23-.06-.31,0-.68.27-1.13.82-.57.69-1.24,1.67-2.01,2.94-.61,1-1.13,1.5-1.57,1.5-.12,0-.23-.04-.33-.11-.86-.27-1.19-.82-.99-1.63.59-1.93,1-3.45,1.22-4.56-.08-.13-.19-.19-.34-.19-.2,0-.46.11-.78.33-.07.05-.18.11-.32.2s-.27.17-.37.24c-.1.07-.22.16-.36.27-.25.25-.82,1.06-1.72,2.43-.9,1.37-1.47,2.16-1.72,2.36-.16.41-.31.66-.44.76-.06.05-.14.07-.23.07-.1,0-.22-.03-.35-.09-.95-.41-1.43-1.12-1.43-2.12s.33-2.67.99-4.98c.39-.7.58-1.36.58-1.97.07-.43.2-1.01.41-1.75.2-.74.35-1.14.44-1.21.12-.14.34-.21.66-.21M169.55,66.52c-.58,0-1.03.16-1.35.48-.27.25-.43.64-.71,1.66-.22.78-.36,1.39-.43,1.86v.08s-.01.08-.01.08c0,.44-.15.94-.45,1.49l-.05.1-.03.11c-.69,2.42-1.02,4.14-1.02,5.25,0,1.4.72,2.48,2.03,3.04.25.11.49.17.74.17.31,0,.59-.09.83-.27.26-.2.48-.51.69-.99.28-.3.75-.91,1.71-2.39,1.09-1.67,1.45-2.12,1.56-2.24.04-.03.07-.06.11-.09-.21.8-.48,1.72-.8,2.77v.02s-.01.03-.01.03c-.32,1.3.25,2.33,1.54,2.79.23.13.49.19.75.19,1.08,0,1.86-1.06,2.42-1.98.66-1.09,1.25-1.97,1.75-2.61v2.05c0,.54.21,1.52,1.64,2.07.78.3,1.52.46,2.18.46.35,0,1-.13,1.43-1.02.2-.41.33-1.06-.09-1.89-.21-.68-.28-1.36-.2-2.06.11-1.01,0-1.99-.34-2.92-.35-.97-.89-1.68-1.6-2.13-.45-.42-1-.64-1.58-.64-.63,0-1.3.26-1.98.78l-.03.02-.03.03c-.13.11-.25.23-.38.34-.16-.64-.43-1.18-.8-1.62-.53-.63-1.2-1.01-1.98-1.14h-.08s-.08-.01-.08-.01c-.47,0-1.02.16-1.68.48-.32.16-.62.34-.9.56,0-.78-.21-1.43-.64-1.94-.24-.4-.71-.83-1.66-.94-.16-.02-.31-.03-.44-.03h0Z"/>
        </g>
        <g>
          <path class="cls-1" d="M186.44,80.27l-1.35-.54-.18-.72c-.61-.39-.83-.96-.62-1.61l.02-.05.03-.04c.31-.52.87-1.77,1.69-3.7.93-2.2,1.25-3,1.34-3.27.02-.79.39-1.19.7-1.39.22-.16.48-.25.76-.25.43,0,.85.23,1.25.69.56.64.84,1.46.84,2.44,0,.25-.1.74-.8,2.51-.51,1.28-1.02,2.45-1.53,3.47-.69,1.4-.93,1.77-1.05,1.93-.33.45-.73.54-.99.54h-.1ZM191.16,67.25c-.59,0-1.21-.31-1.89-.95-.68-.64-1.02-1.35-1.02-2.1,0-.19.05-.39.68-1.35.33-.5.46-.71.51-.8v-.39h.5c.46,0,.96.13,1.48.39l.17.08.07.17c.05.13.23.46.82,1.21.56.72.82,1.28.82,1.77,0,1.25-.78,1.96-2.13,1.96Z"/>
          <path class="cls-2" d="M189.94,62.16c.39,0,.8.11,1.26.34.11.27.41.71.88,1.33.48.61.71,1.1.71,1.46,0,.98-.54,1.46-1.63,1.46-.45,0-.97-.27-1.55-.82-.58-.54-.87-1.12-.87-1.73,0-.11.2-.47.59-1.07s.59-.92.59-.97M188.82,69.19c.28,0,.57.17.88.52.48.54.71,1.25.71,2.11,0,.27-.25,1.05-.77,2.33-.51,1.28-1.01,2.43-1.51,3.43-.5,1.01-.83,1.63-1,1.85s-.37.34-.59.34l-1.02-.41-.17-.68c-.54-.27-.74-.65-.58-1.12.32-.54.89-1.8,1.72-3.76.83-1.96,1.29-3.09,1.38-3.38,0-.5.16-.85.48-1.05.16-.12.32-.17.49-.17M189.94,61.16h-1v.75c-.07.12-.2.32-.43.67-.6.9-.76,1.25-.76,1.62,0,.9.4,1.72,1.18,2.46.78.73,1.51,1.09,2.23,1.09,1.65,0,2.63-.92,2.63-2.46,0-.6-.29-1.26-.92-2.08-.59-.75-.72-1.03-.75-1.1l-.14-.34-.33-.17c-.59-.3-1.17-.45-1.71-.45h0ZM188.82,68.19h0c-.37,0-.73.12-1.05.35-.4.26-.85.77-.9,1.7-.1.27-.4,1.03-1.3,3.17-1,2.38-1.46,3.29-1.66,3.64l-.05.09-.03.1c-.21.64-.13,1.48.65,2.07l.07.29.12.5.47.19,1.02.41.18.07h.19c.54,0,1.04-.26,1.39-.74.14-.19.4-.59,1.1-2.01.51-1.03,1.03-2.21,1.55-3.51.77-1.93.84-2.41.84-2.7,0-1.11-.32-2.04-.96-2.77-.5-.57-1.05-.86-1.63-.86h0Z"/>
        </g>
        <g>
          <path class="cls-1" d="M197.61,89.37c-.36,0-.7-.12-1.01-.37-.87-.66-1.01-.86-1.08-1.02l-.15-.34c-.06-.14-.11-.28-.14-.43-.38-2.04.13-5.04,1.58-9.17.03-.05.05-.09.08-.14-.15.08-.71.36-.92.47-.23.12-.41.21-.54.26-.13.05-.26.1-.41.15-.39.11-.67.16-.91.16-.63,0-1.25-.42-1.9-1.29-.62-.82-.92-1.5-.92-2.08,0-.54.19-1.2.58-2.02.36-.75.73-1.41,1.09-1.95.38-.57,1.02-1.21,1.95-1.98.91-.75,1.56-1.23,1.98-1.49.4-.24.87-.49,1.39-.72.42-.26.75-.4,1.03-.42.35-.08.71-.12,1.07-.12.51,0,1.04.08,1.55.24l.07.02.06.04c.34.24.72.63,1.14,1.2.43.58.7,1.12.8,1.62v.05s.01.05.01.05c0,.43-.05.83-.16,1.17-.1.32-.35.93-.8,1.93-.34.54-.62,1.05-.87,1.56-.3.61-.34.77-.34.79v.09l-.03.04c-.12.33-.59,1.39-1.45,3.25-.04.18-.12.56-.27,1.12-.43,1.57-.76,2.88-.98,3.9-.5,2.65-.26,3.49-.08,3.76l.04.06.02.07c.08.24.18.86-.68,1.31-.27.15-.54.22-.82.22ZM200.05,70.55c-.26.11-.79.39-1.8,1.17-1.48,1.13-2.45,2.23-2.89,3.25l-.1.27c.32-.05.63-.17.94-.35.59-.34,1.22-.84,1.89-1.49.67-.65,1.2-1.32,1.58-1.99.23-.42.34-.68.38-.85Z"/>
          <path class="cls-2" d="M200.4,67.38c.47,0,.93.07,1.41.22.29.2.63.57,1.02,1.09.38.52.62,1,.71,1.43,0,.39-.05.73-.14,1.02s-.35.92-.78,1.87c-.32.5-.61,1.01-.87,1.55-.26.53-.39.86-.39.97-.11.32-.6,1.41-1.46,3.26-.02.14-.11.52-.27,1.16-.43,1.56-.76,2.87-.99,3.91-.41,2.18-.41,3.56,0,4.15.09.27-.06.51-.44.71-.2.11-.39.16-.59.16-.24,0-.48-.09-.71-.27-.57-.43-.88-.71-.94-.83s-.11-.24-.15-.34c-.04-.1-.08-.21-.1-.32-.36-1.93.16-4.9,1.56-8.91.41-.73.59-1.18.54-1.36-.23.11-.5.25-.82.42s-.56.29-.71.37c-.16.08-.35.18-.56.29-.21.11-.38.19-.49.24-.11.05-.24.09-.37.14-.32.09-.57.14-.75.14-.45,0-.95-.36-1.5-1.09-.54-.72-.82-1.32-.82-1.79s.18-1.06.53-1.8c.35-.74.7-1.37,1.05-1.89s.97-1.14,1.85-1.87c.88-.73,1.52-1.21,1.92-1.45.4-.24.84-.47,1.34-.7.41-.25.7-.37.88-.37.33-.08.67-.11,1.01-.11M194.84,75.77c.55,0,1.09-.15,1.61-.46.62-.36,1.29-.88,1.99-1.56.7-.68,1.26-1.38,1.67-2.11.41-.73.56-1.22.44-1.5-.05-.1-.14-.16-.27-.16-.4,0-1.17.44-2.33,1.33-1.55,1.19-2.57,2.34-3.04,3.45l-.37.99c.1.01.21.02.31.02M200.4,66.38c-.38,0-.77.04-1.15.12-.34.03-.71.18-1.21.48-.52.24-.98.48-1.39.73-.44.26-1.11.77-2.04,1.53-.97.79-1.64,1.48-2.05,2.08-.38.56-.76,1.24-1.13,2.02-.42.88-.62,1.61-.62,2.23,0,.69.33,1.47,1.02,2.39.75,1,1.5,1.49,2.3,1.49.28,0,.61-.06,1.02-.17.2-.06.34-.12.47-.17.09-.04.22-.09.37-.17-1.2,3.68-1.61,6.43-1.25,8.37.04.19.09.37.17.54l.16.35c.13.28.35.54,1.24,1.22.4.31.84.47,1.31.47.36,0,.72-.1,1.07-.29.97-.51,1.1-1.32.91-1.91l-.05-.13-.08-.12s-.37-.58.16-3.39c.21-.98.54-2.28.97-3.83.16-.64.23-.95.27-1.11,1.13-2.44,1.37-3.02,1.45-3.24l.06-.16v-.06c.03-.08.11-.27.29-.64.24-.5.52-.98.81-1.45l.04-.06.03-.07c.6-1.34.76-1.77.83-1.99.12-.39.18-.83.18-1.31v-.1l-.02-.1c-.12-.58-.41-1.17-.89-1.81-.45-.61-.87-1.04-1.25-1.32l-.13-.09-.15-.05c-.57-.17-1.14-.26-1.7-.26h0ZM196.44,74.13c.49-.64,1.2-1.32,2.11-2.02.02-.02.05-.04.07-.05-.26.33-.55.65-.88.97-.45.44-.89.81-1.3,1.1h0Z"/>
        </g>
        <g>
          <path class="cls-1" d="M213.89,81.66c-.62,0-1.14-.15-1.54-.44-.28-.26-.65-.75-1.09-2.38-.03.02-.06.05-.09.07-.5.51-1.08.93-1.65,1.21-.72.46-1.45.71-2.1.71-.78,0-1.44-.34-1.98-1.02-1.02-.87-1.41-1.94-1.15-3.21.06-1.57.57-3.44,1.5-5.48,1.52-3.04,1.57-3.11,1.6-3.17l.09-.13.15-.06c.23-.09.48-.13.74-.13s.56.05.86.14c.64.19,1.02.52,1.13.97.16.35.16.86,0,1.59-.16.68-.44,1.42-.84,2.21-1.14,2.79-1.34,3.65-1.36,3.9-.02.31.04.39.04.39l.07.02.05.03c.05.03.11.05.18.05.08,0,.17-.02.27-.06.12-.05.48-.25,1.2-1.18.56-.72,1.06-1.6,1.48-2.62.41-.99.65-1.87.72-2.62-.04-.35.05-.72.28-1.09.21-.33.47-.61.79-.82.13-.16.28-.29.47-.39.14-.08.28-.12.42-.12.1,0,.2.02.29.06,0,0,.37-.02.37-.02.33,0,.51.22.74.52.17.23.23.28.23.29.87.74.76,2.25-.31,4.78-.82,1.72-1.57,3.94-.54,4.83.48.33.7,1.05.61,2.18v.05s-.02.05-.02.05c-.11.38-.45.83-1.46.87h-.16Z"/>
          <path class="cls-2" d="M208.39,68.14c.22,0,.46.04.71.12.49.15.75.37.8.66.14.23.13.66-.02,1.31-.15.65-.41,1.34-.8,2.09-.91,2.22-1.38,3.59-1.41,4.1-.03.51.1.81.39.9.13.09.28.13.45.13.14,0,.29-.03.45-.09.35-.14.82-.58,1.41-1.34.59-.76,1.1-1.67,1.55-2.74.44-1.07.7-2.01.76-2.82-.05-.25.02-.52.2-.82.18-.29.42-.53.71-.71.09-.14.21-.24.36-.32.07-.04.13-.06.18-.06.06,0,.11.02.14.07l.54-.03s.15.11.31.32c.16.22.27.35.34.39.63.54.48,1.94-.48,4.18-1.29,2.72-1.43,4.52-.41,5.41.36.25.51.84.44,1.77-.09.32-.43.49-1,.51-.05,0-.09,0-.14,0-.51,0-.93-.11-1.24-.34-.32-.29-.63-1.06-.95-2.31-.05-.14-.07-.35-.07-.65v-.51c-.23.57-.48.95-.75,1.16-.52.52-1.04.91-1.56,1.16-.7.44-1.32.67-1.88.67-.63,0-1.18-.29-1.62-.87-.91-.75-1.25-1.67-1.02-2.75.07-1.59.55-3.38,1.46-5.37,1-1.99,1.52-3.03,1.56-3.09.17-.07.36-.1.56-.1M208.39,67.14c-.32,0-.63.05-.91.16l-.3.11-.18.27c-.06.09-.1.15-1.63,3.2-.96,2.1-1.48,4.01-1.56,5.7-.26,1.39.18,2.62,1.29,3.58.79.96,1.7,1.17,2.34,1.17.74,0,1.52-.26,2.37-.79.41-.2.81-.47,1.21-.8.29.9.6,1.47.96,1.81l.04.04.05.03c.49.36,1.1.54,1.83.54.06,0,.11,0,.17,0,1.39-.06,1.8-.8,1.93-1.23l.03-.1v-.1c.04-.48.15-1.9-.8-2.62-.58-.55-.33-2.07.68-4.2.82-1.92,1.56-4.22.22-5.37l-.03-.03s-.09-.11-.15-.2c-.22-.29-.54-.73-1.11-.73h-.06s-.26.02-.26.02c-.12-.04-.24-.06-.36-.06-.22,0-.44.06-.65.17-.22.12-.42.28-.57.46-.35.25-.65.56-.87.93-.28.46-.4.91-.36,1.36-.07.69-.3,1.5-.68,2.42-.41.98-.88,1.82-1.41,2.51-.48.62-.77.87-.9.97.06-.3.31-1.18,1.31-3.63.41-.81.7-1.57.86-2.29.19-.83.19-1.42,0-1.87-.13-.46-.49-.99-1.46-1.28-.35-.1-.68-.16-1-.16h0Z"/>
        </g>
        <g>
          <path class="cls-1" d="M220.64,82c-2,0-4.38-.85-4.38-4.92,0-1.73.59-3.68,1.76-5.79,1.65-2.97,3.48-4.47,5.43-4.47,3.56,0,4.31,1.99,4.31,3.66,0,1.2-.55,2.47-1.63,3.79-1.1,1.34-2.26,2.02-3.45,2.02-.91,0-1.72-.23-2.41-.7-.22.53-.27.87-.27,1.08,0,.45,0,.75.01.88.01.12.05.28.1.49.05.17.11.24.35.24.39,0,.71-.03.93-.1.31-.09.44-.15.49-.18.11-.06.29-.18.52-.35.28-.2.52-.37.72-.49.19-.11.37-.22.55-.33.17-.11.29-.19.36-.23.23-.13.39-.21.53-.24h.06s.06-.01.06-.01c.44,0,.86.13,1.24.39.54.38.66.81.66,1.11,0,.39-.22.84-.72,1.47-.45.57-.94.97-1.44,1.21l-.26.14c-.28.34-.6.52-.94.52h-.04c-.2.19-.52.35-.97.51-.56.2-1.1.3-1.61.3ZM221.74,72.22c.12.12.23.26.33.4.09.13.18.19.33.19.48,0,.86-.2,1.19-.62.43-.56.52-.9.52-1.09,0-.35-.06-.72-.18-.72-.27,0-.61.15-.99.44-.42.32-.81.76-1.14,1.29l-.07.11Z"/>
          <path class="cls-2" d="M223.46,67.32c2.54,0,3.81,1.05,3.81,3.16,0,1.09-.5,2.24-1.51,3.47-1.01,1.22-2.03,1.84-3.06,1.84s-1.9-.33-2.6-.99c-.39.77-.58,1.39-.58,1.87s0,.78.02.92.05.33.12.58c.11.41.39.61.83.61s.8-.04,1.07-.12c.27-.08.47-.15.59-.22.12-.07.32-.2.58-.39s.49-.35.68-.46.38-.23.56-.34c.18-.11.31-.19.37-.24.16-.09.28-.15.37-.17.34,0,.66.1.95.31.29.2.44.44.44.7s-.2.65-.61,1.16c-.41.51-.83.87-1.26,1.07l-.37.2c-.2.27-.41.41-.61.41h-.27c-.09.18-.39.36-.9.54-.51.18-.99.27-1.44.27-2.58,0-3.88-1.47-3.88-4.42,0-1.65.57-3.5,1.7-5.54,1.56-2.81,3.23-4.22,5-4.22M220.94,72.56c.09-.04.19-.07.29-.07s.24.14.42.41c.18.27.43.41.75.41.63,0,1.16-.27,1.58-.82.42-.54.63-1.01.63-1.39,0-.82-.23-1.22-.68-1.22-.39,0-.82.18-1.29.54-.48.36-.9.84-1.26,1.43l-.44.71M223.46,66.32c-2.15,0-4.12,1.59-5.87,4.73-1.21,2.18-1.83,4.21-1.83,6.03,0,4.72,3.05,5.42,4.88,5.42.57,0,1.16-.11,1.78-.33.42-.15.75-.31.99-.49.32-.03.72-.18,1.11-.61l.18-.1c.56-.27,1.09-.72,1.58-1.34.57-.72.83-1.27.83-1.78,0-.42-.15-1.02-.87-1.52-.33-.23-.68-.37-1.05-.44.45-.34.9-.77,1.33-1.3,1.16-1.4,1.74-2.78,1.74-4.1,0-1.55-.62-4.16-4.81-4.16h0ZM222.37,72.17c.27-.39.56-.71.88-.96.15-.11.27-.19.36-.24,0,.04,0,.08,0,.12,0,0,0,.24-.42.78-.27.34-.52.42-.73.43-.03-.04-.06-.09-.1-.14h0ZM220.58,77.78c-.05-.18-.05-.26-.05-.27,0-.06-.01-.24-.01-.83,0-.07,0-.18.05-.35.64.31,1.35.46,2.13.46.04,0,.07,0,.11,0-.2.12-.42.27-.67.46-.31.23-.43.3-.46.32,0,0-.1.05-.4.14-.11.03-.32.07-.69.08h0Z"/>
        </g>
        <g>
          <path class="cls-1" d="M231.77,81.59c-1.17,0-2.22-.38-3.11-1.14-.92-.78-1.38-1.61-1.38-2.49,0-.79.5-1.08.98-1.08h.12c.11.04.28.11,1.09.6.58.35.92.42,1.1.42.35,0,.95-.04,1-.34,0-.04-.06-.38-.43-1.11-.81-1.19-1.28-2.86-1.38-4.89,0-1,.83-2.07,2.55-3.32,1.65-1.2,3.01-1.84,4.15-1.96h.03c1.84,0,2.37.24,2.63.45.35.28.66.72.97,1.36.31.65.46,1.12.46,1.47,0,.28-.1.75-.9,1.97-.22.45-.37.75-.4.84,0,.06-.04.16-.1.27-.06.12-.1.18-.15.23-.14.18-.26.26-.37.29-.08.05-.18.07-.28.07h-.16l-.06-.04s-.2,0-.2,0c-.42,0-.8-.21-1.2-.65-.41-.43-.61-.89-.61-1.36,0-.35.08-.69.25-1.01-.34.12-.8.35-1.42.78-.83.56-1.23,1.15-1.23,1.78,0,.7.17,1.32.51,1.89.17.19.41.58.87,1.74.37.95.56,1.8.56,2.51,0,.82-.39,1.51-1.12,2.01-.68.46-1.61.7-2.76.7Z"/>
          <path class="cls-2" d="M236.52,66.78c1.25,0,2.01.11,2.29.34.28.23.56.62.83,1.19.27.57.41.99.41,1.26,0,.29-.27.86-.82,1.7-.29.59-.45.91-.46.97-.01.06-.03.12-.07.19-.03.07-.06.11-.07.12-.01.01-.03.04-.07.08-.03.04-.06.07-.08.07s-.05.01-.08.03c-.02.01-.03.02-.05.02s-.03,0-.05-.02c-.02-.01-.09-.02-.2-.02-.05,0-.12,0-.2,0,0,0-.02,0-.02,0-.22,0-.49-.17-.79-.49-.32-.34-.48-.68-.48-1.02s.1-.67.31-.99c.2-.32.31-.5.31-.56s-.1-.08-.31-.08c-.54,0-1.3.33-2.26.99-.96.66-1.44,1.39-1.44,2.19s.2,1.54.61,2.19c.18.18.45.72.8,1.62.35.9.53,1.67.53,2.33s-.3,1.19-.9,1.6c-.6.41-1.43.61-2.48.61s-1.98-.34-2.79-1.02c-.8-.68-1.21-1.38-1.21-2.11,0-.39.16-.58.48-.58.09.02.41.2.95.53.54.33,1,.49,1.36.49.91,0,1.41-.25,1.5-.75,0-.32-.16-.79-.48-1.43-.79-1.18-1.24-2.74-1.33-4.69,0-.79.78-1.76,2.35-2.89,1.56-1.13,2.87-1.76,3.91-1.87M236.52,65.78h-.11c-1.23.14-2.67.81-4.39,2.06-1.88,1.36-2.76,2.54-2.76,3.7.1,2.14.59,3.87,1.46,5.19.14.29.23.5.27.64-.1.02-.23.03-.43.03-.04,0-.29-.02-.84-.35-.88-.53-1.05-.6-1.23-.64l-.12-.03h-.12c-.73,0-1.48.49-1.48,1.58,0,1.03.53,2,1.56,2.87.99.83,2.14,1.26,3.43,1.26s2.28-.26,3.04-.78c.88-.6,1.34-1.43,1.34-2.43,0-.79-.19-1.67-.6-2.69-.45-1.15-.72-1.61-.92-1.85-.28-.48-.42-1-.42-1.59,0-.45.34-.91,1.01-1.37.14-.1.27-.18.39-.26,0,.02,0,.05,0,.08,0,.6.25,1.18.75,1.7.51.54,1.01.81,1.52.81h.07s.07,0,.1,0c.09.03.19.04.29.04.16,0,.32-.04.47-.11.18-.06.38-.18.55-.41.09-.11.16-.2.24-.37.06-.11.1-.22.13-.34.03-.07.12-.26.37-.76.67-1.04.95-1.68.95-2.2,0-.44-.16-.96-.51-1.69-.34-.71-.71-1.21-1.11-1.54-.5-.4-1.34-.56-2.92-.56h0ZM238.49,73.7h0Z"/>
        </g>
        <g>
          <path class="cls-1" d="M39.08,112.19c-1.37,0-2.51-.41-3.4-1.22-.9-.82-1.35-1.99-1.35-3.46,0-.55.03-1.12.09-1.71.06-.64.27-1.39.63-2.31.36-.9.93-1.88,1.7-2.9.79-1.06,1.67-1.81,2.6-2.25.94-.43,1.73-.64,2.42-.64,1.47,0,2.58.38,3.29,1.12.7.74,1.06,1.47,1.06,2.16v.27c0,.58-.32,1.41-1.02,2.6-.35.62-.89,1.19-1.61,1.68-.73.49-1.48.76-2.23.78-.12,0-.25,0-.37,0-.56,0-1.1-.04-1.62-.13-.78-.13-.98-.15-1.02-.15.01.07-.11.32-.11,1.13.06.57.23.84.36.95.19.17.42.25.71.25.34,0,.65-.06.96-.2.32-.14.71-.4,1.15-.78.59-.5,1.06-.73,1.46-.73s.8.19,1.17.55.55.72.59,1.09v.05s0,.06,0,.06c-.09.66-.64,1.42-1.75,2.37-1.07.93-2.31,1.4-3.67,1.4ZM39.5,102.97c.1.01.24.03.43.03.89,0,1.09-.08,1.11-.09.06-.04.28-.18.87-.76.52-.51.59-.69.59-.71-.01,0-.01-.2-.65-.26h-.33s-.26,0-.94.61c-.4.35-.77.75-1.09,1.19Z"/>
          <path class="cls-2" d="M41.77,98.19c1.34,0,2.31.32,2.92.97.61.65.92,1.25.92,1.82v.27c0,.48-.32,1.26-.95,2.35-.32.57-.8,1.07-1.46,1.51s-1.31.67-1.97.7c-.12,0-.24,0-.35,0-.53,0-1.04-.04-1.53-.13-.6-.1-.97-.15-1.11-.15s-.26.08-.37.24c-.16.25-.24.71-.24,1.39.07.64.24,1.08.53,1.33.28.25.63.37,1.04.37s.79-.08,1.16-.24c.36-.16.79-.44,1.27-.85s.87-.61,1.14-.61.54.14.82.41.42.53.44.78c-.07.52-.59,1.21-1.58,2.06-.99.85-2.1,1.28-3.35,1.28s-2.27-.36-3.06-1.09c-.79-.73-1.19-1.76-1.19-3.09,0-.52.03-1.08.08-1.67.06-.59.25-1.31.59-2.18.34-.86.88-1.79,1.63-2.79.75-1,1.55-1.69,2.41-2.09.86-.4,1.6-.59,2.21-.59M39.93,103.49c.7,0,1.15-.05,1.34-.15.19-.1.52-.39.99-.85s.71-.79.73-.97c0-.5-.36-.78-1.09-.85h-.37c-.29,0-.72.24-1.27.73-.56.49-1.04,1.05-1.45,1.68.04.27.42.41,1.12.41M41.77,97.19c-.76,0-1.62.22-2.63.69-1.01.47-1.95,1.27-2.8,2.4-.8,1.06-1.39,2.08-1.76,3.02-.38.96-.6,1.76-.66,2.45-.06.6-.09,1.2-.09,1.76,0,1.62.51,2.91,1.51,3.83.98.9,2.24,1.35,3.74,1.35s2.83-.51,4-1.52c1.21-1.04,1.82-1.89,1.92-2.68v-.11s0-.11,0-.11c-.04-.49-.29-.96-.73-1.4-.32-.32-.66-.53-1.01-.63.16-.09.33-.19.49-.3.79-.53,1.38-1.15,1.78-1.85.74-1.27,1.08-2.15,1.08-2.84v-.27c0-.83-.4-1.67-1.19-2.51-.8-.85-2.03-1.28-3.65-1.28h0ZM41.58,101.67h.08s-.07.07-.11.11c-.44.44-.65.6-.72.66-.04,0-.12.02-.26.03.11-.11.22-.22.34-.32.4-.35.61-.46.67-.48h0ZM38.62,107.11c0-.23.01-.4.03-.52.13.02.3.05.52.08.54.09,1.12.14,1.7.14.12,0,.24,0,.36,0-.08.06-.17.13-.26.2-.51.43-.85.62-1.03.7-.24.1-.48.15-.75.15-.21,0-.31-.06-.38-.12,0,0-.13-.13-.19-.63h0Z"/>
        </g>
        <g>
          <path class="cls-1" d="M49.67,112.33c-.3,0-.56-.02-.79-.07-.63-.12-1.21-.49-1.74-1.08-.48-.54-.79-1.01-.93-1.43l-.11-.17c-.21-.24-.3-.69-.24-2.08.05-1.1.13-1.86.25-2.33.14-.56.52-1.7,1.17-3.48l.69-1.48-.79-.22c-.23-.03-.48-.18-.66-.42-.17-.22-.25-.47-.25-.72,0-.25.11-.55.35-.98.18-.32.48-.75.93-.75.12,0,.23,0,.38,0,.17,0,.38,0,.64,0,.66-.01.86-.07.91-.09.04-.02.08-.07.12-.16.1-.27.33-.71.72-1.33,1.08-2.1,1.52-2.61,1.78-2.82.39-.31.85-.49,1.36-.55.08,0,.16-.01.25-.01.45,0,.88.13,1.29.4l.08.05.06.08c.46.64.47,1.35.04,2-.12.24-.35.62-.65,1.06-.28.41-.49.74-.62.98-.04.05-.07.1-.1.15.33-.02.81-.09,1.42-.18.19-.03.37-.04.53-.04,1.04,0,1.69.58,1.84,1.64.06.49.09,1.17-.4,1.48-.21.13-.57.25-1.83.25-.67.11-1.39.18-2.05.19-.82.01-1,.05-1.03.06-.17.04-.28.22-.34.37l-.06.13-.1.07s-.03.05-.08.17c-.15.3-.43.83-.87,1.63-.54,1.61-1,3.38-1.31,5.18-.06.42-.01.57,0,.6h0s.19.09.72.15c.12.01.25.02.37.02.87,0,1.85-.32,2.89-.94l.83-.49c.14-.16.32-.25.53-.25.44,0,.75.41.99.82.1.15.19.33.25.5l.03.08v.08c0,1.07-.56,1.94-1.68,2.58-.96.61-2.01,1.02-3.09,1.2-.66.11-1.23.17-1.7.17Z"/>
          <path class="cls-2" d="M53.7,92.67c.35,0,.69.11,1.02.32.34.48.35.95.03,1.43-.14.27-.35.62-.65,1.05s-.51.77-.65,1.02c-.39.54-.44.84-.17.88.06,0,.13.01.23.01.35,0,.94-.07,1.78-.2.16-.03.31-.04.45-.04.78,0,1.23.4,1.35,1.21.07.54.01.87-.17.99-.18.11-.7.17-1.56.17-.73.11-1.41.18-2.06.19-.65.01-1.04.04-1.17.08-.27.07-.49.28-.65.65-.07.05-.15.17-.24.37-.14.27-.42.8-.85,1.6-.59,1.72-1.04,3.5-1.36,5.34-.07.45-.05.77.07.95.11.18.48.31,1.09.37.14.01.28.02.43.02.97,0,2.02-.34,3.14-1.01l.92-.54c.05-.09.11-.13.18-.13.15,0,.34.19.57.57.09.14.16.27.2.41,0,.88-.48,1.6-1.43,2.14-.93.59-1.9.97-2.92,1.14-.64.11-1.18.16-1.62.16-.27,0-.5-.02-.69-.06-.52-.1-1.01-.41-1.46-.92-.45-.51-.74-.95-.85-1.31l-.17-.27c-.14-.11-.18-.7-.14-1.75.04-1.05.12-1.8.24-2.23.14-.54.52-1.69,1.16-3.43l.92-1.97-1.36-.37c-.16-.02-.29-.1-.39-.24-.1-.14-.15-.28-.15-.42s.1-.39.29-.73c.19-.33.35-.49.49-.49,0,0,0,0,.01,0,.07,0,.2,0,.37,0s.39,0,.65,0c.53-.01.89-.05,1.07-.12.18-.07.32-.22.41-.44.09-.25.32-.67.68-1.26.79-1.54,1.35-2.44,1.67-2.69.32-.25.69-.4,1.11-.44.06,0,.13-.01.19-.01M53.7,91.67c-.1,0-.2,0-.3.02-.61.07-1.15.28-1.62.65-.33.26-.8.81-1.92,2.98-.34.56-.57.97-.7,1.27-.11.01-.3.03-.61.04-.26,0-.47,0-.63,0-.13,0-.23,0-.29,0h-.04s-.05,0-.05,0c-.8,0-1.23.75-1.37,1-.29.52-.42.88-.42,1.22,0,.36.12.72.36,1.03.24.33.58.54.97.61l.17.05-.42.9-.02.04v.04c-.67,1.8-1.06,2.96-1.2,3.53-.13.5-.22,1.27-.27,2.43-.06,1.38.02,2.02.34,2.4l.06.1c.17.47.51.97,1.01,1.54.6.67,1.28,1.09,2.02,1.23.26.05.55.08.88.08.5,0,1.09-.06,1.78-.17,1.15-.19,2.26-.62,3.3-1.28,1.56-.89,1.89-2.12,1.89-2.99v-.16l-.05-.16c-.07-.22-.18-.44-.32-.64-.16-.28-.61-1.02-1.4-1.02-.33,0-.62.13-.85.36l-.76.45c-.97.58-1.85.87-2.63.87-.11,0-.22,0-.32-.02-.12-.01-.21-.03-.29-.04,0-.04.01-.09.02-.14.3-1.73.73-3.44,1.29-5.08.42-.77.69-1.28.82-1.55v-.02s.02-.02.02-.02c0-.01.01-.03.02-.04l.1-.07.12-.26s.03-.07.05-.09c.1-.01.33-.03.88-.04.66-.01,1.37-.07,2.12-.19,1.26,0,1.7-.13,2.02-.32.82-.51.68-1.6.63-1.96-.19-1.31-1.06-2.09-2.34-2.09-.19,0-.4.02-.61.05-.13.02-.25.04-.36.05.05-.07.1-.14.15-.22.3-.44.53-.81.69-1.12.51-.8.48-1.72-.09-2.51l-.11-.16-.16-.1c-.49-.32-1.01-.48-1.56-.48h0Z"/>
        </g>
        <g>
          <path class="cls-1" d="M68.69,118.82c-1.11,0-2.18-.42-3.19-1.23-1.04-.84-1.56-1.73-1.56-2.63,0-1.46,1.02-1.62,1.45-1.62.47,0,1.02.35,1.78,1.12.76.78,1.03.82,1.04.82.2,0,.37-.05.53-.15.17-.1.34-.29.5-.56.2-.33.36-.62.49-.88.12-.24.26-.63.41-1.17l.34-1.22c.29-1.23.47-2.02.59-2.54-.37.16-.82.32-1.35.49-1.12.36-1.98.53-2.62.53-.73,0-1.35-.31-1.77-.89-.16-.22-.29-.46-.38-.73-.77,1.35-.82,1.35-1.07,1.36h-.29s-.15-.24-.15-.24q-.16-.27,1.6-3.5c1.13-2.91,1.52-3.39,1.82-3.49.02-.04.06-.09.1-.17.14-.25.16-.33.16-.33v-.08l.02-.03c.06-.18.08-.24,2-1.76,1.71-1.52,3.08-2.32,4.17-2.42.84.07,1.48.21,2.01.4.6.22,1.17.76,1.76,1.66.57.87.88,1.63.93,2.31-.05.65-.17,1.2-.37,1.73-.11.29-.39,1.06-1.01,1.06-.18,0-.31.03-.37.09-.05.04-.18.19-.35.64-.16.39-.31.7-.47.95l-.52,2.44c-.3,1.38-.52,2.37-.67,2.97-.15.61-.37,1.29-.66,2.04-.21,1.3-.81,2.46-1.8,3.45-1.02,1.01-2.05,1.56-3.08,1.61h-.01s-.01,0-.01,0ZM68.68,106.09c.17,0,.62-.06,1.68-.49,1.06-.43,1.33-.69,1.39-.79.12-.13.22-.28.37-.5.58-.78,1.07-1.29,1.53-1.6.31-.15.36-.29.36-.47,0-.03-.04-.12-.1-.25-.08-.16-.22-.34-.41-.54-.16-.16-.28-.2-.35-.21-.15.07-.72.41-2.47,2.24-1.56,1.63-1.94,2.34-2.03,2.6.01,0,.02,0,.03,0Z"/>
          <path class="cls-2" d="M73.38,97.99c.7.07,1.3.19,1.79.37.49.18.99.67,1.51,1.46.52.79.8,1.49.85,2.07-.05.52-.16,1.03-.34,1.51-.18.49-.36.73-.54.73-.32,0-.56.07-.71.22-.16.15-.32.42-.48.82-.16.4-.32.71-.48.93-.07.32-.25,1.16-.54,2.53-.29,1.37-.52,2.36-.66,2.96-.15.6-.37,1.28-.66,2.02-.18,1.22-.74,2.3-1.67,3.23-.93.93-1.85,1.42-2.75,1.46-1,0-1.96-.37-2.87-1.12s-1.38-1.5-1.38-2.24.32-1.12.95-1.12c.32,0,.79.32,1.43.97.63.65,1.1.97,1.39.97s.56-.07.8-.22c.24-.15.46-.39.66-.73s.37-.65.51-.92c.14-.27.28-.69.44-1.26.16-.57.27-.97.34-1.22.52-2.24.79-3.39.82-3.43.02-.04.03-.08.03-.1h-.03s-.05-.01-.07-.03c-.36.27-1.08.58-2.14.92s-1.89.51-2.46.51-1.03-.23-1.36-.68c-.33-.45-.49-1.04-.49-1.77v-.2c-.9,1.59-1.35,2.39-1.37,2.39-.02,0,.52-1,1.61-3,.84-2.15,1.37-3.24,1.6-3.26.07,0,.18-.13.32-.39s.22-.44.22-.53c.02-.07.63-.58,1.84-1.53,1.63-1.45,2.94-2.22,3.91-2.31M68.68,106.59c.37,0,1-.18,1.87-.53.87-.35,1.41-.67,1.62-.97.07-.07.19-.24.37-.51.52-.7.99-1.19,1.39-1.46.39-.18.58-.48.58-.88v-.07s-.05-.18-.15-.39c-.1-.21-.27-.44-.51-.68-.24-.24-.49-.36-.76-.36-.39.07-1.31.87-2.77,2.4-1.46,1.53-2.19,2.56-2.19,3.08,0,.25.19.37.56.37M73.39,96.98h-.09c-1.2.12-2.66.95-4.46,2.55-2.01,1.59-2.03,1.65-2.14,1.98l-.05.15v.03s-.05.09-.09.17c0,.01-.01.03-.02.04-.5.31-.96,1.19-1.94,3.69q-1.86,3.42-1.56,3.93l.29.49h.57c.4,0,.54,0,1.05-.83,0,0,0,0,0,0,.52.71,1.27,1.09,2.17,1.09.69,0,1.59-.18,2.77-.56.17-.06.34-.11.5-.16-.1.44-.23.97-.38,1.64-.05.16-.13.46-.24.86l-.09.32c-.17.63-.3.93-.37,1.08-.12.25-.28.54-.47.85-.16.26-.28.36-.33.4-.05.03-.11.05-.18.06-.1-.06-.33-.22-.77-.66-.87-.89-1.51-1.27-2.14-1.27-1.19,0-1.95.83-1.95,2.12,0,1.06.59,2.08,1.75,3.02,1.1.89,2.28,1.35,3.5,1.35h.05c1.16-.06,2.3-.65,3.41-1.75,1.05-1.05,1.7-2.29,1.93-3.67.29-.74.51-1.43.66-2.05.16-.64.38-1.64.67-2.99l.51-2.35c.16-.26.31-.57.46-.95.09-.22.16-.34.2-.41.02,0,.04,0,.07,0,.97,0,1.35-1.04,1.48-1.38.21-.57.35-1.17.4-1.77v-.08s0-.08,0-.08c-.06-.77-.39-1.6-1.01-2.55-.65-.98-1.3-1.59-2-1.85-.57-.21-1.25-.36-2.04-.43h-.09ZM69.72,105.31c.28-.36.7-.84,1.31-1.48,1.24-1.3,1.85-1.81,2.12-2.01.19.2.27.33.3.39,0,0,0,.02.01.02l-.09.06c-.51.34-1.04.9-1.64,1.7l-.02.02v.02c-.21.29-.27.37-.28.38l-.06.06-.04.06h0s-.21.22-1.17.61c-.17.07-.31.12-.45.17h0Z"/>
        </g>
        <g>
          <path class="cls-1" d="M81.04,111.98c-.55,0-1.11-.26-1.71-.79-.58-.29-1.08-.76-1.5-1.4-.46-.7-.65-1.27-.59-1.74.16-1.76.79-3.65,1.88-5.6,1.1-1.98,2.4-3.31,3.85-3.97.4-.18.83-.27,1.28-.27.15,0,.3,0,.45.03.86.11,1.26.56,1.44.92.25.48.32.88.21,1.23.02,0,.03,0,.05,0,.96-.14,1.14-.3,1.15-.3l.05-.04.08-.05c.16-.08.35-.12.57-.12.18,0,.38.03.61.08.23.06.94.23.94.83,0,.04,0,.12.08.27,0,0,0,.02.01.03.21.08.31.21.36.3.18.33.03.69-.1.92-.22.41-.52.75-.9,1.02-.37.24-.56.38-.67.45v.02c.35.81.14,1.87-.64,3.18-.72,1.2-1.71,2.3-2.94,3.26-1.24.97-2.41,1.53-3.48,1.66-.15.05-.32.07-.48.07ZM81.35,108.03s.05.01.11.02c.01,0,.19-.01.78-.3.42-.42.62-.52.76-.56.05-.07.09-.15.12-.24.06-.18.24-.54.95-1.45.54-.59.73-.92.8-1.09.12-.28.1-.42.09-.47,0-.03-.01-.06-.02-.08-.01,0-.14-.05-.19-.07l-.45.13h-.07c-.2,0-.41-.08-.67-.26l-.06-.04-.24-.3-.18.18c-.47.47-.87,1.12-1.2,1.94-.33.83-.52,1.5-.56,1.97-.04.44,0,.59.01.62,0,0,0,0,0,0Z"/>
          <path class="cls-2" d="M84.25,98.71c.13,0,.25,0,.39.03.52.07.87.28,1.05.65.34.66.26,1.08-.24,1.26-.25,0-.37.1-.37.31.06.03.16.04.31.04.24,0,.6-.04,1.08-.11.77-.11,1.25-.26,1.43-.44.09-.05.21-.07.34-.07s.3.02.49.07c.37.09.56.2.56.34s.04.29.12.48c.08.18.15.27.22.27.23.02.25.2.07.54-.18.34-.43.62-.75.85-.57.36-.86.58-.88.66-.02.08-.01.2.03.36.29.7.1,1.63-.6,2.79s-1.63,2.2-2.82,3.13c-1.19.93-2.28,1.45-3.28,1.56-.12.04-.24.06-.37.06-.43,0-.91-.24-1.43-.71-.52-.25-.98-.67-1.36-1.26-.39-.59-.56-1.05-.51-1.39.16-1.72.76-3.53,1.82-5.42,1.05-1.89,2.26-3.14,3.62-3.76.34-.15.7-.23,1.08-.23M81.45,108.55c.2,0,.56-.13,1.08-.39.29-.29.5-.46.61-.49s.18-.06.2-.08c.02-.02.06-.07.1-.15.04-.08.09-.18.14-.29.09-.25.38-.69.88-1.33.45-.5.74-.9.87-1.21.12-.31.16-.56.12-.76-.05-.2-.1-.32-.15-.36s-.14-.07-.24-.1c-.1-.03-.19-.07-.26-.12l-.58.17c-.09,0-.22-.06-.37-.17l-.54-.68-.58.58c-.52.52-.96,1.22-1.31,2.11s-.55,1.59-.59,2.11c-.05.52,0,.84.12.97s.28.19.48.2c0,0,.01,0,.02,0M84.25,97.71c-.52,0-1.02.11-1.49.32-1.55.7-2.93,2.11-4.08,4.18-1.12,2.01-1.77,3.96-1.94,5.82-.08.56.13,1.22.67,2.03.45.69,1,1.21,1.63,1.55.68.59,1.34.87,1.99.87.2,0,.39-.03.58-.08,1.16-.15,2.37-.73,3.68-1.76,1.28-1,2.31-2.15,3.06-3.4.74-1.24,1.01-2.34.8-3.26.09-.06.2-.13.33-.22.48-.34.83-.74,1.09-1.22.28-.53.31-1,.1-1.4-.09-.18-.23-.32-.39-.42,0-.42-.25-.99-1.32-1.25-.27-.06-.5-.1-.72-.1-.3,0-.56.06-.79.17l-.14.07-.07.07s-.15.06-.37.11c-.04-.27-.14-.56-.3-.87-.23-.45-.73-1.04-1.81-1.18-.17-.02-.35-.03-.52-.03h0ZM81.84,107.38c.04-.31.16-.85.52-1.75.26-.64.56-1.17.9-1.57h.02c.21.16.55.37.96.37h.06c-.1.15-.27.38-.57.71l-.02.03-.02.03c-.74.94-.94,1.35-1.03,1.59-.2.1-.42.27-.7.54-.04.02-.08.04-.11.05h0Z"/>
        </g>
        <g>
          <path class="cls-1" d="M94.29,111.25c-.53,0-1.06-.09-1.59-.28l-.1-.04-.08-.07c-.4-.38-.69-.66-.85-.85-.56-.58-.92-1.41-1.05-2.44-.14-1.01.11-2.45.75-4.41.64-1.95,1.28-3.23,1.96-3.9.58-.73,1.26-1.12,1.99-1.12.3,0,.6.07.9.2l.11.05.08.09c.32.38.49.89.51,1.52.01.61-.14,1.17-.47,1.69-.92,1.23-1.51,2.75-1.76,4.56-.27.97-.12,1.17-.12,1.17.08.02.15.03.21.03.38,0,.83-.3,1.31-.86.66-.78,1.26-1.87,1.78-3.24.08-.21.18-.55.29-1.04.14-.64.23-.89.29-1.03.2-.72.62-1.27,1.25-1.62.37-.21.7-.31,1.01-.31.25,0,.49.07.68.21.83.38,1.24,1.1,1.16,2.01,0,.8-.23,1.68-.7,2.55-.42.79-.75,1.46-.97,1.98-.25.6-.79,1.38-1.64,2.39-.88,1.03-1.63,1.67-2.3,1.96-.81.52-1.73.8-2.65.8Z"/>
          <path class="cls-2" d="M95.32,98.65c.23,0,.47.05.71.16.25.29.38.7.39,1.21.01.51-.12.98-.39,1.41-.95,1.27-1.56,2.86-1.84,4.76-.29,1.04-.2,1.62.27,1.73.1.03.21.04.31.04.54,0,1.11-.35,1.7-1.04.7-.83,1.33-1.96,1.87-3.38.09-.23.19-.59.31-1.1.11-.51.2-.83.27-.97.16-.61.5-1.06,1.02-1.36.29-.17.55-.25.76-.25.17,0,.31.05.43.15.68.29.99.8.92,1.53,0,.77-.22,1.56-.65,2.36-.43.8-.76,1.48-.99,2.02s-.75,1.3-1.56,2.26c-.82.96-1.52,1.57-2.11,1.82-.81.51-1.62.76-2.45.76-.47,0-.95-.08-1.43-.25-.39-.36-.66-.63-.82-.82-.5-.52-.81-1.25-.93-2.18-.12-.93.12-2.32.73-4.18.61-1.86,1.22-3.09,1.84-3.71.52-.65,1.06-.97,1.64-.97M95.32,97.65c-.88,0-1.68.44-2.39,1.3-.72.74-1.38,2.07-2.04,4.06-.67,2.03-.92,3.54-.77,4.63.15,1.14.56,2.06,1.2,2.73.15.17.43.46.85.85l.16.15.2.07c.58.2,1.17.3,1.75.3.99,0,1.97-.29,2.92-.87.72-.33,1.51-1,2.4-2.06.89-1.05,1.46-1.88,1.72-2.52.21-.51.53-1.16.94-1.94.5-.93.76-1.87.76-2.79.09-1.09-.42-1.97-1.41-2.44-.27-.18-.59-.28-.93-.28-.39,0-.81.12-1.26.38-.73.41-1.24,1.06-1.47,1.89-.07.17-.16.46-.3,1.09-.13.57-.21.83-.26.95-.51,1.33-1.08,2.37-1.7,3.11-.28.33-.49.5-.65.59.02-.11.05-.24.1-.4l.02-.06v-.07c.26-1.73.81-3.17,1.66-4.3l.02-.03.02-.03c.38-.6.56-1.26.54-1.97-.02-.74-.23-1.36-.63-1.83l-.15-.18-.22-.09c-.36-.16-.74-.24-1.1-.24h0Z"/>
        </g>
        <g>
          <path class="cls-1" d="M106.5,111.62c-.3,0-.66-.12-1.16-.37-.53-.27-.96-.57-1.26-.87-.35-.47-.58-1.21-.75-2.37-.16-1.08-.23-2.21-.21-3.37.02-1.16.26-2.77.69-4.79l.03-.14.09-.1c.39-.42.86-.73,1.41-.94.25-.09.48-.14.7-.14.34,0,.64.12.87.34.42.25.69.7.79,1.35.09.59.02,1.14-.2,1.64-.02.12-.07.38-.2.95l-.02.07-.04.07c-.21.36-.22.5-.22.52-.01.15,0,.33.02.55.1.54.06.99-.13,1.32-.19,1.04-.04,1.37,0,1.44l.06.09s.1-.07.16-.12c.49-.47,1-1.11,1.5-1.87.43-.65.56-.94.6-1.04-.11-.31-.05-.54.03-.68.09-.16.24-.3.49-.47.16-.11.22-.16.23-.18,0,0,.03-.07.08-.23.08-.23.15-.4.2-.51l.04-.07.06-.06s.07-.08.11-.17c0-.24.1-.48.33-.74.09-.1.15-.18.2-.23.14-.59.51-1.01,1.08-1.22.23-.08.46-.13.69-.13.33,0,.65.09.94.28.52.33.77.84.73,1.5-.04.52-.26,1.25-.67,2.23-.4.96-.74,1.63-1.04,2.05-.26.37-.46.67-.59.89-.46.92-1.09,1.79-1.84,2.54-.13.13-.25.25-.36.37-.13.15-.27.27-.4.38-1.69,1.92-2.45,2.2-2.91,2.22.02,0-.05.01-.13.01Z"/>
          <path class="cls-2" d="M106.03,99.03c.23,0,.42.08.57.24.32.16.52.5.59,1.02.08.52.02,1-.19,1.43,0,.05-.07.37-.2.99-.18.32-.28.56-.29.73s0,.38.02.63c.09.5.06.86-.1,1.09-.18.93-.16,1.56.07,1.9.02.28.12.43.29.43.16,0,.38-.12.66-.36.54-.52,1.08-1.18,1.6-1.97.52-.79.75-1.26.68-1.41-.07-.15-.08-.26-.03-.34.05-.08.16-.18.34-.31.18-.12.29-.21.34-.27.04-.06.1-.19.17-.39s.12-.35.17-.44c.11-.11.2-.27.27-.48-.04-.11.02-.27.19-.46s.27-.31.29-.36c.09-.48.35-.79.78-.95.18-.07.35-.1.51-.1.24,0,.46.07.67.2.36.23.53.57.49,1.04s-.24,1.16-.63,2.07c-.39.92-.71,1.57-.99,1.96-.27.39-.48.69-.61.92-.45.91-1.04,1.72-1.77,2.45-.14.14-.26.27-.37.39s-.23.23-.34.32c-1.22,1.38-2.1,2.08-2.62,2.11-.03,0-.07.01-.1.01-.21,0-.52-.11-.93-.32-.49-.25-.87-.51-1.14-.78-.25-.34-.45-1.04-.61-2.09s-.23-2.15-.2-3.28c.02-1.13.25-2.7.68-4.69.34-.36.75-.63,1.22-.82.19-.07.36-.11.52-.11M106.03,98.03c-.28,0-.57.06-.87.17-.62.24-1.15.59-1.6,1.07l-.19.2-.06.27c-.45,2.08-.68,3.68-.7,4.88-.02,1.18.05,2.34.21,3.45.19,1.26.44,2.04.8,2.53l.04.06.05.05c.35.35.81.67,1.39.97.58.29,1,.43,1.39.43.08,0,.16,0,.23-.02.82-.08,1.78-.8,3.19-2.38.13-.11.26-.24.38-.37.1-.11.22-.23.34-.36.78-.78,1.44-1.68,1.93-2.67.12-.2.31-.48.55-.83.32-.45.67-1.15,1.09-2.14.44-1.04.66-1.8.7-2.39.06-.84-.28-1.53-.96-1.96-.37-.23-.78-.35-1.21-.35-.28,0-.57.05-.86.16-.68.25-1.15.76-1.36,1.45-.03.04-.07.08-.12.13-.3.34-.42.65-.45.92l-.1.09-.06.13c-.07.13-.14.31-.23.58-.01.03-.02.06-.03.09-.03.02-.06.04-.1.07-.32.22-.51.41-.64.63-.1.17-.22.48-.13.89-.07.13-.2.38-.48.81-.29.44-.58.83-.87,1.18.01-.08.02-.18.04-.28.2-.41.25-.93.14-1.57-.02-.21-.02-.35-.01-.42,0,0,0,0,0,0,0,0,.04-.1.16-.31l.08-.13.03-.15c.11-.49.17-.76.2-.92.24-.57.31-1.2.21-1.86-.14-.94-.58-1.42-.98-1.67-.32-.29-.73-.44-1.18-.44h0Z"/>
        </g>
        <g>
          <path class="cls-1" d="M118.43,112.19c-1.37,0-2.51-.41-3.4-1.22-.9-.82-1.35-1.99-1.35-3.46,0-.54.03-1.11.09-1.71.06-.64.27-1.4.63-2.31.36-.9.93-1.88,1.7-2.9.79-1.06,1.67-1.82,2.6-2.25.94-.43,1.73-.64,2.42-.64,1.47,0,2.58.38,3.29,1.12.7.74,1.06,1.47,1.06,2.16v.27c0,.58-.32,1.4-1.02,2.6-.35.62-.9,1.19-1.61,1.68-.73.49-1.49.76-2.23.78-.12,0-.25,0-.37,0-.55,0-1.1-.04-1.62-.13-.78-.13-.97-.15-1.02-.15.01.07-.11.32-.11,1.13.06.57.23.84.36.95.19.17.42.25.71.25.34,0,.66-.07.96-.2.32-.14.71-.4,1.15-.78.59-.5,1.06-.73,1.46-.73s.8.19,1.17.55c.36.36.55.72.59,1.09v.05s0,.05,0,.05c-.09.66-.64,1.42-1.75,2.37-1.07.93-2.31,1.4-3.67,1.4ZM118.85,102.97c.1.01.24.03.43.03.89,0,1.09-.09,1.11-.1.06-.03.28-.18.86-.76.52-.51.59-.69.6-.71-.01,0-.01-.2-.65-.26h-.33s-.27.02-.95.61c-.4.35-.77.75-1.09,1.19Z"/>
          <path class="cls-2" d="M121.12,98.19c1.34,0,2.31.32,2.92.97.61.65.92,1.25.92,1.82v.27c0,.48-.32,1.26-.95,2.35-.32.57-.8,1.07-1.46,1.51-.66.44-1.32.67-1.97.7-.12,0-.24,0-.35,0-.53,0-1.04-.04-1.53-.13-.6-.1-.97-.15-1.1-.15s-.26.08-.37.24c-.16.25-.24.71-.24,1.39.07.64.24,1.08.53,1.33.28.25.63.37,1.04.37s.79-.08,1.16-.24c.36-.16.79-.44,1.28-.85.49-.41.87-.61,1.14-.61s.54.14.82.41c.27.27.42.53.44.78-.07.52-.59,1.21-1.58,2.06-.99.85-2.1,1.28-3.35,1.28s-2.27-.36-3.06-1.09c-.79-.73-1.19-1.76-1.19-3.09,0-.52.03-1.08.08-1.67.06-.59.25-1.31.59-2.18.34-.86.88-1.79,1.63-2.79.75-1,1.55-1.69,2.41-2.09.86-.4,1.6-.59,2.21-.59M119.28,103.49c.7,0,1.15-.05,1.34-.15.19-.1.52-.39.99-.85.46-.46.71-.79.73-.97,0-.5-.36-.78-1.09-.85h-.37c-.29,0-.72.24-1.28.73-.56.49-1.04,1.05-1.44,1.68.04.27.42.41,1.12.41M121.12,97.19c-.76,0-1.62.22-2.63.69-1.01.47-1.95,1.27-2.8,2.4-.8,1.06-1.39,2.08-1.76,3.02-.38.96-.59,1.76-.66,2.45-.06.62-.09,1.21-.09,1.76,0,1.62.51,2.91,1.52,3.83.98.9,2.24,1.35,3.73,1.35s2.83-.51,4-1.52c1.21-1.04,1.82-1.89,1.92-2.69v-.11s0-.11,0-.11c-.04-.49-.29-.96-.73-1.4-.32-.32-.66-.53-1.02-.63.16-.09.33-.19.49-.3.79-.53,1.38-1.15,1.78-1.85.74-1.28,1.08-2.16,1.08-2.84v-.27c0-.83-.4-1.67-1.19-2.51-.81-.85-2.03-1.28-3.65-1.28h0ZM120.94,101.67h.08s-.07.07-.11.11c-.44.44-.65.6-.72.66-.04,0-.12.02-.26.03.11-.11.22-.22.34-.32.4-.35.61-.46.67-.48h0ZM117.97,107.11c0-.23.01-.4.03-.52.13.02.3.05.52.08.55.09,1.12.14,1.7.14.12,0,.24,0,.36,0-.08.06-.17.13-.26.2-.51.43-.85.62-1.04.7-.23.1-.48.15-.75.15-.21,0-.31-.06-.38-.12,0,0-.13-.13-.19-.63h0Z"/>
        </g>
        <g>
          <path class="cls-1" d="M127.13,111.7c-.35,0-.72-.18-1.14-.55-.82-.61-1.21-1.33-1.1-2.12.08-.62.31-1.74.71-3.4.06-.59.42-1.82,1.09-3.67.67-1.86,1.21-3.09,1.67-3.77.38-.4.87-.56,1.5-.56s1.09.14,1.37.42c.6.52.49,1.63-.42,3.61.05-.04.1-.08.15-.12,1.33-1.03,1.72-1.27,1.9-1.36.26-.13.54-.25.84-.37.26-.1.41-.17.46-.19.47-.24,1-.36,1.57-.36.13,0,.26,0,.39.02.83.07,1.36.38,1.58.91l.04.09v.1s.02.04.13.1l.09.05.35.42v.18c0,.34-.2.68-.64,1.07-.4.36-.84.55-1.29.58-.28.02-.62.12-1.03.31-.45.21-.89.43-1.31.66-.43.24-.75.42-.96.54-.21.12-.49.29-.83.49-.57.39-1.11.87-1.58,1.42-.84.84-.97,1.06-.99,1.09l-.04.07-.06.06s-.15.18-.36,1.01c-.23.89-.24,1.09-.24,1.12v.06s-.02.06-.02.06c-.11.43-.31.84-.6,1.22-.32.42-.64.67-.99.77-.09.02-.17.04-.26.04Z"/>
          <path class="cls-2" d="M129.86,98.12c.5,0,.84.09,1.02.27.5.43.15,1.81-1.05,4.15-.39.77-.51,1.16-.37,1.16.25-.43.86-1.02,1.82-1.77.96-.75,1.57-1.18,1.82-1.31.25-.12.51-.24.8-.36.28-.11.45-.18.49-.2.41-.2.86-.3,1.35-.3.11,0,.23,0,.35.02.63.06,1.02.25,1.16.59,0,.23.14.41.41.54l.17.2c0,.18-.16.41-.48.7-.32.28-.65.44-.99.46s-.74.14-1.21.36c-.46.21-.91.44-1.34.68s-.75.42-.97.54c-.22.12-.49.29-.83.49-.63.43-1.2.94-1.7,1.53-.61.61-.96,1.01-1.05,1.19-.16.16-.32.57-.49,1.24s-.25,1.08-.25,1.24c-.09.36-.26.71-.51,1.04-.25.33-.49.53-.73.6-.04.01-.08.02-.12.02-.22,0-.49-.14-.81-.42-.7-.52-1.01-1.08-.93-1.68.08-.6.31-1.72.7-3.35.07-.61.42-1.82,1.07-3.62.65-1.8,1.18-3.02,1.62-3.65.23-.23.59-.34,1.09-.34M129.86,97.12c-.77,0-1.37.21-1.79.63l-.07.07-.05.08c-.48.71-1.05,1.98-1.73,3.88-.86,2.41-1.06,3.32-1.12,3.78-.39,1.65-.62,2.76-.7,3.39-.09.67.06,1.66,1.3,2.59.5.44.97.65,1.44.65.14,0,.27-.02.4-.05.46-.13.87-.44,1.26-.95.33-.43.56-.9.68-1.4l.03-.12v-.12s.02-.21.22-.99c.14-.55.24-.76.27-.82l.08-.08.07-.15s0,0,0,0c0,0,.15-.21.87-.93l.03-.03.03-.03c.43-.51.93-.96,1.48-1.33.32-.19.59-.35.79-.47.21-.12.53-.3.95-.53.41-.23.84-.44,1.28-.65.44-.2.71-.26.85-.27.56-.04,1.1-.28,1.59-.71.35-.31.81-.8.81-1.44v-.36l-.23-.28-.17-.2-.13-.16-.09-.04-.03-.07c-.2-.49-.7-1.1-1.99-1.22-.15-.01-.29-.02-.43-.02-.65,0-1.26.14-1.8.41-.04.02-.18.08-.42.17-.3.12-.59.25-.87.39-.13.07-.33.18-.74.48.35-1.23.23-2.03-.34-2.54-.38-.36-.94-.54-1.7-.54h0Z"/>
        </g>
        <g>
          <path class="cls-1" d="M148.58,112.05c-.6,0-1.15-.31-1.66-.91-.48-.58-.73-1.3-.73-2.16,0-.79.25-2.1.77-4.02,0-.03.01-.07.02-.11-.05.04-.11.08-.16.12-.17.13-.4.33-.7.59-.32.27-.6.49-.84.66-.15.1-.51.38-1.39,1.13-2.93,2.53-3.12,2.53-3.37,2.53-.21,0-.5-.07-1.28-.55-.66-.41-1-.91-1-1.46,0-.28.07-.84.64-2.55.41-1.24.91-2.47,1.49-3.66.01-.03.08-.22.19-1.11.09-.52.35-2.07,1.48-2.07.62,0,1.19.29,1.69.85.48.55.72,1.12.72,1.71,0,.39-.06.81-.19,1.28.65-.48,1.23-.88,1.7-1.18l1.18-.71.98-.31h.08c.44,0,.89.15,1.34.44.47.3.73.64.78,1.01,0,0,.02.02.03.03.54.56.79,1.18.79,1.88,0,.61-.18,1.64-.54,3.16-.43,1.77-.52,2.39-.53,2.6,0,.27.03.52.1.73.13.33.19.58.19.77,0,.27-.14.53-.44.85-.3.32-.75.48-1.33.48Z"/>
          <path class="cls-2" d="M142.03,98.97c.48,0,.91.23,1.31.68.4.45.59.91.59,1.38s-.11,1.01-.32,1.63c-.22.62-.37.99-.46,1.11.04-.02.11-.08.2-.17.23-.23.59-.5,1.09-.82.7-.52,1.29-.93,1.77-1.22l1.12-.68.85-.27c.34,0,.7.12,1.07.36.37.24.56.48.56.73,0,.07.07.16.2.27.41.43.61.93.61,1.5s-.18,1.58-.53,3.04c-.35,1.46-.53,2.36-.54,2.7-.01.34.03.65.14.92.1.27.15.47.15.6s-.1.29-.31.51c-.2.22-.53.32-.97.32s-.87-.24-1.27-.73c-.41-.49-.61-1.1-.61-1.84s.25-2.03.75-3.89c.02-.14.04-.25.07-.36.02-.1.04-.18.05-.24.01-.06.02-.11.03-.15.01-.04.02-.11.02-.19s-.05-.12-.14-.12-.23.06-.43.17c-.19.11-.37.24-.54.37-.17.14-.41.33-.71.6-.31.26-.57.47-.8.63s-.7.54-1.43,1.16c-1.86,1.61-2.87,2.41-3.04,2.41s-.51-.16-1.02-.48c-.51-.32-.76-.66-.76-1.04s.2-1.17.61-2.4c.41-1.22.89-2.43,1.46-3.6.07-.14.15-.55.24-1.26.18-1.09.51-1.63.99-1.63M142.03,97.97c-1.04,0-1.7.83-1.97,2.47-.09.72-.15.96-.17,1.02-.58,1.21-1.08,2.45-1.49,3.69-.59,1.76-.66,2.38-.66,2.71,0,.51.21,1.25,1.24,1.89.73.45,1.16.63,1.55.63.43,0,.63,0,3.7-2.66.9-.76,1.23-1.01,1.35-1.09.17-.12.36-.26.56-.43-.29,1.25-.44,2.16-.44,2.79,0,.97.28,1.81.85,2.48.6.72,1.29,1.09,2.04,1.09s1.3-.21,1.7-.64c.25-.26.58-.67.58-1.2,0-.26-.07-.55-.22-.95-.05-.15-.08-.33-.07-.53,0-.1.05-.56.52-2.5.38-1.58.56-2.62.56-3.28,0-.82-.29-1.55-.87-2.17-.1-.37-.36-.79-.97-1.18-.53-.34-1.07-.51-1.61-.51h-.16l-.15.05-.85.27-.11.04-.1.06-1.12.68c-.23.14-.49.31-.76.5,0-.06,0-.12,0-.17,0-.71-.28-1.39-.84-2.03-.74-.85-1.53-1.02-2.06-1.02h0Z"/>
        </g>
        <g>
          <path class="cls-1" d="M155.97,111.79c-.19,0-.39-.02-.62-.05-.33-.05-.92-.14-1.07-.54h-.03c-.49-.42-.77-.58-.92-.65l-.14-.06-.08-.12c-.3-.44-.47-.89-.5-1.34-.02-.27,0-.8.41-2.34.04-1.4.73-3,2.06-4.74,1.29-1.71,2.56-2.94,3.75-3.65.4-.38.93-.58,1.56-.61h.18c.55,0,1.03.11,1.42.34.41.24.85.67,1.34,1.32.46.61.81,1.18,1.06,1.68l.05.1v.11s0,0,0,0c0,0,.06.2.15.53.14.53.19.8.11,1,0,.08-.02.34-.02,1.05v.07l-.02.07c-.26.88-.39,1.68-.39,2.38-.03.34,0,.5.02.56.02-.02.09-.04.2-.09.2-.1.41-.15.63-.15.36,0,.71.14,1.04.42.32.27.79.87.31,1.84-.29.59-.75,1.1-1.38,1.51-.64.42-1.22.62-1.75.62-.58,0-1.1-.27-1.54-.79-.35-.39-.66-.98-.92-1.79l-.63.58c-.13.15-.33.36-.56.6-.63.57-.74.71-.75.73-.15.27-.53.66-2.18,1.29-.24.08-.49.11-.76.11ZM160.48,101.76c-.25.05-.89.36-2.1,2.03-.57.68-.98,1.42-1.24,2.24-.37,1.16-.4,1.41-.4,1.45,0,.17.02.24.03.27,0-.04.14-.06.44-.23.46-.28.83-.59,1.09-.9.37-.5.86-1.21,1.47-2.11.6-.8.97-1.46,1.12-1.98-.19-.54-.34-.72-.41-.77Z"/>
          <path class="cls-2" d="M160.56,98.19c.46,0,.85.09,1.17.28.35.2.75.6,1.19,1.19.44.59.78,1.12,1,1.6,0,.02.06.24.17.66.11.42.15.65.12.7-.03.05-.05.45-.05,1.22-.27.93-.41,1.77-.41,2.52-.04.43,0,.74.15.92.07.09.18.14.31.14s.29-.05.48-.14c.14-.07.27-.1.41-.1.24,0,.48.1.71.3.37.32.44.73.19,1.24-.25.51-.65.95-1.21,1.31-.56.36-1.05.54-1.48.54s-.82-.2-1.16-.61c-.41-.45-.76-1.25-1.05-2.38l-1.22,1.12c-.16.18-.35.39-.58.61-.48.43-.75.7-.82.82-.16.29-.8.66-1.94,1.09-.17.05-.36.08-.58.08-.17,0-.35-.01-.54-.04-.45-.07-.68-.15-.68-.25s0-.16-.02-.17c-.01-.01-.06-.02-.15-.02-.43-.36-.78-.6-1.05-.71-.25-.36-.39-.73-.41-1.09s.11-1.11.41-2.24c.02-1.31.67-2.82,1.96-4.5,1.28-1.69,2.5-2.87,3.65-3.55.32-.32.74-.49,1.28-.51.05,0,.1,0,.16,0M156.72,108.22c.19,0,.44-.09.75-.27.52-.32.93-.66,1.22-1.02.38-.52.88-1.24,1.5-2.14.68-.91,1.09-1.67,1.22-2.28-.25-.77-.53-1.19-.85-1.26-.63,0-1.5.75-2.58,2.24-.59.7-1.03,1.5-1.31,2.38-.28.88-.42,1.42-.42,1.6,0,.5.16.74.48.74M160.56,97.19c-.06,0-.13,0-.2,0-.74.03-1.35.27-1.84.71-1.25.76-2.51,1.99-3.84,3.75-1.39,1.83-2.09,3.46-2.15,4.97-.4,1.56-.43,2.13-.41,2.45.03.55.23,1.08.58,1.59l.17.24.27.11c.08.03.31.15.76.53.33.54,1.09.65,1.38.69.24.04.47.06.69.06.32,0,.61-.04.87-.12h.03s.03-.02.03-.02c1.39-.53,2.1-.96,2.42-1.47.04-.05.19-.21.65-.62l.02-.02.02-.02c.23-.23.42-.43.58-.62l.05-.04c.23.53.48.95.77,1.27.64.77,1.39.94,1.9.94.64,0,1.3-.23,2.03-.71.71-.46,1.23-1.03,1.56-1.71.45-.92.28-1.83-.44-2.44-.42-.36-.88-.54-1.36-.54-.11,0-.23.01-.34.03.02-.61.14-1.31.37-2.09l.04-.14v-.14c0-.56,0-.82.02-.94.12-.37,0-.78-.12-1.24-.07-.24-.11-.41-.14-.51v-.12l-.1-.2c-.26-.53-.63-1.13-1.11-1.77-.53-.7-1.02-1.18-1.49-1.45-.47-.27-1.03-.41-1.67-.41h0ZM157.44,106.76c.05-.16.11-.35.18-.58.24-.75.62-1.44,1.12-2.04l.02-.03.02-.03c.75-1.03,1.24-1.49,1.52-1.68.02.04.04.09.06.14-.13.35-.4.88-.97,1.65-.62.92-1.12,1.63-1.5,2.15-.11.13-.26.28-.45.42h0Z"/>
        </g>
        <g>
          <path class="cls-1" d="M177.93,111.17c-.97,0-1.75-.57-2.32-1.71-.31-.88-.46-1.69-.46-2.47v-.9c-.39.37-1.02,1-2.04,2.08-2.41,2.53-3.34,2.86-3.88,2.86-.16,0-.36-.05-.87-.31-.41-.21-.64-.35-.78-.48-.36-.36-.52-1.12-.52-2.46,0-1.24.65-3.24,1.98-6.13.15-.25.33-.63.57-1.18.55-1.25,1.05-2.08,1.53-2.57l.15-.15h.21c.2,0,.4.01.6.04.27.03.6.18,1.07.48.51.32.83.76.95,1.3v.05s.01.05.01.05c0,.97-.35,1.93-1.05,2.88-.11.15-.29.46-.56,1.13,1.67-1.59,2.99-2.39,4.01-2.44h0c.69,0,1.27.33,1.75.98.45.61.68,1.34.68,2.17,0,.14-.02.54-.07,1.19v1.24c.12-.04.24-.08.36-.12.69-.24,1.38-.39,2.04-.46l.62-.07-.07.62c-.08.73-.52,1.61-1.34,2.68-.87,1.13-1.72,1.67-2.59,1.67Z"/>
          <path class="cls-2" d="M171.51,98.26c.18,0,.36.01.54.03.18.02.47.16.87.41.4.25.64.58.73.99,0,.86-.32,1.72-.95,2.58-.25.34-.58,1.08-.99,2.21-.07.07-.21.32-.42.75-.22.43-.32.67-.32.71.02,0,.51-.48,1.46-1.43,1.79-1.79,3.17-2.71,4.15-2.75.5,0,.94.26,1.33.78.39.52.58,1.15.58,1.87,0,.14-.02.52-.07,1.16v1.94c.34-.09.68-.19,1.02-.31.66-.23,1.3-.37,1.94-.44-.07.63-.48,1.44-1.24,2.43-.76.99-1.49,1.48-2.19,1.48-.77,0-1.39-.48-1.87-1.43-.27-.77-.41-1.52-.41-2.24v-1.5c0-.25-.02-.37-.07-.37-.18,0-1.13.9-2.84,2.7-1.71,1.8-2.88,2.7-3.52,2.7-.09,0-.31-.08-.65-.25s-.56-.3-.65-.39c-.25-.25-.37-.95-.37-2.11s.65-3.13,1.94-5.92c.14-.23.33-.62.58-1.19.52-1.18,1-1.98,1.43-2.41M171.51,97.26h-.41l-.29.29c-.52.52-1.06,1.41-1.64,2.72-.29.66-.44.95-.52,1.08l-.03.05-.02.05c-1.37,2.95-2.03,5.02-2.03,6.34,0,1.53.19,2.34.67,2.82.18.18.44.34.91.58.53.27.82.36,1.09.36.72,0,1.73-.37,4.24-3.01.48-.51.87-.91,1.19-1.23.03.75.19,1.51.46,2.29l.02.06.03.06c.82,1.64,1.96,1.98,2.76,1.98,1.04,0,2.02-.61,2.99-1.87.88-1.15,1.35-2.11,1.44-2.93l.13-1.23-1.23.13c-.6.06-1.23.2-1.85.39v-.55c.06-.85.07-1.08.07-1.19,0-.94-.26-1.77-.77-2.46-.73-.98-1.56-1.19-2.13-1.19-.71.03-1.49.33-2.37.93.3-.66.45-1.33.45-2v-.11l-.02-.11c-.15-.67-.55-1.22-1.17-1.62-.55-.34-.93-.51-1.27-.55-.24-.03-.46-.04-.67-.04h0Z"/>
        </g>
        <g>
          <path class="cls-1" d="M186.48,112.39c-.88,0-1.7-.27-2.46-.8-1.01-.71-1.52-1.68-1.52-2.89-.12-1.05.08-2.43.58-4.06.5-1.62,1.17-2.94,1.98-3.94,1.23-1.46,2.17-2.32,2.89-2.61.69-.28,1.44-.43,2.23-.43h.12c.88.22,2.02.58,2.22,1.39.4.19.65.74.85,1.32.29.81.32,1.43.11,1.9-.11.47-.3.92-.58,1.36-.13.2-.49.77-1.03.84-.09.18-.3.38-.76.4,0,0-.01,0-.02,0-.37,0-.66-.07-.95-.2-.4-.17-.65-.42-.74-.73l-.02-.07v-.07c0-.11.02-.31.25-1.35.12-.55.13-.82.12-.95-.05.01-.12.03-.22.07-.7.4-1.27.96-1.64,1.63-.4.72-.75,1.65-1.04,2.78-.41,1.55-.42,1.92-.41,1.99.02.2.05.32.08.37.18.04.35.06.51.06.29,0,.55-.06.79-.19.49-.26,1.17-.71,2-1.35.03-.03.09-.12.17-.25.16-.24.32-.42.49-.54.27-.37.68-.57,1.17-.57h.79l.08.03c.52.17.94.52,1.25,1.03.28.62.05.92-.09,1.04-.08.38-.48.89-1.34,1.76-1.18,1.19-1.66,1.47-2.01,1.49-.15.23-.51.44-1.24.79-.73.35-1.32.57-1.79.67-.28.05-.55.07-.81.07Z"/>
          <path class="cls-2" d="M190.17,98.16c1.25.29,1.87.68,1.87,1.16l.17.17c.2,0,.43.35.68,1.05.25.7.28,1.22.1,1.56-.09.43-.27.85-.53,1.26s-.5.61-.71.61-.32.06-.32.19-.12.19-.36.2c-.02,0-.04,0-.07,0-.22,0-.45-.05-.68-.15-.26-.11-.41-.25-.46-.41,0-.11.08-.53.24-1.24s.18-1.18.05-1.39c-.07-.12-.18-.17-.34-.17-.13,0-.3.04-.5.12-.84.48-1.47,1.09-1.89,1.85-.42.76-.78,1.72-1.09,2.89-.31,1.17-.45,1.89-.42,2.16.04.43.15.69.31.78.27.07.53.11.78.11.37,0,.71-.08,1.02-.25.52-.27,1.21-.74,2.07-1.39.05-.02.14-.15.29-.37s.29-.37.42-.44c.18-.29.45-.44.82-.44h.71c.41.14.74.41.99.82.09.2.09.34,0,.41l-.17.17c.09.18-.31.72-1.19,1.62s-1.45,1.34-1.7,1.34-.37.07-.37.2c0,.09-.35.3-1.04.63-.69.33-1.25.54-1.68.63-.24.04-.47.06-.7.06-.77,0-1.5-.24-2.17-.71-.87-.61-1.31-1.44-1.31-2.48-.11-1.04.07-2.35.56-3.91.49-1.56,1.12-2.82,1.89-3.77,1.16-1.38,2.05-2.2,2.69-2.46.63-.26,1.31-.39,2.04-.39M190.29,97.16h-.12c-.85,0-1.67.16-2.42.47-.81.33-1.78,1.2-3.07,2.75-.86,1.06-1.55,2.44-2.07,4.12-.53,1.69-.72,3.08-.61,4.26.02,1.34.61,2.46,1.73,3.25.84.59,1.77.89,2.75.89.29,0,.58-.03.87-.08.55-.12,1.17-.35,1.94-.71.53-.25,1-.47,1.29-.77.45-.11,1.01-.5,2.1-1.6.69-.7,1.23-1.29,1.42-1.85.27-.31.42-.81.14-1.45l-.03-.06-.04-.06c-.38-.61-.89-1.03-1.52-1.24l-.15-.05h-.45s.07-.07.1-.1c.63-.19,1.01-.79,1.15-1.01.3-.47.51-.96.64-1.47.25-.58.21-1.31-.11-2.22-.14-.4-.4-1.12-.91-1.49-.44-1.04-1.96-1.4-2.52-1.53l-.11-.03h0ZM186.92,107.91c0-.06.05-.45.4-1.79.28-1.08.62-1.98,1-2.66.2-.36.46-.68.79-.96-.21.96-.23,1.17-.23,1.31v.14l.04.13c.09.32.34.76,1.03,1.05.2.09.41.15.62.19-.16.11-.31.24-.44.4-.2.15-.38.36-.56.63-.04.07-.08.12-.11.17-.79.6-1.42,1.02-1.88,1.26-.17.09-.35.13-.56.13-.03,0-.06,0-.09,0h0Z"/>
        </g>
        <g>
          <path class="cls-1" d="M199.5,112.22c-.63,0-1.29-.12-1.95-.37-1.94-.78-2.75-2.64-2.43-5.56.05-.76,0-1.06-.03-1.18-.06-.21-.13-.3-.18-.34l-.46-.39c-.51-.48-.71-.77-.73-1.06-.02-.21.03-.47.15-.78.14-.36.26-.55.42-.66.86-.38,1.04-.41,1.17-.41.24.03.41.1.67.26.04.02.09.06.16.1.05-.08.11-.19.19-.32l.3-.6c.37-.56.84-1.07,1.41-1.57.58-.5,1.04-.83,1.4-1.02.37-.19.87-.35,1.54-.49.56-.11.97-.17,1.26-.17.06,0,.12,0,.17,0,.87.08,1.77.6,2.66,1.55.46.32.77.97.85,1.88.07.83-.03,1.52-.31,2.06-.15.44-.61.98-1.48,1.73-.85.73-1.54,1.2-2.09,1.43-.56.15-1.14.21-1.84.21-.6,0-1.01-.04-1.31-.14,0,.03-.02.06-.03.1l-.09.7c-.07.45.03.79.31,1.08.05.06.11.14.34.14h.1c.29-.03.54-.12.76-.29.27-.21.57-.49.89-.83.32-.34.56-.57.74-.71.18-.26.53-.54,1.19-.54.29,0,.63.05,1.02.16l.09.02.07.05c.73.54.71,1.51-.06,2.89-.08.16-.3.49-1.13,1.28-.61.57-1.09.96-1.46,1.19-.75.39-1.51.58-2.29.58ZM200.02,103.22s.16,0,.47-.08c.25-.06.5-.17.76-.33.17-.1.45-.35.89-.95.07-.22.1-.36.11-.44h0c-.06,0-.23.03-.56.26l-.07.05-.08.02c-.07.02-.29.12-.75.51-.36.31-.67.62-.92.93h.15Z"/>
          <path class="cls-2" d="M202.39,98.19s.09,0,.13,0c.75.07,1.53.53,2.35,1.39.41.29.65.82.71,1.58.07.76-.02,1.37-.27,1.82-.09.34-.54.86-1.34,1.55-.8.69-1.46,1.14-1.96,1.34-.45.11-1,.17-1.65.17s-1.07-.06-1.27-.17c-.06-.03-.11-.05-.16-.05-.17,0-.3.19-.39.56l-.1.75c-.09.59.06,1.09.44,1.5.16.2.39.29.7.29.05,0,.1,0,.15,0,.39-.03.73-.16,1.02-.39.29-.23.61-.52.95-.88.34-.36.59-.6.75-.71.14-.25.41-.38.82-.38.25,0,.54.05.88.14.5.36.43,1.11-.2,2.24-.11.23-.46.61-1.04,1.16-.58.54-1.04.92-1.38,1.12-.65.34-1.33.51-2.03.51-.57,0-1.17-.11-1.78-.34-1.7-.68-2.4-2.36-2.11-5.03.05-.66.03-1.12-.05-1.38s-.19-.45-.34-.58c-.15-.12-.3-.25-.46-.39-.36-.34-.55-.58-.56-.71-.01-.14.03-.32.12-.56s.17-.38.24-.42c.5-.22.79-.32.89-.32,0,0,0,0,.01,0,.08.01.21.07.41.19.19.11.29.21.29.31.03.06.06.08.11.08.14,0,.35-.27.64-.8.09-.18.19-.39.31-.61.32-.48.75-.95,1.29-1.41.54-.46.98-.78,1.31-.95.33-.17.8-.32,1.41-.44.52-.11.91-.16,1.16-.16M200.02,103.72c.12,0,.31-.03.57-.09.31-.07.61-.2.92-.39.31-.19.66-.57,1.07-1.14.18-.54.21-.87.1-.99-.12-.12-.27-.18-.44-.18-.24,0-.52.12-.85.35-.23.07-.54.27-.93.61-.4.34-.73.68-1,1.02-.27.34-.35.54-.24.61-.02.05,0,.08.08.1.08.02.18.04.31.05s.24.02.36.03c.02,0,.03,0,.05,0M202.39,97.19h0c-.33,0-.78.06-1.36.18-.71.15-1.26.32-1.67.53-.4.2-.89.56-1.5,1.08-.61.52-1.11,1.07-1.47,1.62l-.03.05-.03.05-.23.45c-.18-.09-.33-.14-.48-.16h-.07s-.09-.01-.09-.01c-.24,0-.49.06-1.29.41l-.09.04-.08.05c-.32.22-.49.57-.61.9-.15.39-.21.71-.18,1,.04.48.38.89.87,1.36.19.16.34.29.49.42,0,0,0,0,0,0,0,0,.01.04.04.11,0,0,.06.23.01,1.02-.43,3.9,1.25,5.44,2.73,6.03.75.27,1.46.41,2.15.41.86,0,1.7-.21,2.49-.62h.03s.03-.03.03-.03c.41-.24.91-.65,1.55-1.25.88-.83,1.12-1.19,1.25-1.44,1.12-2,.57-3.01-.1-3.5l-.15-.11-.18-.05c-.08-.02-.17-.04-.25-.06.14-.12.29-.24.45-.37.93-.8,1.43-1.39,1.62-1.92.31-.61.42-1.39.34-2.3-.09-1.01-.44-1.77-1.04-2.24-.97-1-1.95-1.55-2.92-1.64-.07,0-.14,0-.22,0h0ZM199.59,107.92c-.12-.13-.22-.3-.16-.64l.04-.29c.25.03.54.05.89.05.19,0,.37,0,.54-.01-.28.29-.53.52-.76.7-.14.11-.3.17-.5.19-.02,0-.04,0-.05,0h0Z"/>
        </g>
      </g>
    </g>
  </g>
</svg>